%TF.GenerationSoftware,KiCad,Pcbnew,10.0.4*%
%TF.CreationDate,2026-07-13T13:41:15+02:00*%
%TF.ProjectId,Tempmeasurementthingiemajig,54656d70-6d65-4617-9375-72656d656e74,rev?*%
%TF.SameCoordinates,Original*%
%TF.FileFunction,Paste,Top*%
%TF.FilePolarity,Positive*%
%FSLAX46Y46*%
G04 Gerber Fmt 4.6, Leading zero omitted, Abs format (unit mm)*
G04 Created by KiCad (PCBNEW 10.0.4) date 2026-07-13 13:41:15*
%MOMM*%
%LPD*%
G01*
G04 APERTURE LIST*
G04 Aperture macros list*
%AMRoundRect*
0 Rectangle with rounded corners*
0 $1 Rounding radius*
0 $2 $3 $4 $5 $6 $7 $8 $9 X,Y pos of 4 corners*
0 Add a 4 corners polygon primitive as box body*
4,1,4,$2,$3,$4,$5,$6,$7,$8,$9,$2,$3,0*
0 Add four circle primitives for the rounded corners*
1,1,$1+$1,$2,$3*
1,1,$1+$1,$4,$5*
1,1,$1+$1,$6,$7*
1,1,$1+$1,$8,$9*
0 Add four rect primitives between the rounded corners*
20,1,$1+$1,$2,$3,$4,$5,0*
20,1,$1+$1,$4,$5,$6,$7,0*
20,1,$1+$1,$6,$7,$8,$9,0*
20,1,$1+$1,$8,$9,$2,$3,0*%
G04 Aperture macros list end*
%ADD10R,0.500000X0.300000*%
%ADD11RoundRect,0.250000X0.450000X-0.350000X0.450000X0.350000X-0.450000X0.350000X-0.450000X-0.350000X0*%
%ADD12RoundRect,0.100000X-0.637500X-0.100000X0.637500X-0.100000X0.637500X0.100000X-0.637500X0.100000X0*%
%ADD13RoundRect,0.250000X0.337500X0.475000X-0.337500X0.475000X-0.337500X-0.475000X0.337500X-0.475000X0*%
%ADD14RoundRect,0.250000X-0.450000X-0.350000X0.450000X-0.350000X0.450000X0.350000X-0.450000X0.350000X0*%
%ADD15RoundRect,0.250000X-0.275000X-0.350000X0.275000X-0.350000X0.275000X0.350000X-0.275000X0.350000X0*%
%ADD16R,0.550000X1.200000*%
%ADD17RoundRect,0.250000X-0.325000X-0.450000X0.325000X-0.450000X0.325000X0.450000X-0.325000X0.450000X0*%
%ADD18RoundRect,0.250000X-0.475000X0.337500X-0.475000X-0.337500X0.475000X-0.337500X0.475000X0.337500X0*%
G04 APERTURE END LIST*
D10*
%TO.C,U3*%
X106800000Y-95100000D03*
X106800000Y-95900000D03*
X108200000Y-95900000D03*
X108200000Y-95100000D03*
%TD*%
D11*
%TO.C,R1*%
X96000000Y-88000000D03*
X96000000Y-86000000D03*
%TD*%
D12*
%TO.C,U2*%
X100637500Y-86075000D03*
X100637500Y-86725000D03*
X100637500Y-87375000D03*
X100637500Y-88025000D03*
X100637500Y-88675000D03*
X100637500Y-89325000D03*
X100637500Y-89975000D03*
X100637500Y-90625000D03*
X100637500Y-91275000D03*
X100637500Y-91925000D03*
X106362500Y-91925000D03*
X106362500Y-91275000D03*
X106362500Y-90625000D03*
X106362500Y-89975000D03*
X106362500Y-89325000D03*
X106362500Y-88675000D03*
X106362500Y-88025000D03*
X106362500Y-87375000D03*
X106362500Y-86725000D03*
X106362500Y-86075000D03*
%TD*%
D13*
%TO.C,C5*%
X111037500Y-110000000D03*
X108962500Y-110000000D03*
%TD*%
D14*
%TO.C,Y1*%
X109500000Y-101000000D03*
X111700000Y-101000000D03*
X111700000Y-99300000D03*
X109500000Y-99300000D03*
%TD*%
D15*
%TO.C,L2*%
X103024626Y-105986337D03*
X105324626Y-105986337D03*
%TD*%
%TO.C,L1*%
X104850000Y-110000000D03*
X107150000Y-110000000D03*
%TD*%
D16*
%TO.C,U1*%
X103950000Y-100200000D03*
X103000000Y-100200000D03*
X102050000Y-100200000D03*
X102050000Y-102800000D03*
X103000000Y-102800000D03*
X103950000Y-102800000D03*
%TD*%
D17*
%TO.C,D1*%
X93975000Y-84000000D03*
X96025000Y-84000000D03*
%TD*%
D18*
%TO.C,C4*%
X103000000Y-108000000D03*
X103000000Y-110075000D03*
%TD*%
M02*
