M48
; DRILL file KiCad 10.0.4 date 2026-07-13T13:44:58
; FORMAT={-:-/ absolute / metric / decimal}
; #@! TF.CreationDate,2026-07-13T13:44:58+02:00
; #@! TF.GenerationSoftware,Kicad,Pcbnew,10.0.4
; #@! TF.FileFunction,Plated,1,4,PTH
FMAT,2
METRIC
; #@! TA.AperFunction,Plated,PTH,ViaDrill
T1C0.300
; #@! TA.AperFunction,Plated,PTH,ComponentDrill
T2C1.000
%
G90
G05
T1
X89.0Y-71.5
X90.0Y-91.5
X93.0Y-84.0
X94.5Y-68.5
X96.0Y-89.0
X97.17Y-88.6
X97.4Y-89.5
X99.0Y-88.0
X99.0Y-89.599
X99.0Y-92.0
X99.0Y-104.0
X99.034Y-88.799
X99.6Y-90.725
X101.5Y-101.5
X102.0Y-66.0
X102.0Y-86.0
X102.015Y-91.269
X102.015Y-98.5
X102.5Y-90.0
X103.0Y-98.5
X104.0Y-104.0
X104.5Y-94.1
X105.0Y-86.0
X106.0Y-97.5
X106.5Y-94.1
X107.0Y-106.0
X107.5Y-86.0
X108.0Y-99.0
X109.0Y-95.0
X109.0Y-96.0
X109.5Y-68.5
X112.5Y-93.0
X113.0Y-101.0
X113.0Y-110.0
X114.0Y-102.0
X115.0Y-71.5
T2
X88.0Y-86.72
X88.0Y-89.26
X88.0Y-91.8
X88.0Y-94.34
X88.0Y-96.88
X88.0Y-99.42
X88.0Y-101.96
X88.0Y-104.5
X88.0Y-108.105
X88.0Y-110.645
X97.0Y-94.92
X97.0Y-97.46
X97.0Y-100.0
X97.0Y-102.54
X97.0Y-105.08
X108.19Y-104.0
X110.73Y-104.0
X113.27Y-104.0
X114.295Y-67.205
X115.81Y-104.0
X116.5Y-82.42
X116.5Y-84.96
X116.5Y-87.5
X116.5Y-90.04
X116.5Y-92.58
X116.5Y-95.12
X116.5Y-97.66
X116.5Y-100.2
X116.835Y-67.205
M30
