%TF.GenerationSoftware,KiCad,Pcbnew,10.0.4*%
%TF.CreationDate,2026-07-13T13:41:14+02:00*%
%TF.ProjectId,Tempmeasurementthingiemajig,54656d70-6d65-4617-9375-72656d656e74,rev?*%
%TF.SameCoordinates,Original*%
%TF.FileFunction,Copper,L1,Top*%
%TF.FilePolarity,Positive*%
%FSLAX46Y46*%
G04 Gerber Fmt 4.6, Leading zero omitted, Abs format (unit mm)*
G04 Created by KiCad (PCBNEW 10.0.4) date 2026-07-13 13:41:14*
%MOMM*%
%LPD*%
G01*
G04 APERTURE LIST*
G04 Aperture macros list*
%AMRoundRect*
0 Rectangle with rounded corners*
0 $1 Rounding radius*
0 $2 $3 $4 $5 $6 $7 $8 $9 X,Y pos of 4 corners*
0 Add a 4 corners polygon primitive as box body*
4,1,4,$2,$3,$4,$5,$6,$7,$8,$9,$2,$3,0*
0 Add four circle primitives for the rounded corners*
1,1,$1+$1,$2,$3*
1,1,$1+$1,$4,$5*
1,1,$1+$1,$6,$7*
1,1,$1+$1,$8,$9*
0 Add four rect primitives between the rounded corners*
20,1,$1+$1,$2,$3,$4,$5,0*
20,1,$1+$1,$4,$5,$6,$7,0*
20,1,$1+$1,$6,$7,$8,$9,0*
20,1,$1+$1,$8,$9,$2,$3,0*%
G04 Aperture macros list end*
%TA.AperFunction,ComponentPad*%
%ADD10R,1.700000X1.700000*%
%TD*%
%TA.AperFunction,ComponentPad*%
%ADD11C,1.700000*%
%TD*%
%TA.AperFunction,SMDPad,CuDef*%
%ADD12R,0.500000X0.300000*%
%TD*%
%TA.AperFunction,SMDPad,CuDef*%
%ADD13RoundRect,0.250000X0.450000X-0.350000X0.450000X0.350000X-0.450000X0.350000X-0.450000X-0.350000X0*%
%TD*%
%TA.AperFunction,SMDPad,CuDef*%
%ADD14RoundRect,0.100000X-0.637500X-0.100000X0.637500X-0.100000X0.637500X0.100000X-0.637500X0.100000X0*%
%TD*%
%TA.AperFunction,SMDPad,CuDef*%
%ADD15RoundRect,0.250000X0.337500X0.475000X-0.337500X0.475000X-0.337500X-0.475000X0.337500X-0.475000X0*%
%TD*%
%TA.AperFunction,SMDPad,CuDef*%
%ADD16RoundRect,0.250000X-0.450000X-0.350000X0.450000X-0.350000X0.450000X0.350000X-0.450000X0.350000X0*%
%TD*%
%TA.AperFunction,SMDPad,CuDef*%
%ADD17RoundRect,0.250000X-0.275000X-0.350000X0.275000X-0.350000X0.275000X0.350000X-0.275000X0.350000X0*%
%TD*%
%TA.AperFunction,SMDPad,CuDef*%
%ADD18R,0.550000X1.200000*%
%TD*%
%TA.AperFunction,SMDPad,CuDef*%
%ADD19RoundRect,0.250000X-0.325000X-0.450000X0.325000X-0.450000X0.325000X0.450000X-0.325000X0.450000X0*%
%TD*%
%TA.AperFunction,SMDPad,CuDef*%
%ADD20RoundRect,0.250000X-0.475000X0.337500X-0.475000X-0.337500X0.475000X-0.337500X0.475000X0.337500X0*%
%TD*%
%TA.AperFunction,ViaPad*%
%ADD21C,0.600000*%
%TD*%
%TA.AperFunction,Conductor*%
%ADD22C,0.300000*%
%TD*%
%TA.AperFunction,Conductor*%
%ADD23C,0.200000*%
%TD*%
%TA.AperFunction,Conductor*%
%ADD24C,0.355500*%
%TD*%
G04 APERTURE END LIST*
D10*
%TO.P,J6,1,Pin_1_1*%
%TO.N,GND*%
X114295000Y-67205000D03*
D11*
%TO.P,J6,2,Pin_2_2*%
%TO.N,+3.3V*%
X116835000Y-67205000D03*
%TD*%
D12*
%TO.P,U3,1,SDA_1*%
%TO.N,MCU_SDA*%
X106800000Y-95100000D03*
%TO.P,U3,2,SCL_2*%
%TO.N,MCU_SCL*%
X106800000Y-95900000D03*
%TO.P,U3,3,VDD_3*%
%TO.N,+3.3V*%
X108200000Y-95900000D03*
%TO.P,U3,4,VSS_4*%
%TO.N,GND*%
X108200000Y-95100000D03*
%TD*%
D10*
%TO.P,J5,1,Pin_1_1*%
%TO.N,Net-(J5-Pin_1)*%
X88000000Y-108105000D03*
D11*
%TO.P,J5,2,Pin_2_2*%
%TO.N,Net-(J5-Pin_2)*%
X88000000Y-110645000D03*
%TD*%
D10*
%TO.P,J4,1,Pin_1_1*%
%TO.N,LED_Anode*%
X88000000Y-86720000D03*
D11*
%TO.P,J4,2,Pin_2_2*%
%TO.N,GND*%
X88000000Y-89260000D03*
%TO.P,J4,3,Pin_3_3*%
%TO.N,Net-(J4-Pin_3)*%
X88000000Y-91800000D03*
%TO.P,J4,4,Pin_4_4*%
%TO.N,unconnected-(J4-Pin_4-Pad4)*%
X88000000Y-94340000D03*
%TO.P,J4,5,Pin_5_5*%
X88000000Y-96880000D03*
%TO.P,J4,6,Pin_6_6*%
%TO.N,+3.3V*%
X88000000Y-99420000D03*
%TO.P,J4,7,Pin_7_7*%
%TO.N,GND*%
X88000000Y-101960000D03*
%TO.P,J4,8,Pin_8_8*%
%TO.N,Net-(J4-Pin_8)*%
X88000000Y-104500000D03*
%TD*%
D13*
%TO.P,R1,1*%
%TO.N,LED_Anode*%
X96000000Y-88000000D03*
%TO.P,R1,2*%
%TO.N,Net-(D1-A)*%
X96000000Y-86000000D03*
%TD*%
D14*
%TO.P,U2,1,PD4_1*%
%TO.N,RF_CLK*%
X100637500Y-86075000D03*
%TO.P,U2,2,PD5_2*%
%TO.N,MCU_TX*%
X100637500Y-86725000D03*
%TO.P,U2,3,PD6_3*%
%TO.N,MCU_RX*%
X100637500Y-87375000D03*
%TO.P,U2,4,PD7_4*%
%TO.N,Net-(J4-Pin_8)*%
X100637500Y-88025000D03*
%TO.P,U2,5,PA1_5*%
%TO.N,Net-(J5-Pin_1)*%
X100637500Y-88675000D03*
%TO.P,U2,6,PA2_6*%
%TO.N,Net-(J5-Pin_2)*%
X100637500Y-89325000D03*
%TO.P,U2,7,VSS_7*%
%TO.N,GND*%
X100637500Y-89975000D03*
%TO.P,U2,8,PD0_8*%
%TO.N,LED_Anode*%
X100637500Y-90625000D03*
%TO.P,U2,9,VDD_9*%
%TO.N,+3.3V*%
X100637500Y-91275000D03*
%TO.P,U2,10,PC0_10*%
%TO.N,Net-(J3-Pin_1)*%
X100637500Y-91925000D03*
%TO.P,U2,11,PC1_11*%
%TO.N,MCU_SDA*%
X106362500Y-91925000D03*
%TO.P,U2,12,PC2_12*%
%TO.N,MCU_SCL*%
X106362500Y-91275000D03*
%TO.P,U2,13,PC3_13*%
%TO.N,Net-(J3-Pin_4)*%
X106362500Y-90625000D03*
%TO.P,U2,14,PC4_14*%
%TO.N,Net-(J3-Pin_5)*%
X106362500Y-89975000D03*
%TO.P,U2,15,PC5_15*%
%TO.N,Net-(J3-Pin_6)*%
X106362500Y-89325000D03*
%TO.P,U2,16,PC6_16*%
%TO.N,Net-(J3-Pin_7)*%
X106362500Y-88675000D03*
%TO.P,U2,17,PC7_17*%
%TO.N,Net-(J3-Pin_8)*%
X106362500Y-88025000D03*
%TO.P,U2,18,PD1_18*%
%TO.N,MCU_SWIO*%
X106362500Y-87375000D03*
%TO.P,U2,19,PD2_19*%
%TO.N,Net-(J4-Pin_3)*%
X106362500Y-86725000D03*
%TO.P,U2,20,PD3_20*%
%TO.N,RF_Data*%
X106362500Y-86075000D03*
%TD*%
D15*
%TO.P,C5,1*%
%TO.N,GND*%
X111037500Y-110000000D03*
%TO.P,C5,2*%
%TO.N,Net-(AE1-A)*%
X108962500Y-110000000D03*
%TD*%
D16*
%TO.P,Y1,1,1_1*%
%TO.N,Net-(U1-XTAL)*%
X109500000Y-101000000D03*
%TO.P,Y1,2,G_2*%
%TO.N,GND*%
X111700000Y-101000000D03*
%TO.P,Y1,3,3_3*%
X111700000Y-99300000D03*
%TO.P,Y1,4,G_4*%
X109500000Y-99300000D03*
%TD*%
D17*
%TO.P,L2,1,1_1*%
%TO.N,Net-(U1-RFO)*%
X103024626Y-105986337D03*
%TO.P,L2,2,2_2*%
%TO.N,+3.3V*%
X105324626Y-105986337D03*
%TD*%
%TO.P,L1,1,1_1*%
%TO.N,Net-(C4-Pad2)*%
X104850000Y-110000000D03*
%TO.P,L1,2,2_2*%
%TO.N,Net-(AE1-A)*%
X107150000Y-110000000D03*
%TD*%
D18*
%TO.P,U1,1,XTAL_1*%
%TO.N,Net-(U1-XTAL)*%
X103950000Y-100200000D03*
%TO.P,U1,2,GND_2*%
%TO.N,GND*%
X103000000Y-100200000D03*
%TO.P,U1,3,DATA_3*%
%TO.N,RF_Data*%
X102050000Y-100200000D03*
%TO.P,U1,4,CLK_4*%
%TO.N,RF_CLK*%
X102050000Y-102800000D03*
%TO.P,U1,5,RFO_5*%
%TO.N,Net-(U1-RFO)*%
X103000000Y-102800000D03*
%TO.P,U1,6,VDD_6*%
%TO.N,+3.3V*%
X103950000Y-102800000D03*
%TD*%
D10*
%TO.P,J3,1,Pin_1_1*%
%TO.N,Net-(J3-Pin_1)*%
X116500000Y-100200000D03*
D11*
%TO.P,J3,2,Pin_2_2*%
%TO.N,MCU_SDA*%
X116500000Y-97660000D03*
%TO.P,J3,3,Pin_3_3*%
%TO.N,MCU_SCL*%
X116500000Y-95120000D03*
%TO.P,J3,4,Pin_4_4*%
%TO.N,Net-(J3-Pin_4)*%
X116500000Y-92580000D03*
%TO.P,J3,5,Pin_5_5*%
%TO.N,Net-(J3-Pin_5)*%
X116500000Y-90040000D03*
%TO.P,J3,6,Pin_6_6*%
%TO.N,Net-(J3-Pin_6)*%
X116500000Y-87500000D03*
%TO.P,J3,7,Pin_7_7*%
%TO.N,Net-(J3-Pin_7)*%
X116500000Y-84960000D03*
%TO.P,J3,8,Pin_8_8*%
%TO.N,Net-(J3-Pin_8)*%
X116500000Y-82420000D03*
%TD*%
D10*
%TO.P,J1,1,Pin_1_1*%
%TO.N,+3.3V*%
X108190000Y-104000000D03*
D11*
%TO.P,J1,2,Pin_2_2*%
%TO.N,RF_Data*%
X110730000Y-104000000D03*
%TO.P,J1,3,Pin_3_3*%
%TO.N,RF_CLK*%
X113270000Y-104000000D03*
%TO.P,J1,4,Pin_4_4*%
%TO.N,GND*%
X115810000Y-104000000D03*
%TD*%
D19*
%TO.P,D1,1,K_1*%
%TO.N,GND*%
X93975000Y-84000000D03*
%TO.P,D1,2,A_2*%
%TO.N,Net-(D1-A)*%
X96025000Y-84000000D03*
%TD*%
D20*
%TO.P,C4,1*%
%TO.N,Net-(U1-RFO)*%
X103000000Y-108000000D03*
%TO.P,C4,2*%
%TO.N,Net-(C4-Pad2)*%
X103000000Y-110075000D03*
%TD*%
D10*
%TO.P,J2,1,Pin_1_1*%
%TO.N,MCU_SWIO*%
X97000000Y-105080000D03*
D11*
%TO.P,J2,2,Pin_2_2*%
%TO.N,GND*%
X97000000Y-102540000D03*
%TO.P,J2,3,Pin_3_3*%
%TO.N,+3.3V*%
X97000000Y-100000000D03*
%TO.P,J2,4,Pin_4_4*%
%TO.N,MCU_RX*%
X97000000Y-97460000D03*
%TO.P,J2,5,Pin_5_5*%
%TO.N,MCU_TX*%
X97000000Y-94920000D03*
%TD*%
D21*
%TO.N,+3.3V*%
X112500000Y-93000000D03*
X89000000Y-71500000D03*
X102015384Y-91269001D03*
X115000000Y-71500000D03*
X109000000Y-96000000D03*
X107000000Y-106000000D03*
X104000000Y-104000000D03*
X106000000Y-97500000D03*
%TO.N,GND*%
X102500000Y-90000000D03*
X99000000Y-104000000D03*
X113000000Y-101000000D03*
X109500000Y-68500000D03*
X94500000Y-68500000D03*
X93000000Y-84000000D03*
X109000000Y-95000000D03*
X113000000Y-110000000D03*
X102000000Y-66000000D03*
X103000000Y-98500000D03*
X108000000Y-99000000D03*
%TO.N,RF_CLK*%
X114000000Y-102000000D03*
X102000000Y-86000000D03*
X101500000Y-101500000D03*
%TO.N,RF_Data*%
X107500000Y-86000000D03*
X102015384Y-98500000D03*
%TO.N,Net-(J3-Pin_1)*%
X99000000Y-92000000D03*
%TO.N,MCU_SCL*%
X104500000Y-94100000D03*
%TO.N,MCU_SDA*%
X106500000Y-94100000D03*
%TO.N,Net-(J4-Pin_3)*%
X90000000Y-91500000D03*
X105000000Y-86000000D03*
%TO.N,LED_Anode*%
X96000000Y-89000000D03*
X99599999Y-90725441D03*
%TO.N,Net-(J4-Pin_8)*%
X99000000Y-88000000D03*
%TO.N,Net-(J5-Pin_2)*%
X99000000Y-89598599D03*
X97400000Y-89500000D03*
%TO.N,Net-(J5-Pin_1)*%
X97170345Y-88600000D03*
X99033542Y-88799300D03*
%TD*%
%TO.N,GND*%
D22*
X114295000Y-67205000D02*
X110795000Y-67205000D01*
X110795000Y-67205000D02*
X109500000Y-68500000D01*
%TO.N,+3.3V*%
X116835000Y-67205000D02*
X115000000Y-69040000D01*
X115000000Y-69040000D02*
X115000000Y-71500000D01*
D23*
X108200000Y-95900000D02*
X108900000Y-95900000D01*
X106986337Y-105986337D02*
X107000000Y-106000000D01*
X102015384Y-91269001D02*
X100643499Y-91269001D01*
X108900000Y-95900000D02*
X109000000Y-96000000D01*
X105324626Y-105986337D02*
X106986337Y-105986337D01*
X103950000Y-103950000D02*
X104000000Y-104000000D01*
X100643499Y-91269001D02*
X100637500Y-91275000D01*
X103950000Y-102800000D02*
X103950000Y-103950000D01*
%TO.N,GND*%
X108200000Y-95100000D02*
X108900000Y-95100000D01*
X103000000Y-100200000D02*
X103000000Y-98500000D01*
X93975000Y-84000000D02*
X93000000Y-84000000D01*
X102500000Y-90000000D02*
X100662500Y-90000000D01*
X109500000Y-99300000D02*
X108300000Y-99300000D01*
X108300000Y-99300000D02*
X108000000Y-99000000D01*
X100662500Y-90000000D02*
X100637500Y-89975000D01*
X111700000Y-101000000D02*
X113000000Y-101000000D01*
X111037500Y-110000000D02*
X113000000Y-110000000D01*
X109500000Y-99300000D02*
X111700000Y-99300000D01*
X111700000Y-101000000D02*
X111700000Y-99300000D01*
X108900000Y-95100000D02*
X109000000Y-95000000D01*
%TO.N,Net-(C4-Pad2)*%
X104425000Y-110075000D02*
X103000000Y-110075000D01*
%TO.N,Net-(U1-RFO)*%
X103024626Y-105986337D02*
X103024626Y-107375374D01*
X103000000Y-102800000D02*
X103000000Y-105961711D01*
X103024626Y-107375374D02*
X103000000Y-107400000D01*
X103000000Y-105961711D02*
X103024626Y-105986337D01*
%TO.N,Net-(AE1-A)*%
D24*
X108000000Y-112340000D02*
X108000000Y-111588710D01*
X108000000Y-113525000D02*
X108395000Y-113525000D01*
X100985631Y-113525000D02*
X108000000Y-113525000D01*
X115014399Y-112735000D02*
X108395000Y-112735000D01*
D23*
X108000000Y-110000000D02*
X107150000Y-110000000D01*
D24*
X108000000Y-111588710D02*
X108000000Y-110000000D01*
X115014369Y-114315000D02*
X108395000Y-114315000D01*
X108395000Y-115105000D02*
X115014369Y-115105000D01*
X108000000Y-114315000D02*
X100985631Y-114315000D01*
X108395000Y-113525000D02*
X115014399Y-113525000D01*
X108395000Y-114315000D02*
X108000000Y-114315000D01*
D23*
X108962500Y-110000000D02*
X108000000Y-110000000D01*
D24*
X115409369Y-114710000D02*
G75*
G03*
X115014369Y-114315031I-394969J0D01*
G01*
X108000000Y-115500000D02*
G75*
G02*
X108395000Y-115105000I395000J0D01*
G01*
X100985631Y-114315000D02*
G75*
G02*
X100590600Y-113920000I-31J395000D01*
G01*
X115409399Y-113130000D02*
G75*
G03*
X115014399Y-112735001I-394999J0D01*
G01*
X115014399Y-113525000D02*
G75*
G03*
X115409400Y-113130000I1J395000D01*
G01*
X108395000Y-112735000D02*
G75*
G02*
X108000000Y-112340000I0J395000D01*
G01*
X115014369Y-115105000D02*
G75*
G03*
X115409400Y-114710000I31J395000D01*
G01*
X100590631Y-113920000D02*
G75*
G02*
X100985631Y-113525031I394969J0D01*
G01*
%TO.N,Net-(D1-A)*%
D23*
X96000000Y-84025000D02*
X96025000Y-84000000D01*
X96000000Y-86000000D02*
X96000000Y-84025000D01*
%TO.N,RF_CLK*%
X102050000Y-102800000D02*
X102050000Y-102050000D01*
X100712500Y-86000000D02*
X100637500Y-86075000D01*
X102000000Y-86000000D02*
X100712500Y-86000000D01*
X102050000Y-102050000D02*
X101500000Y-101500000D01*
X113270000Y-104000000D02*
X113270000Y-102730000D01*
X113270000Y-102730000D02*
X114000000Y-102000000D01*
%TO.N,RF_Data*%
X102050000Y-98534616D02*
X102015384Y-98500000D01*
X106437500Y-86000000D02*
X106362500Y-86075000D01*
X107500000Y-86000000D02*
X106437500Y-86000000D01*
X102050000Y-100200000D02*
X102050000Y-98534616D01*
X102900000Y-101400000D02*
X102050000Y-100550000D01*
X108130000Y-101400000D02*
X102900000Y-101400000D01*
X102050000Y-100550000D02*
X102050000Y-100200000D01*
X110730000Y-104000000D02*
X108130000Y-101400000D01*
%TO.N,MCU_RX*%
X98000000Y-95546346D02*
X98000000Y-96460000D01*
X98690686Y-87375000D02*
X98400000Y-87665686D01*
X98150000Y-95396346D02*
X98000000Y-95546346D01*
X98400000Y-87665686D02*
X98400000Y-94085686D01*
X98150000Y-94443654D02*
X98150000Y-95396346D01*
X100637500Y-87375000D02*
X98690686Y-87375000D01*
X98000000Y-96460000D02*
X97000000Y-97460000D01*
X98096016Y-94389670D02*
X98150000Y-94443654D01*
X98400000Y-94085686D02*
X98096016Y-94389670D01*
%TO.N,MCU_SWIO*%
X104500000Y-92500000D02*
X104500000Y-88000000D01*
X97000000Y-105080000D02*
X100500000Y-101580000D01*
X105125000Y-87375000D02*
X106362500Y-87375000D01*
X104500000Y-88000000D02*
X105125000Y-87375000D01*
X100500000Y-96500000D02*
X104500000Y-92500000D01*
X100500000Y-101580000D02*
X100500000Y-96500000D01*
%TO.N,MCU_TX*%
X100637500Y-86725000D02*
X98775000Y-86725000D01*
X98775000Y-86725000D02*
X98000000Y-87500000D01*
X98000000Y-93920000D02*
X97000000Y-94920000D01*
X98000000Y-87500000D02*
X98000000Y-93920000D01*
%TO.N,Net-(J3-Pin_1)*%
X99075000Y-91925000D02*
X99000000Y-92000000D01*
X100637500Y-91925000D02*
X99075000Y-91925000D01*
%TO.N,MCU_SCL*%
X112655000Y-91275000D02*
X106362500Y-91275000D01*
X105706544Y-91275000D02*
X105325000Y-91656544D01*
X106362500Y-91275000D02*
X105706544Y-91275000D01*
X116500000Y-95120000D02*
X112655000Y-91275000D01*
X105325000Y-91656544D02*
X105325000Y-94525000D01*
X104900000Y-94100000D02*
X105325000Y-94525000D01*
X104500000Y-94100000D02*
X104900000Y-94100000D01*
X106700000Y-95900000D02*
X106800000Y-95900000D01*
X105325000Y-94525000D02*
X106700000Y-95900000D01*
%TO.N,Net-(J3-Pin_5)*%
X107475000Y-89975000D02*
X107540000Y-90040000D01*
X107540000Y-90040000D02*
X116500000Y-90040000D01*
X106362500Y-89975000D02*
X107475000Y-89975000D01*
%TO.N,Net-(J3-Pin_6)*%
X106362500Y-89325000D02*
X114675000Y-89325000D01*
X114675000Y-89325000D02*
X116500000Y-87500000D01*
%TO.N,Net-(J3-Pin_8)*%
X110895000Y-88025000D02*
X116500000Y-82420000D01*
X106362500Y-88025000D02*
X110895000Y-88025000D01*
%TO.N,Net-(J3-Pin_4)*%
X106362500Y-90625000D02*
X114545000Y-90625000D01*
X114545000Y-90625000D02*
X116500000Y-92580000D01*
%TO.N,Net-(J3-Pin_7)*%
X112785000Y-88675000D02*
X116500000Y-84960000D01*
X106362500Y-88675000D02*
X112785000Y-88675000D01*
%TO.N,MCU_SDA*%
X105725000Y-94066422D02*
X106758578Y-95100000D01*
X106500000Y-94100000D02*
X106500000Y-94841422D01*
X115350000Y-96510000D02*
X116500000Y-97660000D01*
X106758578Y-95100000D02*
X106800000Y-95100000D01*
X105725000Y-92562500D02*
X105725000Y-94066422D01*
X106500000Y-94841422D02*
X106758578Y-95100000D01*
X106362500Y-91925000D02*
X105725000Y-92562500D01*
X112425000Y-91925000D02*
X115350000Y-94850000D01*
X115350000Y-94850000D02*
X115350000Y-96510000D01*
X112425000Y-91925000D02*
X106362500Y-91925000D01*
%TO.N,Net-(J4-Pin_3)*%
X105000000Y-86018456D02*
X105706544Y-86725000D01*
X88000000Y-91800000D02*
X89700000Y-91800000D01*
X89700000Y-91800000D02*
X90000000Y-91500000D01*
X105706544Y-86725000D02*
X106362500Y-86725000D01*
X105000000Y-86000000D02*
X105000000Y-86018456D01*
%TO.N,LED_Anode*%
X100637500Y-90625000D02*
X99700440Y-90625000D01*
X89280000Y-88000000D02*
X88000000Y-86720000D01*
X96000000Y-88000000D02*
X89280000Y-88000000D01*
X96000000Y-89000000D02*
X96000000Y-88000000D01*
X99700440Y-90625000D02*
X99599999Y-90725441D01*
%TO.N,Net-(J4-Pin_8)*%
X100612500Y-88000000D02*
X100637500Y-88025000D01*
X99000000Y-88000000D02*
X100612500Y-88000000D01*
%TO.N,Net-(J5-Pin_2)*%
X97400000Y-89500000D02*
X91400000Y-95500000D01*
X99199299Y-89399300D02*
X99000000Y-89598599D01*
X100637500Y-89325000D02*
X100563200Y-89399300D01*
X91400000Y-107245000D02*
X88000000Y-110645000D01*
X100563200Y-89399300D02*
X99199299Y-89399300D01*
X91400000Y-95500000D02*
X91400000Y-107245000D01*
%TO.N,Net-(J5-Pin_1)*%
X91000000Y-105105000D02*
X88000000Y-108105000D01*
X97170345Y-88600000D02*
X97170345Y-88779655D01*
X99157842Y-88675000D02*
X99033542Y-88799300D01*
X97170345Y-88779655D02*
X91000000Y-94950000D01*
X91000000Y-94950000D02*
X91000000Y-105105000D01*
X100637500Y-88675000D02*
X99157842Y-88675000D01*
%TO.N,Net-(U1-XTAL)*%
X104750000Y-101000000D02*
X103950000Y-100200000D01*
X109500000Y-101000000D02*
X104750000Y-101000000D01*
%TO.N,unconnected-(J4-Pin_4-Pad4)*%
X88000000Y-94340000D02*
X88000000Y-96880000D01*
%TD*%
M02*
