%TF.GenerationSoftware,KiCad,Pcbnew,10.0.4*%
%TF.CreationDate,2026-07-13T13:41:16+02:00*%
%TF.ProjectId,Tempmeasurementthingiemajig,54656d70-6d65-4617-9375-72656d656e74,rev?*%
%TF.SameCoordinates,Original*%
%TF.FileFunction,Soldermask,Bot*%
%TF.FilePolarity,Negative*%
%FSLAX46Y46*%
G04 Gerber Fmt 4.6, Leading zero omitted, Abs format (unit mm)*
G04 Created by KiCad (PCBNEW 10.0.4) date 2026-07-13 13:41:16*
%MOMM*%
%LPD*%
G01*
G04 APERTURE LIST*
G04 Aperture macros list*
%AMRoundRect*
0 Rectangle with rounded corners*
0 $1 Rounding radius*
0 $2 $3 $4 $5 $6 $7 $8 $9 X,Y pos of 4 corners*
0 Add a 4 corners polygon primitive as box body*
4,1,4,$2,$3,$4,$5,$6,$7,$8,$9,$2,$3,0*
0 Add four circle primitives for the rounded corners*
1,1,$1+$1,$2,$3*
1,1,$1+$1,$4,$5*
1,1,$1+$1,$6,$7*
1,1,$1+$1,$8,$9*
0 Add four rect primitives between the rounded corners*
20,1,$1+$1,$2,$3,$4,$5,0*
20,1,$1+$1,$4,$5,$6,$7,0*
20,1,$1+$1,$6,$7,$8,$9,0*
20,1,$1+$1,$8,$9,$2,$3,0*%
G04 Aperture macros list end*
%ADD10R,1.700000X1.700000*%
%ADD11C,1.700000*%
%ADD12RoundRect,0.250000X-0.350000X-0.450000X0.350000X-0.450000X0.350000X0.450000X-0.350000X0.450000X0*%
%ADD13RoundRect,0.250000X-0.337500X-0.475000X0.337500X-0.475000X0.337500X0.475000X-0.337500X0.475000X0*%
%ADD14RoundRect,0.250000X0.337500X0.475000X-0.337500X0.475000X-0.337500X-0.475000X0.337500X-0.475000X0*%
%ADD15RoundRect,0.250000X-0.475000X0.337500X-0.475000X-0.337500X0.475000X-0.337500X0.475000X0.337500X0*%
%ADD16RoundRect,0.250000X-0.450000X0.350000X-0.450000X-0.350000X0.450000X-0.350000X0.450000X0.350000X0*%
%ADD17R,5.100000X5.100000*%
%ADD18C,17.800000*%
G04 APERTURE END LIST*
D10*
%TO.C,J6*%
X114295000Y-67205000D03*
D11*
X116835000Y-67205000D03*
%TD*%
D10*
%TO.C,J5*%
X88000000Y-108105000D03*
D11*
X88000000Y-110645000D03*
%TD*%
D10*
%TO.C,J4*%
X88000000Y-86720000D03*
D11*
X88000000Y-89260000D03*
X88000000Y-91800000D03*
X88000000Y-94340000D03*
X88000000Y-96880000D03*
X88000000Y-99420000D03*
X88000000Y-101960000D03*
X88000000Y-104500000D03*
%TD*%
D10*
%TO.C,J3*%
X116500000Y-100200000D03*
D11*
X116500000Y-97660000D03*
X116500000Y-95120000D03*
X116500000Y-92580000D03*
X116500000Y-90040000D03*
X116500000Y-87500000D03*
X116500000Y-84960000D03*
X116500000Y-82420000D03*
%TD*%
D10*
%TO.C,J1*%
X108190000Y-104000000D03*
D11*
X110730000Y-104000000D03*
X113270000Y-104000000D03*
X115810000Y-104000000D03*
%TD*%
D10*
%TO.C,J2*%
X97000000Y-105080000D03*
D11*
X97000000Y-102540000D03*
X97000000Y-100000000D03*
X97000000Y-97460000D03*
X97000000Y-94920000D03*
%TD*%
D12*
%TO.C,R3*%
X109000000Y-93000000D03*
X111000000Y-93000000D03*
%TD*%
D13*
%TO.C,C3*%
X100462500Y-104000000D03*
X102537500Y-104000000D03*
%TD*%
D14*
%TO.C,C1*%
X89537500Y-68500000D03*
X87462500Y-68500000D03*
%TD*%
D15*
%TO.C,C2*%
X104000000Y-89462500D03*
X104000000Y-91537500D03*
%TD*%
D16*
%TO.C,R2*%
X104500000Y-95500000D03*
X104500000Y-97500000D03*
%TD*%
D17*
%TO.C,BT1*%
X114800000Y-76000000D03*
X89200000Y-76000000D03*
D18*
X102000000Y-76000000D03*
%TD*%
M02*
