%TF.GenerationSoftware,KiCad,Pcbnew,10.0.4*%
%TF.CreationDate,2026-07-13T13:41:14+02:00*%
%TF.ProjectId,Tempmeasurementthingiemajig,54656d70-6d65-4617-9375-72656d656e74,rev?*%
%TF.SameCoordinates,Original*%
%TF.FileFunction,Copper,L3,Inr*%
%TF.FilePolarity,Positive*%
%FSLAX46Y46*%
G04 Gerber Fmt 4.6, Leading zero omitted, Abs format (unit mm)*
G04 Created by KiCad (PCBNEW 10.0.4) date 2026-07-13 13:41:14*
%MOMM*%
%LPD*%
G01*
G04 APERTURE LIST*
%TA.AperFunction,ComponentPad*%
%ADD10R,1.700000X1.700000*%
%TD*%
%TA.AperFunction,ComponentPad*%
%ADD11C,1.700000*%
%TD*%
%TA.AperFunction,ViaPad*%
%ADD12C,0.600000*%
%TD*%
G04 APERTURE END LIST*
D10*
%TO.N,GND*%
%TO.C,J6*%
X114295000Y-67205000D03*
D11*
%TO.N,+3.3V*%
X116835000Y-67205000D03*
%TD*%
D10*
%TO.N,Net-(J5-Pin_1)*%
%TO.C,J5*%
X88000000Y-108105000D03*
D11*
%TO.N,Net-(J5-Pin_2)*%
X88000000Y-110645000D03*
%TD*%
D10*
%TO.N,LED_Anode*%
%TO.C,J4*%
X88000000Y-86720000D03*
D11*
%TO.N,GND*%
X88000000Y-89260000D03*
%TO.N,Net-(J4-Pin_3)*%
X88000000Y-91800000D03*
%TO.N,unconnected-(J4-Pin_4-Pad4)*%
X88000000Y-94340000D03*
X88000000Y-96880000D03*
%TO.N,+3.3V*%
X88000000Y-99420000D03*
%TO.N,GND*%
X88000000Y-101960000D03*
%TO.N,Net-(J4-Pin_8)*%
X88000000Y-104500000D03*
%TD*%
D10*
%TO.N,Net-(J3-Pin_1)*%
%TO.C,J3*%
X116500000Y-100200000D03*
D11*
%TO.N,MCU_SDA*%
X116500000Y-97660000D03*
%TO.N,MCU_SCL*%
X116500000Y-95120000D03*
%TO.N,Net-(J3-Pin_4)*%
X116500000Y-92580000D03*
%TO.N,Net-(J3-Pin_5)*%
X116500000Y-90040000D03*
%TO.N,Net-(J3-Pin_6)*%
X116500000Y-87500000D03*
%TO.N,Net-(J3-Pin_7)*%
X116500000Y-84960000D03*
%TO.N,Net-(J3-Pin_8)*%
X116500000Y-82420000D03*
%TD*%
D10*
%TO.N,+3.3V*%
%TO.C,J1*%
X108190000Y-104000000D03*
D11*
%TO.N,RF_Data*%
X110730000Y-104000000D03*
%TO.N,RF_CLK*%
X113270000Y-104000000D03*
%TO.N,GND*%
X115810000Y-104000000D03*
%TD*%
D10*
%TO.N,MCU_SWIO*%
%TO.C,J2*%
X97000000Y-105080000D03*
D11*
%TO.N,GND*%
X97000000Y-102540000D03*
%TO.N,+3.3V*%
X97000000Y-100000000D03*
%TO.N,MCU_RX*%
X97000000Y-97460000D03*
%TO.N,MCU_TX*%
X97000000Y-94920000D03*
%TD*%
D12*
%TO.N,+3.3V*%
X112500000Y-93000000D03*
X89000000Y-71500000D03*
X102015384Y-91269001D03*
X115000000Y-71500000D03*
X109000000Y-96000000D03*
X107000000Y-106000000D03*
X104000000Y-104000000D03*
X106000000Y-97500000D03*
%TO.N,GND*%
X102500000Y-90000000D03*
X99000000Y-104000000D03*
X113000000Y-101000000D03*
X109500000Y-68500000D03*
X94500000Y-68500000D03*
X93000000Y-84000000D03*
X109000000Y-95000000D03*
X113000000Y-110000000D03*
X102000000Y-66000000D03*
X103000000Y-98500000D03*
X108000000Y-99000000D03*
%TO.N,RF_CLK*%
X114000000Y-102000000D03*
X102000000Y-86000000D03*
X101500000Y-101500000D03*
%TO.N,RF_Data*%
X107500000Y-86000000D03*
X102015384Y-98500000D03*
%TO.N,Net-(J3-Pin_1)*%
X99000000Y-92000000D03*
%TO.N,MCU_SCL*%
X104500000Y-94100000D03*
%TO.N,MCU_SDA*%
X106500000Y-94100000D03*
%TO.N,Net-(J4-Pin_3)*%
X90000000Y-91500000D03*
X105000000Y-86000000D03*
%TO.N,LED_Anode*%
X96000000Y-89000000D03*
X99599999Y-90725441D03*
%TO.N,Net-(J4-Pin_8)*%
X99000000Y-88000000D03*
%TO.N,Net-(J5-Pin_2)*%
X99000000Y-89598599D03*
X97400000Y-89500000D03*
%TO.N,Net-(J5-Pin_1)*%
X97170345Y-88600000D03*
X99033542Y-88799300D03*
%TD*%
%TA.AperFunction,Conductor*%
%TO.N,+3.3V*%
G36*
X101221905Y-65520185D02*
G01*
X101267660Y-65572989D01*
X101277604Y-65642147D01*
X101269427Y-65671953D01*
X101230263Y-65766502D01*
X101230261Y-65766510D01*
X101199500Y-65921153D01*
X101199500Y-66078846D01*
X101230261Y-66233489D01*
X101230264Y-66233501D01*
X101290602Y-66379172D01*
X101290609Y-66379185D01*
X101378210Y-66510288D01*
X101378213Y-66510292D01*
X101489707Y-66621786D01*
X101489711Y-66621789D01*
X101620814Y-66709390D01*
X101620827Y-66709397D01*
X101766498Y-66769735D01*
X101766503Y-66769737D01*
X101921153Y-66800499D01*
X101921156Y-66800500D01*
X101921158Y-66800500D01*
X102078844Y-66800500D01*
X102078845Y-66800499D01*
X102233497Y-66769737D01*
X102379179Y-66709394D01*
X102510289Y-66621789D01*
X102621789Y-66510289D01*
X102709394Y-66379179D01*
X102739235Y-66307135D01*
X112944500Y-66307135D01*
X112944500Y-68102870D01*
X112944501Y-68102876D01*
X112950908Y-68162483D01*
X113001202Y-68297328D01*
X113001206Y-68297335D01*
X113087452Y-68412544D01*
X113087455Y-68412547D01*
X113202664Y-68498793D01*
X113202671Y-68498797D01*
X113337517Y-68549091D01*
X113337516Y-68549091D01*
X113344444Y-68549835D01*
X113397127Y-68555500D01*
X115192872Y-68555499D01*
X115252483Y-68549091D01*
X115387331Y-68498796D01*
X115502546Y-68412546D01*
X115588796Y-68297331D01*
X115639091Y-68162483D01*
X115645500Y-68102873D01*
X115645499Y-68078979D01*
X115648330Y-68065963D01*
X115658940Y-68046525D01*
X115665179Y-68025275D01*
X115681803Y-68004643D01*
X115681808Y-68004636D01*
X115681811Y-68004634D01*
X115681818Y-68004626D01*
X116352037Y-67334408D01*
X116369075Y-67397993D01*
X116434901Y-67512007D01*
X116527993Y-67605099D01*
X116642007Y-67670925D01*
X116705590Y-67687962D01*
X116073282Y-68320269D01*
X116073282Y-68320270D01*
X116127449Y-68359624D01*
X116316782Y-68456095D01*
X116518870Y-68521757D01*
X116728754Y-68555000D01*
X116941246Y-68555000D01*
X117151127Y-68521757D01*
X117151130Y-68521757D01*
X117353217Y-68456095D01*
X117542554Y-68359622D01*
X117596716Y-68320270D01*
X117596717Y-68320270D01*
X116964408Y-67687962D01*
X117027993Y-67670925D01*
X117142007Y-67605099D01*
X117235099Y-67512007D01*
X117300925Y-67397993D01*
X117317962Y-67334408D01*
X117950270Y-67966717D01*
X117950270Y-67966716D01*
X117989622Y-67912554D01*
X118086095Y-67723217D01*
X118151757Y-67521130D01*
X118151757Y-67521127D01*
X118185000Y-67311246D01*
X118185000Y-67098753D01*
X118151757Y-66888872D01*
X118151757Y-66888869D01*
X118086095Y-66686782D01*
X117989624Y-66497449D01*
X117950270Y-66443282D01*
X117950269Y-66443282D01*
X117317962Y-67075590D01*
X117300925Y-67012007D01*
X117235099Y-66897993D01*
X117142007Y-66804901D01*
X117027993Y-66739075D01*
X116964409Y-66722037D01*
X117596716Y-66089728D01*
X117542550Y-66050375D01*
X117353217Y-65953904D01*
X117151129Y-65888242D01*
X116941246Y-65855000D01*
X116728754Y-65855000D01*
X116518872Y-65888242D01*
X116518869Y-65888242D01*
X116316782Y-65953904D01*
X116127439Y-66050380D01*
X116073282Y-66089727D01*
X116073282Y-66089728D01*
X116705591Y-66722037D01*
X116642007Y-66739075D01*
X116527993Y-66804901D01*
X116434901Y-66897993D01*
X116369075Y-67012007D01*
X116352037Y-67075591D01*
X115681818Y-66405372D01*
X115648333Y-66344049D01*
X115648330Y-66344036D01*
X115645499Y-66331015D01*
X115645499Y-66307128D01*
X115639091Y-66247517D01*
X115610926Y-66172002D01*
X115588798Y-66112673D01*
X115588793Y-66112664D01*
X115502547Y-65997455D01*
X115502544Y-65997452D01*
X115387335Y-65911206D01*
X115387328Y-65911202D01*
X115252482Y-65860908D01*
X115252483Y-65860908D01*
X115192883Y-65854501D01*
X115192881Y-65854500D01*
X115192873Y-65854500D01*
X115192864Y-65854500D01*
X113397129Y-65854500D01*
X113397123Y-65854501D01*
X113337516Y-65860908D01*
X113202671Y-65911202D01*
X113202664Y-65911206D01*
X113087455Y-65997452D01*
X113087452Y-65997455D01*
X113001206Y-66112664D01*
X113001202Y-66112671D01*
X112950908Y-66247517D01*
X112944501Y-66307116D01*
X112944500Y-66307135D01*
X102739235Y-66307135D01*
X102769737Y-66233497D01*
X102800500Y-66078842D01*
X102800500Y-65921158D01*
X102800500Y-65921155D01*
X102800499Y-65921153D01*
X102798520Y-65911202D01*
X102769737Y-65766503D01*
X102730572Y-65671951D01*
X102723104Y-65602483D01*
X102754379Y-65540004D01*
X102814468Y-65504352D01*
X102845134Y-65500500D01*
X118375500Y-65500500D01*
X118442539Y-65520185D01*
X118488294Y-65572989D01*
X118499500Y-65624500D01*
X118499500Y-110876000D01*
X118479815Y-110943039D01*
X118427011Y-110988794D01*
X118375500Y-111000000D01*
X113300983Y-111000000D01*
X113233944Y-110980315D01*
X113188189Y-110927511D01*
X113178245Y-110858353D01*
X113207270Y-110794797D01*
X113253531Y-110761439D01*
X113379172Y-110709397D01*
X113379172Y-110709396D01*
X113379179Y-110709394D01*
X113510289Y-110621789D01*
X113621789Y-110510289D01*
X113709394Y-110379179D01*
X113769737Y-110233497D01*
X113800500Y-110078842D01*
X113800500Y-109921158D01*
X113800500Y-109921155D01*
X113800499Y-109921153D01*
X113769738Y-109766510D01*
X113769737Y-109766503D01*
X113769735Y-109766498D01*
X113709397Y-109620827D01*
X113709390Y-109620814D01*
X113621789Y-109489711D01*
X113621786Y-109489707D01*
X113510292Y-109378213D01*
X113510288Y-109378210D01*
X113379185Y-109290609D01*
X113379172Y-109290602D01*
X113233501Y-109230264D01*
X113233489Y-109230261D01*
X113078845Y-109199500D01*
X113078842Y-109199500D01*
X112921158Y-109199500D01*
X112921155Y-109199500D01*
X112766510Y-109230261D01*
X112766498Y-109230264D01*
X112620827Y-109290602D01*
X112620814Y-109290609D01*
X112489711Y-109378210D01*
X112489707Y-109378213D01*
X112378213Y-109489707D01*
X112378210Y-109489711D01*
X112290609Y-109620814D01*
X112290602Y-109620827D01*
X112230264Y-109766498D01*
X112230261Y-109766510D01*
X112199500Y-109921153D01*
X112199500Y-110078846D01*
X112230261Y-110233489D01*
X112230264Y-110233501D01*
X112290602Y-110379172D01*
X112290609Y-110379185D01*
X112378210Y-110510288D01*
X112378213Y-110510292D01*
X112489707Y-110621786D01*
X112489711Y-110621789D01*
X112620814Y-110709390D01*
X112620827Y-110709397D01*
X112746469Y-110761439D01*
X112800873Y-110805280D01*
X112822938Y-110871574D01*
X112805659Y-110939273D01*
X112754522Y-110986884D01*
X112699017Y-111000000D01*
X99000000Y-111000000D01*
X99000000Y-115875500D01*
X98980315Y-115942539D01*
X98927511Y-115988294D01*
X98876000Y-115999500D01*
X86124500Y-115999500D01*
X86057461Y-115979815D01*
X86011706Y-115927011D01*
X86000500Y-115875500D01*
X86000500Y-107207135D01*
X86649500Y-107207135D01*
X86649500Y-109002870D01*
X86649501Y-109002876D01*
X86655908Y-109062483D01*
X86706202Y-109197328D01*
X86706206Y-109197335D01*
X86792452Y-109312544D01*
X86792455Y-109312547D01*
X86907664Y-109398793D01*
X86907671Y-109398797D01*
X87039082Y-109447810D01*
X87095016Y-109489681D01*
X87119433Y-109555145D01*
X87104582Y-109623418D01*
X87083431Y-109651673D01*
X86969889Y-109765215D01*
X86844951Y-109937179D01*
X86748444Y-110126585D01*
X86682753Y-110328760D01*
X86649500Y-110538713D01*
X86649500Y-110751286D01*
X86679870Y-110943039D01*
X86682754Y-110961243D01*
X86691085Y-110986884D01*
X86748444Y-111163414D01*
X86844951Y-111352820D01*
X86969890Y-111524786D01*
X87120213Y-111675109D01*
X87292179Y-111800048D01*
X87292181Y-111800049D01*
X87292184Y-111800051D01*
X87481588Y-111896557D01*
X87683757Y-111962246D01*
X87893713Y-111995500D01*
X87893714Y-111995500D01*
X88106286Y-111995500D01*
X88106287Y-111995500D01*
X88316243Y-111962246D01*
X88518412Y-111896557D01*
X88707816Y-111800051D01*
X88729789Y-111784086D01*
X88879786Y-111675109D01*
X88879788Y-111675106D01*
X88879792Y-111675104D01*
X89030104Y-111524792D01*
X89030106Y-111524788D01*
X89030109Y-111524786D01*
X89155048Y-111352820D01*
X89155047Y-111352820D01*
X89155051Y-111352816D01*
X89251557Y-111163412D01*
X89317246Y-110961243D01*
X89350500Y-110751287D01*
X89350500Y-110538713D01*
X89317246Y-110328757D01*
X89251557Y-110126588D01*
X89155051Y-109937184D01*
X89155049Y-109937181D01*
X89155048Y-109937179D01*
X89030109Y-109765213D01*
X88916569Y-109651673D01*
X88883084Y-109590350D01*
X88888068Y-109520658D01*
X88929940Y-109464725D01*
X88960915Y-109447810D01*
X89092331Y-109398796D01*
X89207546Y-109312546D01*
X89293796Y-109197331D01*
X89344091Y-109062483D01*
X89350500Y-109002873D01*
X89350499Y-107207128D01*
X89344091Y-107147517D01*
X89293796Y-107012669D01*
X89293795Y-107012668D01*
X89293793Y-107012664D01*
X89207547Y-106897455D01*
X89207544Y-106897452D01*
X89092335Y-106811206D01*
X89092328Y-106811202D01*
X88957482Y-106760908D01*
X88957483Y-106760908D01*
X88897883Y-106754501D01*
X88897881Y-106754500D01*
X88897873Y-106754500D01*
X88897864Y-106754500D01*
X87102129Y-106754500D01*
X87102123Y-106754501D01*
X87042516Y-106760908D01*
X86907671Y-106811202D01*
X86907664Y-106811206D01*
X86792455Y-106897452D01*
X86792452Y-106897455D01*
X86706206Y-107012664D01*
X86706202Y-107012671D01*
X86655908Y-107147517D01*
X86649501Y-107207116D01*
X86649501Y-107207123D01*
X86649500Y-107207135D01*
X86000500Y-107207135D01*
X86000500Y-85822135D01*
X86649500Y-85822135D01*
X86649500Y-87617870D01*
X86649501Y-87617876D01*
X86655908Y-87677483D01*
X86706202Y-87812328D01*
X86706206Y-87812335D01*
X86792452Y-87927544D01*
X86792455Y-87927547D01*
X86907664Y-88013793D01*
X86907671Y-88013797D01*
X87039082Y-88062810D01*
X87095016Y-88104681D01*
X87119433Y-88170145D01*
X87104582Y-88238418D01*
X87083431Y-88266673D01*
X86969889Y-88380215D01*
X86844951Y-88552179D01*
X86748444Y-88741585D01*
X86682753Y-88943760D01*
X86661358Y-89078842D01*
X86649500Y-89153713D01*
X86649500Y-89366287D01*
X86651389Y-89378211D01*
X86673806Y-89519752D01*
X86682754Y-89576243D01*
X86745624Y-89769737D01*
X86748444Y-89778414D01*
X86844951Y-89967820D01*
X86969890Y-90139786D01*
X87120213Y-90290109D01*
X87292182Y-90415050D01*
X87300946Y-90419516D01*
X87351742Y-90467491D01*
X87368536Y-90535312D01*
X87345998Y-90601447D01*
X87300946Y-90640484D01*
X87292182Y-90644949D01*
X87120213Y-90769890D01*
X86969890Y-90920213D01*
X86844951Y-91092179D01*
X86748444Y-91281585D01*
X86748443Y-91281587D01*
X86748443Y-91281588D01*
X86727115Y-91347230D01*
X86682753Y-91483760D01*
X86649500Y-91693713D01*
X86649500Y-91906286D01*
X86676830Y-92078844D01*
X86682754Y-92116243D01*
X86732627Y-92269737D01*
X86748444Y-92318414D01*
X86844951Y-92507820D01*
X86969890Y-92679786D01*
X87120213Y-92830109D01*
X87292182Y-92955050D01*
X87300946Y-92959516D01*
X87351742Y-93007491D01*
X87368536Y-93075312D01*
X87345998Y-93141447D01*
X87300946Y-93180484D01*
X87292182Y-93184949D01*
X87120213Y-93309890D01*
X86969890Y-93460213D01*
X86844951Y-93632179D01*
X86748444Y-93821585D01*
X86682753Y-94023760D01*
X86649500Y-94233713D01*
X86649500Y-94446286D01*
X86682753Y-94656239D01*
X86682753Y-94656241D01*
X86682754Y-94656243D01*
X86733919Y-94813713D01*
X86748444Y-94858414D01*
X86844951Y-95047820D01*
X86969890Y-95219786D01*
X87120213Y-95370109D01*
X87292182Y-95495050D01*
X87300946Y-95499516D01*
X87351742Y-95547491D01*
X87368536Y-95615312D01*
X87345998Y-95681447D01*
X87300946Y-95720484D01*
X87292182Y-95724949D01*
X87120213Y-95849890D01*
X86969890Y-96000213D01*
X86844951Y-96172179D01*
X86748444Y-96361585D01*
X86682753Y-96563760D01*
X86652911Y-96752179D01*
X86649500Y-96773713D01*
X86649500Y-96986287D01*
X86682754Y-97196243D01*
X86733919Y-97353713D01*
X86748444Y-97398414D01*
X86844951Y-97587820D01*
X86969890Y-97759786D01*
X87120213Y-97910109D01*
X87292179Y-98035048D01*
X87292181Y-98035049D01*
X87292184Y-98035051D01*
X87301493Y-98039794D01*
X87352290Y-98087766D01*
X87369087Y-98155587D01*
X87346552Y-98221722D01*
X87301505Y-98260760D01*
X87292446Y-98265376D01*
X87292440Y-98265380D01*
X87238282Y-98304727D01*
X87238282Y-98304728D01*
X87870591Y-98937037D01*
X87807007Y-98954075D01*
X87692993Y-99019901D01*
X87599901Y-99112993D01*
X87534075Y-99227007D01*
X87517037Y-99290591D01*
X86884728Y-98658282D01*
X86884727Y-98658282D01*
X86845380Y-98712439D01*
X86748904Y-98901782D01*
X86683242Y-99103869D01*
X86683242Y-99103872D01*
X86650000Y-99313753D01*
X86650000Y-99526246D01*
X86683242Y-99736127D01*
X86683242Y-99736130D01*
X86748904Y-99938217D01*
X86845375Y-100127550D01*
X86884728Y-100181716D01*
X87517037Y-99549408D01*
X87534075Y-99612993D01*
X87599901Y-99727007D01*
X87692993Y-99820099D01*
X87807007Y-99885925D01*
X87870590Y-99902962D01*
X87238282Y-100535269D01*
X87238282Y-100535270D01*
X87292452Y-100574626D01*
X87292451Y-100574626D01*
X87301495Y-100579234D01*
X87352292Y-100627208D01*
X87369087Y-100695029D01*
X87346550Y-100761164D01*
X87301499Y-100800202D01*
X87292182Y-100804949D01*
X87120213Y-100929890D01*
X86969890Y-101080213D01*
X86844951Y-101252179D01*
X86748444Y-101441585D01*
X86682753Y-101643760D01*
X86649500Y-101853713D01*
X86649500Y-102066286D01*
X86682753Y-102276239D01*
X86682753Y-102276241D01*
X86682754Y-102276243D01*
X86733919Y-102433713D01*
X86748444Y-102478414D01*
X86844951Y-102667820D01*
X86969890Y-102839786D01*
X87120213Y-102990109D01*
X87292182Y-103115050D01*
X87300946Y-103119516D01*
X87351742Y-103167491D01*
X87368536Y-103235312D01*
X87345998Y-103301447D01*
X87300946Y-103340484D01*
X87292182Y-103344949D01*
X87120213Y-103469890D01*
X86969890Y-103620213D01*
X86844951Y-103792179D01*
X86748444Y-103981585D01*
X86682753Y-104183760D01*
X86649500Y-104393713D01*
X86649500Y-104606286D01*
X86680260Y-104800500D01*
X86682754Y-104816243D01*
X86711461Y-104904595D01*
X86748444Y-105018414D01*
X86844951Y-105207820D01*
X86969890Y-105379786D01*
X87120213Y-105530109D01*
X87292179Y-105655048D01*
X87292181Y-105655049D01*
X87292184Y-105655051D01*
X87481588Y-105751557D01*
X87683757Y-105817246D01*
X87893713Y-105850500D01*
X87893714Y-105850500D01*
X88106286Y-105850500D01*
X88106287Y-105850500D01*
X88316243Y-105817246D01*
X88518412Y-105751557D01*
X88707816Y-105655051D01*
X88729789Y-105639086D01*
X88879786Y-105530109D01*
X88879788Y-105530106D01*
X88879792Y-105530104D01*
X89030104Y-105379792D01*
X89030106Y-105379788D01*
X89030109Y-105379786D01*
X89155048Y-105207820D01*
X89155047Y-105207820D01*
X89155051Y-105207816D01*
X89251557Y-105018412D01*
X89317246Y-104816243D01*
X89350500Y-104606287D01*
X89350500Y-104393713D01*
X89317246Y-104183757D01*
X89251557Y-103981588D01*
X89155051Y-103792184D01*
X89155049Y-103792181D01*
X89155048Y-103792179D01*
X89030109Y-103620213D01*
X88879786Y-103469890D01*
X88707820Y-103344951D01*
X88707115Y-103344591D01*
X88699054Y-103340485D01*
X88648259Y-103292512D01*
X88631463Y-103224692D01*
X88653999Y-103158556D01*
X88699054Y-103119515D01*
X88707816Y-103115051D01*
X88729789Y-103099086D01*
X88879786Y-102990109D01*
X88879788Y-102990106D01*
X88879792Y-102990104D01*
X89030104Y-102839792D01*
X89030106Y-102839788D01*
X89030109Y-102839786D01*
X89155048Y-102667820D01*
X89155047Y-102667820D01*
X89155051Y-102667816D01*
X89251557Y-102478412D01*
X89317246Y-102276243D01*
X89350500Y-102066287D01*
X89350500Y-101853713D01*
X89317246Y-101643757D01*
X89251557Y-101441588D01*
X89155051Y-101252184D01*
X89155049Y-101252181D01*
X89155048Y-101252179D01*
X89030109Y-101080213D01*
X88879786Y-100929890D01*
X88707817Y-100804949D01*
X88698504Y-100800204D01*
X88647707Y-100752230D01*
X88630912Y-100684409D01*
X88653449Y-100618274D01*
X88698507Y-100579232D01*
X88707555Y-100574622D01*
X88761716Y-100535270D01*
X88761717Y-100535270D01*
X88129408Y-99902962D01*
X88192993Y-99885925D01*
X88307007Y-99820099D01*
X88400099Y-99727007D01*
X88465925Y-99612993D01*
X88482962Y-99549408D01*
X89115270Y-100181717D01*
X89115270Y-100181716D01*
X89154622Y-100127554D01*
X89251095Y-99938217D01*
X89279576Y-99850563D01*
X89316757Y-99736130D01*
X89316757Y-99736127D01*
X89350000Y-99526246D01*
X89350000Y-99313753D01*
X89316757Y-99103872D01*
X89316757Y-99103869D01*
X89251095Y-98901782D01*
X89154624Y-98712449D01*
X89115270Y-98658282D01*
X89115269Y-98658282D01*
X88482962Y-99290590D01*
X88465925Y-99227007D01*
X88400099Y-99112993D01*
X88307007Y-99019901D01*
X88192993Y-98954075D01*
X88129409Y-98937037D01*
X88761716Y-98304728D01*
X88707547Y-98265373D01*
X88707547Y-98265372D01*
X88698500Y-98260763D01*
X88647706Y-98212788D01*
X88630912Y-98144966D01*
X88653451Y-98078832D01*
X88698508Y-98039793D01*
X88707816Y-98035051D01*
X88788764Y-97976239D01*
X88879786Y-97910109D01*
X88879788Y-97910106D01*
X88879792Y-97910104D01*
X89030104Y-97759792D01*
X89030106Y-97759788D01*
X89030109Y-97759786D01*
X89155048Y-97587820D01*
X89155047Y-97587820D01*
X89155051Y-97587816D01*
X89251557Y-97398412D01*
X89317246Y-97196243D01*
X89350500Y-96986287D01*
X89350500Y-96773713D01*
X89317246Y-96563757D01*
X89251557Y-96361588D01*
X89155051Y-96172184D01*
X89155049Y-96172181D01*
X89155048Y-96172179D01*
X89030109Y-96000213D01*
X88879786Y-95849890D01*
X88707820Y-95724951D01*
X88707115Y-95724591D01*
X88699054Y-95720485D01*
X88648259Y-95672512D01*
X88631463Y-95604692D01*
X88653999Y-95538556D01*
X88699054Y-95499515D01*
X88707816Y-95495051D01*
X88785771Y-95438414D01*
X88879786Y-95370109D01*
X88879788Y-95370106D01*
X88879792Y-95370104D01*
X89030104Y-95219792D01*
X89030106Y-95219788D01*
X89030109Y-95219786D01*
X89155048Y-95047820D01*
X89155047Y-95047820D01*
X89155051Y-95047816D01*
X89251557Y-94858412D01*
X89266081Y-94813713D01*
X95649500Y-94813713D01*
X95649500Y-95026286D01*
X95682319Y-95233501D01*
X95682754Y-95236243D01*
X95747738Y-95436243D01*
X95748444Y-95438414D01*
X95844951Y-95627820D01*
X95969890Y-95799786D01*
X96120213Y-95950109D01*
X96292182Y-96075050D01*
X96300946Y-96079516D01*
X96351742Y-96127491D01*
X96368536Y-96195312D01*
X96345998Y-96261447D01*
X96300946Y-96300484D01*
X96292182Y-96304949D01*
X96120213Y-96429890D01*
X95969890Y-96580213D01*
X95844951Y-96752179D01*
X95748444Y-96941585D01*
X95682753Y-97143760D01*
X95649500Y-97353713D01*
X95649500Y-97566286D01*
X95675471Y-97730264D01*
X95682754Y-97776243D01*
X95747738Y-97976243D01*
X95748444Y-97978414D01*
X95844951Y-98167820D01*
X95969890Y-98339786D01*
X96120213Y-98490109D01*
X96292179Y-98615048D01*
X96292181Y-98615049D01*
X96292184Y-98615051D01*
X96301493Y-98619794D01*
X96352290Y-98667766D01*
X96369087Y-98735587D01*
X96346552Y-98801722D01*
X96301505Y-98840760D01*
X96292446Y-98845376D01*
X96292440Y-98845380D01*
X96238282Y-98884727D01*
X96238282Y-98884728D01*
X96870591Y-99517037D01*
X96807007Y-99534075D01*
X96692993Y-99599901D01*
X96599901Y-99692993D01*
X96534075Y-99807007D01*
X96517037Y-99870591D01*
X95884728Y-99238282D01*
X95884727Y-99238282D01*
X95845380Y-99292439D01*
X95748904Y-99481782D01*
X95683242Y-99683869D01*
X95683242Y-99683872D01*
X95650000Y-99893753D01*
X95650000Y-100106246D01*
X95683242Y-100316127D01*
X95683242Y-100316130D01*
X95748904Y-100518217D01*
X95845375Y-100707550D01*
X95884728Y-100761716D01*
X96517037Y-100129408D01*
X96534075Y-100192993D01*
X96599901Y-100307007D01*
X96692993Y-100400099D01*
X96807007Y-100465925D01*
X96870590Y-100482962D01*
X96238282Y-101115269D01*
X96238282Y-101115270D01*
X96292452Y-101154626D01*
X96292451Y-101154626D01*
X96301495Y-101159234D01*
X96352292Y-101207208D01*
X96369087Y-101275029D01*
X96346550Y-101341164D01*
X96301499Y-101380202D01*
X96292182Y-101384949D01*
X96120213Y-101509890D01*
X95969890Y-101660213D01*
X95844951Y-101832179D01*
X95748444Y-102021585D01*
X95682753Y-102223760D01*
X95649500Y-102433713D01*
X95649500Y-102646286D01*
X95681742Y-102849858D01*
X95682754Y-102856243D01*
X95742288Y-103039470D01*
X95748444Y-103058414D01*
X95844951Y-103247820D01*
X95969890Y-103419786D01*
X96083430Y-103533326D01*
X96116915Y-103594649D01*
X96111931Y-103664341D01*
X96070059Y-103720274D01*
X96039083Y-103737189D01*
X95907669Y-103786203D01*
X95907664Y-103786206D01*
X95792455Y-103872452D01*
X95792452Y-103872455D01*
X95706206Y-103987664D01*
X95706202Y-103987671D01*
X95655908Y-104122517D01*
X95649501Y-104182116D01*
X95649500Y-104182135D01*
X95649500Y-105977870D01*
X95649501Y-105977876D01*
X95655908Y-106037483D01*
X95706202Y-106172328D01*
X95706206Y-106172335D01*
X95792452Y-106287544D01*
X95792455Y-106287547D01*
X95907664Y-106373793D01*
X95907671Y-106373797D01*
X96042517Y-106424091D01*
X96042516Y-106424091D01*
X96049444Y-106424835D01*
X96102127Y-106430500D01*
X97897872Y-106430499D01*
X97957483Y-106424091D01*
X98092331Y-106373796D01*
X98207546Y-106287546D01*
X98293796Y-106172331D01*
X98344091Y-106037483D01*
X98350500Y-105977873D01*
X98350499Y-104760757D01*
X98370184Y-104693719D01*
X98422987Y-104647964D01*
X98492146Y-104638020D01*
X98543387Y-104657654D01*
X98620821Y-104709394D01*
X98620823Y-104709395D01*
X98620827Y-104709397D01*
X98766498Y-104769735D01*
X98766503Y-104769737D01*
X98921153Y-104800499D01*
X98921156Y-104800500D01*
X98921158Y-104800500D01*
X99078844Y-104800500D01*
X99078845Y-104800499D01*
X99233497Y-104769737D01*
X99379179Y-104709394D01*
X99510289Y-104621789D01*
X99621789Y-104510289D01*
X99709394Y-104379179D01*
X99769737Y-104233497D01*
X99783739Y-104163102D01*
X99800500Y-104078844D01*
X99800500Y-103921155D01*
X99800499Y-103921153D01*
X99773656Y-103786206D01*
X99769737Y-103766503D01*
X99754435Y-103729560D01*
X99709397Y-103620827D01*
X99709390Y-103620814D01*
X99621789Y-103489711D01*
X99621786Y-103489707D01*
X99510292Y-103378213D01*
X99510288Y-103378210D01*
X99379185Y-103290609D01*
X99379172Y-103290602D01*
X99233501Y-103230264D01*
X99233489Y-103230261D01*
X99184257Y-103220468D01*
X99184256Y-103220468D01*
X99078844Y-103199500D01*
X99078842Y-103199500D01*
X98921158Y-103199500D01*
X98921155Y-103199500D01*
X98766510Y-103230261D01*
X98766498Y-103230264D01*
X98620827Y-103290602D01*
X98620814Y-103290609D01*
X98489711Y-103378210D01*
X98489707Y-103378213D01*
X98378213Y-103489707D01*
X98378210Y-103489711D01*
X98290609Y-103620814D01*
X98290604Y-103620824D01*
X98250524Y-103717586D01*
X98246244Y-103722896D01*
X98244795Y-103729560D01*
X98224602Y-103749752D01*
X98206683Y-103771989D01*
X98200212Y-103774142D01*
X98195390Y-103778965D01*
X98167483Y-103785035D01*
X98140388Y-103794054D01*
X98132158Y-103792720D01*
X98127117Y-103793817D01*
X98092630Y-103786315D01*
X97960917Y-103737189D01*
X97904983Y-103695318D01*
X97880566Y-103629853D01*
X97895418Y-103561580D01*
X97916563Y-103533332D01*
X98030104Y-103419792D01*
X98067344Y-103368536D01*
X98155048Y-103247820D01*
X98155047Y-103247820D01*
X98155051Y-103247816D01*
X98229269Y-103102155D01*
X106840000Y-103102155D01*
X106840000Y-103750000D01*
X107756988Y-103750000D01*
X107724075Y-103807007D01*
X107690000Y-103934174D01*
X107690000Y-104065826D01*
X107724075Y-104192993D01*
X107756988Y-104250000D01*
X106840000Y-104250000D01*
X106840000Y-104897844D01*
X106846401Y-104957372D01*
X106846403Y-104957379D01*
X106896645Y-105092086D01*
X106896649Y-105092093D01*
X106982809Y-105207187D01*
X106982812Y-105207190D01*
X107097906Y-105293350D01*
X107097913Y-105293354D01*
X107232620Y-105343596D01*
X107232627Y-105343598D01*
X107292155Y-105349999D01*
X107292172Y-105350000D01*
X107940000Y-105350000D01*
X107940000Y-104433012D01*
X107997007Y-104465925D01*
X108124174Y-104500000D01*
X108255826Y-104500000D01*
X108382993Y-104465925D01*
X108440000Y-104433012D01*
X108440000Y-105350000D01*
X109087828Y-105350000D01*
X109087844Y-105349999D01*
X109147372Y-105343598D01*
X109147379Y-105343596D01*
X109282086Y-105293354D01*
X109282093Y-105293350D01*
X109397187Y-105207190D01*
X109397190Y-105207187D01*
X109483350Y-105092093D01*
X109483354Y-105092086D01*
X109532422Y-104960529D01*
X109574293Y-104904595D01*
X109639757Y-104880178D01*
X109708030Y-104895030D01*
X109736285Y-104916181D01*
X109850213Y-105030109D01*
X110022179Y-105155048D01*
X110022181Y-105155049D01*
X110022184Y-105155051D01*
X110211588Y-105251557D01*
X110413757Y-105317246D01*
X110623713Y-105350500D01*
X110623714Y-105350500D01*
X110836286Y-105350500D01*
X110836287Y-105350500D01*
X111046243Y-105317246D01*
X111248412Y-105251557D01*
X111437816Y-105155051D01*
X111524471Y-105092093D01*
X111609786Y-105030109D01*
X111609788Y-105030106D01*
X111609792Y-105030104D01*
X111760104Y-104879792D01*
X111760106Y-104879788D01*
X111760109Y-104879786D01*
X111883902Y-104709397D01*
X111885051Y-104707816D01*
X111889514Y-104699054D01*
X111937488Y-104648259D01*
X112005308Y-104631463D01*
X112071444Y-104653999D01*
X112110486Y-104699056D01*
X112114951Y-104707820D01*
X112239890Y-104879786D01*
X112390213Y-105030109D01*
X112562179Y-105155048D01*
X112562181Y-105155049D01*
X112562184Y-105155051D01*
X112751588Y-105251557D01*
X112953757Y-105317246D01*
X113163713Y-105350500D01*
X113163714Y-105350500D01*
X113376286Y-105350500D01*
X113376287Y-105350500D01*
X113586243Y-105317246D01*
X113788412Y-105251557D01*
X113977816Y-105155051D01*
X114064471Y-105092093D01*
X114149786Y-105030109D01*
X114149788Y-105030106D01*
X114149792Y-105030104D01*
X114300104Y-104879792D01*
X114300106Y-104879788D01*
X114300109Y-104879786D01*
X114423902Y-104709397D01*
X114425051Y-104707816D01*
X114429514Y-104699054D01*
X114477488Y-104648259D01*
X114545308Y-104631463D01*
X114611444Y-104653999D01*
X114650486Y-104699056D01*
X114654951Y-104707820D01*
X114779890Y-104879786D01*
X114930213Y-105030109D01*
X115102179Y-105155048D01*
X115102181Y-105155049D01*
X115102184Y-105155051D01*
X115291588Y-105251557D01*
X115493757Y-105317246D01*
X115703713Y-105350500D01*
X115703714Y-105350500D01*
X115916286Y-105350500D01*
X115916287Y-105350500D01*
X116126243Y-105317246D01*
X116328412Y-105251557D01*
X116517816Y-105155051D01*
X116604471Y-105092093D01*
X116689786Y-105030109D01*
X116689788Y-105030106D01*
X116689792Y-105030104D01*
X116840104Y-104879792D01*
X116840106Y-104879788D01*
X116840109Y-104879786D01*
X116963902Y-104709397D01*
X116965051Y-104707816D01*
X117061557Y-104518412D01*
X117127246Y-104316243D01*
X117160500Y-104106287D01*
X117160500Y-103893713D01*
X117127246Y-103683757D01*
X117061557Y-103481588D01*
X116965051Y-103292184D01*
X116965049Y-103292181D01*
X116965048Y-103292179D01*
X116840109Y-103120213D01*
X116689786Y-102969890D01*
X116517820Y-102844951D01*
X116328414Y-102748444D01*
X116328413Y-102748443D01*
X116328412Y-102748443D01*
X116126243Y-102682754D01*
X116126241Y-102682753D01*
X116126240Y-102682753D01*
X115964957Y-102657208D01*
X115916287Y-102649500D01*
X115703713Y-102649500D01*
X115655042Y-102657208D01*
X115493760Y-102682753D01*
X115291585Y-102748444D01*
X115102179Y-102844951D01*
X114930213Y-102969890D01*
X114779890Y-103120213D01*
X114654949Y-103292182D01*
X114650484Y-103300946D01*
X114602509Y-103351742D01*
X114534688Y-103368536D01*
X114468553Y-103345998D01*
X114429516Y-103300946D01*
X114425050Y-103292182D01*
X114300109Y-103120213D01*
X114160769Y-102980873D01*
X114127284Y-102919550D01*
X114132268Y-102849858D01*
X114174140Y-102793925D01*
X114224259Y-102771575D01*
X114228171Y-102770796D01*
X114233497Y-102769737D01*
X114379179Y-102709394D01*
X114510289Y-102621789D01*
X114621789Y-102510289D01*
X114709394Y-102379179D01*
X114769737Y-102233497D01*
X114800500Y-102078842D01*
X114800500Y-101921158D01*
X114800500Y-101921155D01*
X114800499Y-101921153D01*
X114792148Y-101879172D01*
X114769737Y-101766503D01*
X114718896Y-101643760D01*
X114709397Y-101620827D01*
X114709390Y-101620814D01*
X114621789Y-101489711D01*
X114621786Y-101489707D01*
X114510292Y-101378213D01*
X114510288Y-101378210D01*
X114379185Y-101290609D01*
X114379172Y-101290602D01*
X114233501Y-101230264D01*
X114233489Y-101230261D01*
X114078845Y-101199500D01*
X114078842Y-101199500D01*
X113924500Y-101199500D01*
X113857461Y-101179815D01*
X113811706Y-101127011D01*
X113800500Y-101075500D01*
X113800500Y-100921155D01*
X113800499Y-100921153D01*
X113777384Y-100804949D01*
X113769737Y-100766503D01*
X113763825Y-100752230D01*
X113709397Y-100620827D01*
X113709390Y-100620814D01*
X113621789Y-100489711D01*
X113621786Y-100489707D01*
X113510292Y-100378213D01*
X113510288Y-100378210D01*
X113379185Y-100290609D01*
X113379172Y-100290602D01*
X113233501Y-100230264D01*
X113233489Y-100230261D01*
X113078845Y-100199500D01*
X113078842Y-100199500D01*
X112921158Y-100199500D01*
X112921155Y-100199500D01*
X112766510Y-100230261D01*
X112766498Y-100230264D01*
X112620827Y-100290602D01*
X112620814Y-100290609D01*
X112489711Y-100378210D01*
X112489707Y-100378213D01*
X112378213Y-100489707D01*
X112378210Y-100489711D01*
X112290609Y-100620814D01*
X112290602Y-100620827D01*
X112230264Y-100766498D01*
X112230261Y-100766510D01*
X112199500Y-100921153D01*
X112199500Y-101078846D01*
X112230261Y-101233489D01*
X112230264Y-101233501D01*
X112290602Y-101379172D01*
X112290609Y-101379185D01*
X112378210Y-101510288D01*
X112378213Y-101510292D01*
X112489707Y-101621786D01*
X112489711Y-101621789D01*
X112620814Y-101709390D01*
X112620827Y-101709397D01*
X112758683Y-101766498D01*
X112766503Y-101769737D01*
X112921153Y-101800499D01*
X112921156Y-101800500D01*
X113075500Y-101800500D01*
X113142539Y-101820185D01*
X113188294Y-101872989D01*
X113199500Y-101924500D01*
X113199500Y-102078846D01*
X113230261Y-102233489D01*
X113230264Y-102233501D01*
X113290602Y-102379172D01*
X113290609Y-102379184D01*
X113342343Y-102456609D01*
X113363221Y-102523286D01*
X113344737Y-102590666D01*
X113292758Y-102637357D01*
X113239241Y-102649500D01*
X113163713Y-102649500D01*
X113115042Y-102657208D01*
X112953760Y-102682753D01*
X112751585Y-102748444D01*
X112562179Y-102844951D01*
X112390213Y-102969890D01*
X112239890Y-103120213D01*
X112114949Y-103292182D01*
X112110484Y-103300946D01*
X112062509Y-103351742D01*
X111994688Y-103368536D01*
X111928553Y-103345998D01*
X111889516Y-103300946D01*
X111885050Y-103292182D01*
X111760109Y-103120213D01*
X111609786Y-102969890D01*
X111437820Y-102844951D01*
X111248414Y-102748444D01*
X111248413Y-102748443D01*
X111248412Y-102748443D01*
X111046243Y-102682754D01*
X111046241Y-102682753D01*
X111046240Y-102682753D01*
X110884957Y-102657208D01*
X110836287Y-102649500D01*
X110623713Y-102649500D01*
X110575042Y-102657208D01*
X110413760Y-102682753D01*
X110211585Y-102748444D01*
X110022179Y-102844951D01*
X109850215Y-102969889D01*
X109736285Y-103083819D01*
X109674962Y-103117303D01*
X109605270Y-103112319D01*
X109549337Y-103070447D01*
X109532422Y-103039470D01*
X109483354Y-102907913D01*
X109483350Y-102907906D01*
X109397190Y-102792812D01*
X109397187Y-102792809D01*
X109282093Y-102706649D01*
X109282086Y-102706645D01*
X109147379Y-102656403D01*
X109147372Y-102656401D01*
X109087844Y-102650000D01*
X108440000Y-102650000D01*
X108440000Y-103566988D01*
X108382993Y-103534075D01*
X108255826Y-103500000D01*
X108124174Y-103500000D01*
X107997007Y-103534075D01*
X107940000Y-103566988D01*
X107940000Y-102650000D01*
X107292155Y-102650000D01*
X107232627Y-102656401D01*
X107232620Y-102656403D01*
X107097913Y-102706645D01*
X107097906Y-102706649D01*
X106982812Y-102792809D01*
X106982809Y-102792812D01*
X106896649Y-102907906D01*
X106896645Y-102907913D01*
X106846403Y-103042620D01*
X106846401Y-103042627D01*
X106840000Y-103102155D01*
X98229269Y-103102155D01*
X98251557Y-103058412D01*
X98317246Y-102856243D01*
X98350500Y-102646287D01*
X98350500Y-102433713D01*
X98317246Y-102223757D01*
X98251557Y-102021588D01*
X98155051Y-101832184D01*
X98155049Y-101832181D01*
X98155048Y-101832179D01*
X98030109Y-101660213D01*
X97879786Y-101509890D01*
X97757648Y-101421153D01*
X100699500Y-101421153D01*
X100699500Y-101578846D01*
X100730261Y-101733489D01*
X100730264Y-101733501D01*
X100790602Y-101879172D01*
X100790609Y-101879185D01*
X100878210Y-102010288D01*
X100878213Y-102010292D01*
X100989707Y-102121786D01*
X100989711Y-102121789D01*
X101120814Y-102209390D01*
X101120827Y-102209397D01*
X101266498Y-102269735D01*
X101266503Y-102269737D01*
X101421153Y-102300499D01*
X101421156Y-102300500D01*
X101421158Y-102300500D01*
X101578844Y-102300500D01*
X101578845Y-102300499D01*
X101733497Y-102269737D01*
X101879179Y-102209394D01*
X102010289Y-102121789D01*
X102121789Y-102010289D01*
X102209394Y-101879179D01*
X102269737Y-101733497D01*
X102300500Y-101578842D01*
X102300500Y-101421158D01*
X102300500Y-101421155D01*
X102300499Y-101421153D01*
X102297792Y-101407544D01*
X102269737Y-101266503D01*
X102256062Y-101233489D01*
X102209397Y-101120827D01*
X102209390Y-101120814D01*
X102121789Y-100989711D01*
X102121786Y-100989707D01*
X102010292Y-100878213D01*
X102010288Y-100878210D01*
X101879185Y-100790609D01*
X101879172Y-100790602D01*
X101733501Y-100730264D01*
X101733489Y-100730261D01*
X101578845Y-100699500D01*
X101578842Y-100699500D01*
X101421158Y-100699500D01*
X101421155Y-100699500D01*
X101266510Y-100730261D01*
X101266498Y-100730264D01*
X101120827Y-100790602D01*
X101120814Y-100790609D01*
X100989711Y-100878210D01*
X100989707Y-100878213D01*
X100878213Y-100989707D01*
X100878210Y-100989711D01*
X100790609Y-101120814D01*
X100790602Y-101120827D01*
X100730264Y-101266498D01*
X100730261Y-101266510D01*
X100699500Y-101421153D01*
X97757648Y-101421153D01*
X97707817Y-101384949D01*
X97698504Y-101380204D01*
X97647707Y-101332230D01*
X97630912Y-101264409D01*
X97653449Y-101198274D01*
X97698507Y-101159232D01*
X97707555Y-101154622D01*
X97761716Y-101115270D01*
X97761717Y-101115270D01*
X97129408Y-100482962D01*
X97192993Y-100465925D01*
X97307007Y-100400099D01*
X97400099Y-100307007D01*
X97465925Y-100192993D01*
X97482962Y-100129409D01*
X98115270Y-100761717D01*
X98115270Y-100761716D01*
X98154622Y-100707554D01*
X98251095Y-100518217D01*
X98316757Y-100316130D01*
X98316757Y-100316127D01*
X98350000Y-100106246D01*
X98350000Y-99893753D01*
X98316757Y-99683872D01*
X98316757Y-99683869D01*
X98251095Y-99481782D01*
X98154624Y-99292449D01*
X98115270Y-99238282D01*
X98115269Y-99238282D01*
X97482962Y-99870590D01*
X97465925Y-99807007D01*
X97400099Y-99692993D01*
X97307007Y-99599901D01*
X97192993Y-99534075D01*
X97129409Y-99517037D01*
X97761716Y-98884728D01*
X97707547Y-98845373D01*
X97707547Y-98845372D01*
X97698500Y-98840763D01*
X97647706Y-98792788D01*
X97630912Y-98724966D01*
X97653451Y-98658832D01*
X97698508Y-98619793D01*
X97707816Y-98615051D01*
X97811413Y-98539784D01*
X97879786Y-98490109D01*
X97879788Y-98490106D01*
X97879792Y-98490104D01*
X97948743Y-98421153D01*
X101214884Y-98421153D01*
X101214884Y-98578846D01*
X101245645Y-98733489D01*
X101245648Y-98733501D01*
X101305986Y-98879172D01*
X101305993Y-98879185D01*
X101393594Y-99010288D01*
X101393597Y-99010292D01*
X101505091Y-99121786D01*
X101505095Y-99121789D01*
X101636198Y-99209390D01*
X101636211Y-99209397D01*
X101781882Y-99269735D01*
X101781887Y-99269737D01*
X101936537Y-99300499D01*
X101936540Y-99300500D01*
X101936542Y-99300500D01*
X102094228Y-99300500D01*
X102094229Y-99300499D01*
X102248881Y-99269737D01*
X102394563Y-99209394D01*
X102438801Y-99179834D01*
X102505477Y-99158956D01*
X102572858Y-99177440D01*
X102576562Y-99179821D01*
X102620821Y-99209394D01*
X102620823Y-99209395D01*
X102620825Y-99209396D01*
X102766498Y-99269735D01*
X102766503Y-99269737D01*
X102921153Y-99300499D01*
X102921156Y-99300500D01*
X102921158Y-99300500D01*
X103078844Y-99300500D01*
X103078845Y-99300499D01*
X103233497Y-99269737D01*
X103379179Y-99209394D01*
X103510289Y-99121789D01*
X103621789Y-99010289D01*
X103681348Y-98921153D01*
X107199500Y-98921153D01*
X107199500Y-99078846D01*
X107230261Y-99233489D01*
X107230264Y-99233501D01*
X107290602Y-99379172D01*
X107290609Y-99379185D01*
X107378210Y-99510288D01*
X107378213Y-99510292D01*
X107489707Y-99621786D01*
X107489711Y-99621789D01*
X107620814Y-99709390D01*
X107620827Y-99709397D01*
X107766498Y-99769735D01*
X107766503Y-99769737D01*
X107921153Y-99800499D01*
X107921156Y-99800500D01*
X107921158Y-99800500D01*
X108078844Y-99800500D01*
X108078845Y-99800499D01*
X108233497Y-99769737D01*
X108379179Y-99709394D01*
X108510289Y-99621789D01*
X108621789Y-99510289D01*
X108709394Y-99379179D01*
X108769737Y-99233497D01*
X108800500Y-99078842D01*
X108800500Y-98921158D01*
X108800500Y-98921155D01*
X108800499Y-98921153D01*
X108796646Y-98901782D01*
X108769737Y-98766503D01*
X108769735Y-98766498D01*
X108709397Y-98620827D01*
X108709390Y-98620814D01*
X108621789Y-98489711D01*
X108621786Y-98489707D01*
X108510292Y-98378213D01*
X108510288Y-98378210D01*
X108379185Y-98290609D01*
X108379172Y-98290602D01*
X108233501Y-98230264D01*
X108233489Y-98230261D01*
X108078845Y-98199500D01*
X108078842Y-98199500D01*
X107921158Y-98199500D01*
X107921155Y-98199500D01*
X107766510Y-98230261D01*
X107766498Y-98230264D01*
X107620827Y-98290602D01*
X107620814Y-98290609D01*
X107489711Y-98378210D01*
X107489707Y-98378213D01*
X107378213Y-98489707D01*
X107378210Y-98489711D01*
X107290609Y-98620814D01*
X107290602Y-98620827D01*
X107230264Y-98766498D01*
X107230261Y-98766510D01*
X107199500Y-98921153D01*
X103681348Y-98921153D01*
X103709394Y-98879179D01*
X103769737Y-98733497D01*
X103800500Y-98578842D01*
X103800500Y-98421158D01*
X103800500Y-98421155D01*
X103800499Y-98421153D01*
X103789890Y-98367820D01*
X103769737Y-98266503D01*
X103769269Y-98265372D01*
X103709397Y-98120827D01*
X103709390Y-98120814D01*
X103621789Y-97989711D01*
X103621786Y-97989707D01*
X103510292Y-97878213D01*
X103510288Y-97878210D01*
X103379185Y-97790609D01*
X103379172Y-97790602D01*
X103233501Y-97730264D01*
X103233489Y-97730261D01*
X103078845Y-97699500D01*
X103078842Y-97699500D01*
X102921158Y-97699500D01*
X102921155Y-97699500D01*
X102766510Y-97730261D01*
X102766498Y-97730264D01*
X102620828Y-97790602D01*
X102620815Y-97790609D01*
X102576583Y-97820165D01*
X102509905Y-97841043D01*
X102442525Y-97822559D01*
X102438801Y-97820165D01*
X102394568Y-97790609D01*
X102394565Y-97790607D01*
X102394563Y-97790606D01*
X102394560Y-97790604D01*
X102394555Y-97790602D01*
X102248885Y-97730264D01*
X102248873Y-97730261D01*
X102094229Y-97699500D01*
X102094226Y-97699500D01*
X101936542Y-97699500D01*
X101936539Y-97699500D01*
X101781894Y-97730261D01*
X101781882Y-97730264D01*
X101636211Y-97790602D01*
X101636198Y-97790609D01*
X101505095Y-97878210D01*
X101505091Y-97878213D01*
X101393597Y-97989707D01*
X101393594Y-97989711D01*
X101305993Y-98120814D01*
X101305986Y-98120827D01*
X101245648Y-98266498D01*
X101245645Y-98266510D01*
X101214884Y-98421153D01*
X97948743Y-98421153D01*
X98030104Y-98339792D01*
X98155051Y-98167816D01*
X98251557Y-97978412D01*
X98317246Y-97776243D01*
X98350500Y-97566287D01*
X98350500Y-97353713D01*
X98317246Y-97143757D01*
X98251557Y-96941588D01*
X98155051Y-96752184D01*
X98155049Y-96752181D01*
X98155048Y-96752179D01*
X98030109Y-96580213D01*
X97879786Y-96429890D01*
X97707820Y-96304951D01*
X97707115Y-96304591D01*
X97699054Y-96300485D01*
X97648259Y-96252512D01*
X97631463Y-96184692D01*
X97653999Y-96118556D01*
X97699054Y-96079515D01*
X97707816Y-96075051D01*
X97729789Y-96059086D01*
X97879786Y-95950109D01*
X97879788Y-95950106D01*
X97879792Y-95950104D01*
X98030104Y-95799792D01*
X98030106Y-95799788D01*
X98030109Y-95799786D01*
X98155048Y-95627820D01*
X98155047Y-95627820D01*
X98155051Y-95627816D01*
X98251557Y-95438412D01*
X98317246Y-95236243D01*
X98350500Y-95026287D01*
X98350500Y-94921153D01*
X108199500Y-94921153D01*
X108199500Y-95078846D01*
X108230261Y-95233489D01*
X108230264Y-95233501D01*
X108290602Y-95379172D01*
X108290609Y-95379185D01*
X108378210Y-95510288D01*
X108378213Y-95510292D01*
X108489707Y-95621786D01*
X108489711Y-95621789D01*
X108620814Y-95709390D01*
X108620827Y-95709397D01*
X108766498Y-95769735D01*
X108766503Y-95769737D01*
X108917569Y-95799786D01*
X108921153Y-95800499D01*
X108921156Y-95800500D01*
X108921158Y-95800500D01*
X109078844Y-95800500D01*
X109078845Y-95800499D01*
X109233497Y-95769737D01*
X109379179Y-95709394D01*
X109510289Y-95621789D01*
X109621789Y-95510289D01*
X109709394Y-95379179D01*
X109769737Y-95233497D01*
X109800500Y-95078842D01*
X109800500Y-94921158D01*
X109800500Y-94921155D01*
X109800499Y-94921153D01*
X109788019Y-94858412D01*
X109769737Y-94766503D01*
X109751215Y-94721786D01*
X109709397Y-94620827D01*
X109709390Y-94620814D01*
X109621789Y-94489711D01*
X109621786Y-94489707D01*
X109510292Y-94378213D01*
X109510288Y-94378210D01*
X109379185Y-94290609D01*
X109379172Y-94290602D01*
X109233501Y-94230264D01*
X109233489Y-94230261D01*
X109078845Y-94199500D01*
X109078842Y-94199500D01*
X108921158Y-94199500D01*
X108921155Y-94199500D01*
X108766510Y-94230261D01*
X108766498Y-94230264D01*
X108620827Y-94290602D01*
X108620814Y-94290609D01*
X108489711Y-94378210D01*
X108489707Y-94378213D01*
X108378213Y-94489707D01*
X108378210Y-94489711D01*
X108290609Y-94620814D01*
X108290602Y-94620827D01*
X108230264Y-94766498D01*
X108230261Y-94766510D01*
X108199500Y-94921153D01*
X98350500Y-94921153D01*
X98350500Y-94813713D01*
X98317246Y-94603757D01*
X98251557Y-94401588D01*
X98155051Y-94212184D01*
X98155049Y-94212181D01*
X98155048Y-94212179D01*
X98064792Y-94087951D01*
X98030109Y-94040213D01*
X98011049Y-94021153D01*
X103699500Y-94021153D01*
X103699500Y-94178846D01*
X103730261Y-94333489D01*
X103730264Y-94333501D01*
X103790602Y-94479172D01*
X103790609Y-94479185D01*
X103878210Y-94610288D01*
X103878213Y-94610292D01*
X103989707Y-94721786D01*
X103989711Y-94721789D01*
X104120814Y-94809390D01*
X104120827Y-94809397D01*
X104239171Y-94858416D01*
X104266503Y-94869737D01*
X104421153Y-94900499D01*
X104421156Y-94900500D01*
X104421158Y-94900500D01*
X104578844Y-94900500D01*
X104578845Y-94900499D01*
X104733497Y-94869737D01*
X104879179Y-94809394D01*
X105010289Y-94721789D01*
X105121789Y-94610289D01*
X105209394Y-94479179D01*
X105269737Y-94333497D01*
X105300500Y-94178842D01*
X105300500Y-94021158D01*
X105300500Y-94021155D01*
X105300499Y-94021153D01*
X105699500Y-94021153D01*
X105699500Y-94178846D01*
X105730261Y-94333489D01*
X105730264Y-94333501D01*
X105790602Y-94479172D01*
X105790609Y-94479185D01*
X105878210Y-94610288D01*
X105878213Y-94610292D01*
X105989707Y-94721786D01*
X105989711Y-94721789D01*
X106120814Y-94809390D01*
X106120827Y-94809397D01*
X106239171Y-94858416D01*
X106266503Y-94869737D01*
X106421153Y-94900499D01*
X106421156Y-94900500D01*
X106421158Y-94900500D01*
X106578844Y-94900500D01*
X106578845Y-94900499D01*
X106733497Y-94869737D01*
X106879179Y-94809394D01*
X107010289Y-94721789D01*
X107121789Y-94610289D01*
X107209394Y-94479179D01*
X107269737Y-94333497D01*
X107300500Y-94178842D01*
X107300500Y-94021158D01*
X107300500Y-94021155D01*
X107300499Y-94021153D01*
X107289319Y-93964949D01*
X107269737Y-93866503D01*
X107251133Y-93821588D01*
X107209397Y-93720827D01*
X107209390Y-93720814D01*
X107121789Y-93589711D01*
X107121786Y-93589707D01*
X107010292Y-93478213D01*
X107010288Y-93478210D01*
X106879185Y-93390609D01*
X106879172Y-93390602D01*
X106733501Y-93330264D01*
X106733489Y-93330261D01*
X106578845Y-93299500D01*
X106578842Y-93299500D01*
X106421158Y-93299500D01*
X106421155Y-93299500D01*
X106266510Y-93330261D01*
X106266498Y-93330264D01*
X106120827Y-93390602D01*
X106120814Y-93390609D01*
X105989711Y-93478210D01*
X105989707Y-93478213D01*
X105878213Y-93589707D01*
X105878210Y-93589711D01*
X105790609Y-93720814D01*
X105790602Y-93720827D01*
X105730264Y-93866498D01*
X105730261Y-93866510D01*
X105699500Y-94021153D01*
X105300499Y-94021153D01*
X105289319Y-93964949D01*
X105269737Y-93866503D01*
X105251133Y-93821588D01*
X105209397Y-93720827D01*
X105209390Y-93720814D01*
X105121789Y-93589711D01*
X105121786Y-93589707D01*
X105010292Y-93478213D01*
X105010288Y-93478210D01*
X104879185Y-93390609D01*
X104879172Y-93390602D01*
X104733501Y-93330264D01*
X104733489Y-93330261D01*
X104578845Y-93299500D01*
X104578842Y-93299500D01*
X104421158Y-93299500D01*
X104421155Y-93299500D01*
X104266510Y-93330261D01*
X104266498Y-93330264D01*
X104120827Y-93390602D01*
X104120814Y-93390609D01*
X103989711Y-93478210D01*
X103989707Y-93478213D01*
X103878213Y-93589707D01*
X103878210Y-93589711D01*
X103790609Y-93720814D01*
X103790602Y-93720827D01*
X103730264Y-93866498D01*
X103730261Y-93866510D01*
X103699500Y-94021153D01*
X98011049Y-94021153D01*
X97879786Y-93889890D01*
X97707820Y-93764951D01*
X97518414Y-93668444D01*
X97518413Y-93668443D01*
X97518412Y-93668443D01*
X97316243Y-93602754D01*
X97316241Y-93602753D01*
X97316240Y-93602753D01*
X97154957Y-93577208D01*
X97106287Y-93569500D01*
X96893713Y-93569500D01*
X96845042Y-93577208D01*
X96683760Y-93602753D01*
X96481585Y-93668444D01*
X96292179Y-93764951D01*
X96120213Y-93889890D01*
X95969890Y-94040213D01*
X95844951Y-94212179D01*
X95748444Y-94401585D01*
X95682753Y-94603760D01*
X95649500Y-94813713D01*
X89266081Y-94813713D01*
X89317246Y-94656243D01*
X89350500Y-94446287D01*
X89350500Y-94233713D01*
X89317246Y-94023757D01*
X89251557Y-93821588D01*
X89155051Y-93632184D01*
X89155049Y-93632181D01*
X89155048Y-93632179D01*
X89030109Y-93460213D01*
X88879786Y-93309890D01*
X88707820Y-93184951D01*
X88707115Y-93184591D01*
X88699054Y-93180485D01*
X88648259Y-93132512D01*
X88631463Y-93064692D01*
X88653999Y-92998556D01*
X88699054Y-92959515D01*
X88707816Y-92955051D01*
X88788759Y-92896243D01*
X88879786Y-92830109D01*
X88879788Y-92830106D01*
X88879792Y-92830104D01*
X89030104Y-92679792D01*
X89030106Y-92679788D01*
X89030109Y-92679786D01*
X89155048Y-92507820D01*
X89155047Y-92507820D01*
X89155051Y-92507816D01*
X89251557Y-92318412D01*
X89295984Y-92181677D01*
X89335422Y-92124003D01*
X89399780Y-92096805D01*
X89468626Y-92108720D01*
X89484351Y-92118845D01*
X89484646Y-92118405D01*
X89620814Y-92209390D01*
X89620827Y-92209397D01*
X89752066Y-92263757D01*
X89766503Y-92269737D01*
X89921153Y-92300499D01*
X89921156Y-92300500D01*
X89921158Y-92300500D01*
X90078844Y-92300500D01*
X90078845Y-92300499D01*
X90233497Y-92269737D01*
X90379179Y-92209394D01*
X90510289Y-92121789D01*
X90621789Y-92010289D01*
X90709394Y-91879179D01*
X90712294Y-91872179D01*
X90723067Y-91846166D01*
X90769737Y-91733497D01*
X90800500Y-91578842D01*
X90800500Y-91421158D01*
X90800500Y-91421155D01*
X90800499Y-91421153D01*
X90785794Y-91347227D01*
X90769737Y-91266503D01*
X90756990Y-91235729D01*
X90709397Y-91120827D01*
X90709390Y-91120814D01*
X90621789Y-90989711D01*
X90621786Y-90989707D01*
X90510292Y-90878213D01*
X90510288Y-90878210D01*
X90379185Y-90790609D01*
X90379172Y-90790602D01*
X90233501Y-90730264D01*
X90233489Y-90730261D01*
X90078845Y-90699500D01*
X90078842Y-90699500D01*
X89921158Y-90699500D01*
X89921155Y-90699500D01*
X89766510Y-90730261D01*
X89766498Y-90730264D01*
X89620827Y-90790602D01*
X89620814Y-90790609D01*
X89489711Y-90878210D01*
X89489707Y-90878213D01*
X89378213Y-90989707D01*
X89334476Y-91055164D01*
X89280863Y-91099968D01*
X89211538Y-91108675D01*
X89148511Y-91078520D01*
X89131058Y-91059160D01*
X89030104Y-90920208D01*
X88879792Y-90769896D01*
X88879786Y-90769890D01*
X88707820Y-90644951D01*
X88707115Y-90644591D01*
X88699054Y-90640485D01*
X88648259Y-90592512D01*
X88631463Y-90524692D01*
X88653999Y-90458556D01*
X88699054Y-90419515D01*
X88707816Y-90415051D01*
X88729789Y-90399086D01*
X88879786Y-90290109D01*
X88879788Y-90290106D01*
X88879792Y-90290104D01*
X89030104Y-90139792D01*
X89030106Y-90139788D01*
X89030109Y-90139786D01*
X89155048Y-89967820D01*
X89155047Y-89967820D01*
X89155051Y-89967816D01*
X89251557Y-89778412D01*
X89317246Y-89576243D01*
X89350500Y-89366287D01*
X89350500Y-89153713D01*
X89317246Y-88943757D01*
X89309901Y-88921153D01*
X95199500Y-88921153D01*
X95199500Y-89078846D01*
X95230261Y-89233489D01*
X95230264Y-89233501D01*
X95290602Y-89379172D01*
X95290609Y-89379185D01*
X95378210Y-89510288D01*
X95378213Y-89510292D01*
X95489707Y-89621786D01*
X95489711Y-89621789D01*
X95620814Y-89709390D01*
X95620827Y-89709397D01*
X95758683Y-89766498D01*
X95766503Y-89769737D01*
X95921153Y-89800499D01*
X95921156Y-89800500D01*
X95921158Y-89800500D01*
X96078844Y-89800500D01*
X96078845Y-89800499D01*
X96233497Y-89769737D01*
X96379179Y-89709394D01*
X96379184Y-89709390D01*
X96379187Y-89709389D01*
X96442849Y-89666851D01*
X96509526Y-89645972D01*
X96576907Y-89664456D01*
X96623597Y-89716434D01*
X96629648Y-89732013D01*
X96690602Y-89879172D01*
X96690609Y-89879185D01*
X96778210Y-90010288D01*
X96778213Y-90010292D01*
X96889707Y-90121786D01*
X96889711Y-90121789D01*
X97020814Y-90209390D01*
X97020827Y-90209397D01*
X97166498Y-90269735D01*
X97166503Y-90269737D01*
X97321153Y-90300499D01*
X97321156Y-90300500D01*
X97321158Y-90300500D01*
X97478844Y-90300500D01*
X97478845Y-90300499D01*
X97633497Y-90269737D01*
X97779179Y-90209394D01*
X97910289Y-90121789D01*
X98021789Y-90010289D01*
X98067162Y-89942384D01*
X98120774Y-89897579D01*
X98190099Y-89888872D01*
X98253126Y-89919026D01*
X98284825Y-89963822D01*
X98290604Y-89977774D01*
X98290609Y-89977784D01*
X98378210Y-90108887D01*
X98378213Y-90108891D01*
X98489707Y-90220385D01*
X98489711Y-90220388D01*
X98620814Y-90307989D01*
X98620818Y-90307991D01*
X98620821Y-90307993D01*
X98754109Y-90363202D01*
X98808508Y-90407040D01*
X98830574Y-90473334D01*
X98828270Y-90501952D01*
X98799499Y-90646594D01*
X98799499Y-90804287D01*
X98830260Y-90958930D01*
X98830263Y-90958942D01*
X98871418Y-91058300D01*
X98878887Y-91127769D01*
X98847611Y-91190248D01*
X98787522Y-91225900D01*
X98781050Y-91227369D01*
X98766507Y-91230261D01*
X98766498Y-91230264D01*
X98620827Y-91290602D01*
X98620814Y-91290609D01*
X98489711Y-91378210D01*
X98489707Y-91378213D01*
X98378213Y-91489707D01*
X98378210Y-91489711D01*
X98290609Y-91620814D01*
X98290602Y-91620827D01*
X98230264Y-91766498D01*
X98230261Y-91766510D01*
X98199500Y-91921153D01*
X98199500Y-92078846D01*
X98230261Y-92233489D01*
X98230264Y-92233501D01*
X98290602Y-92379172D01*
X98290609Y-92379185D01*
X98378210Y-92510288D01*
X98378213Y-92510292D01*
X98489707Y-92621786D01*
X98489711Y-92621789D01*
X98620814Y-92709390D01*
X98620827Y-92709397D01*
X98766498Y-92769735D01*
X98766503Y-92769737D01*
X98921153Y-92800499D01*
X98921156Y-92800500D01*
X98921158Y-92800500D01*
X99078844Y-92800500D01*
X99078845Y-92800499D01*
X99233497Y-92769737D01*
X99379179Y-92709394D01*
X99510289Y-92621789D01*
X99621789Y-92510289D01*
X99709394Y-92379179D01*
X99769737Y-92233497D01*
X99800500Y-92078842D01*
X99800500Y-91921158D01*
X99800500Y-91921155D01*
X99800499Y-91921153D01*
X99769738Y-91766510D01*
X99769737Y-91766503D01*
X99728580Y-91667140D01*
X99721111Y-91597671D01*
X99752386Y-91535192D01*
X99812475Y-91499540D01*
X99818940Y-91498073D01*
X99833496Y-91495178D01*
X99979178Y-91434835D01*
X100110288Y-91347230D01*
X100221788Y-91235730D01*
X100309393Y-91104620D01*
X100369736Y-90958938D01*
X100400499Y-90804283D01*
X100400499Y-90646599D01*
X100400499Y-90646596D01*
X100400498Y-90646594D01*
X100373637Y-90511557D01*
X100369736Y-90491944D01*
X100359607Y-90467491D01*
X100309396Y-90346268D01*
X100309389Y-90346255D01*
X100221788Y-90215152D01*
X100221785Y-90215148D01*
X100110291Y-90103654D01*
X100110287Y-90103651D01*
X99991565Y-90024323D01*
X99991561Y-90024321D01*
X99979178Y-90016047D01*
X99844860Y-89960411D01*
X99843820Y-89959958D01*
X99817833Y-89938227D01*
X99796646Y-89921153D01*
X101699500Y-89921153D01*
X101699500Y-90078846D01*
X101730261Y-90233489D01*
X101730264Y-90233501D01*
X101790602Y-90379172D01*
X101790609Y-90379185D01*
X101878210Y-90510288D01*
X101878213Y-90510292D01*
X101989707Y-90621786D01*
X101989711Y-90621789D01*
X102120814Y-90709390D01*
X102120827Y-90709397D01*
X102213590Y-90747820D01*
X102266503Y-90769737D01*
X102421153Y-90800499D01*
X102421156Y-90800500D01*
X102421158Y-90800500D01*
X102578844Y-90800500D01*
X102578845Y-90800499D01*
X102733497Y-90769737D01*
X102879179Y-90709394D01*
X103010289Y-90621789D01*
X103121789Y-90510289D01*
X103209394Y-90379179D01*
X103269737Y-90233497D01*
X103300500Y-90078842D01*
X103300500Y-89921158D01*
X103300500Y-89921155D01*
X103300499Y-89921153D01*
X103292148Y-89879172D01*
X103269737Y-89766503D01*
X103255451Y-89732013D01*
X103209397Y-89620827D01*
X103209390Y-89620814D01*
X103121789Y-89489711D01*
X103121786Y-89489707D01*
X103010292Y-89378213D01*
X103010288Y-89378210D01*
X102879185Y-89290609D01*
X102879172Y-89290602D01*
X102733501Y-89230264D01*
X102733489Y-89230261D01*
X102578845Y-89199500D01*
X102578842Y-89199500D01*
X102421158Y-89199500D01*
X102421155Y-89199500D01*
X102266510Y-89230261D01*
X102266498Y-89230264D01*
X102120827Y-89290602D01*
X102120814Y-89290609D01*
X101989711Y-89378210D01*
X101989707Y-89378213D01*
X101878213Y-89489707D01*
X101878210Y-89489711D01*
X101790609Y-89620814D01*
X101790602Y-89620827D01*
X101730264Y-89766498D01*
X101730261Y-89766510D01*
X101699500Y-89921153D01*
X99796646Y-89921153D01*
X99791489Y-89916997D01*
X99791119Y-89915887D01*
X99790221Y-89915136D01*
X99780109Y-89882806D01*
X99769424Y-89850703D01*
X99769555Y-89849065D01*
X99769364Y-89848452D01*
X99769705Y-89847209D01*
X99771728Y-89822085D01*
X99800500Y-89677443D01*
X99800500Y-89519754D01*
X99800499Y-89519752D01*
X99772537Y-89379179D01*
X99769737Y-89365102D01*
X99736926Y-89285891D01*
X99729458Y-89216422D01*
X99740686Y-89184141D01*
X99740605Y-89184108D01*
X99741187Y-89182701D01*
X99742137Y-89179972D01*
X99742931Y-89178485D01*
X99742936Y-89178479D01*
X99753195Y-89153713D01*
X99803277Y-89032801D01*
X99803279Y-89032797D01*
X99834042Y-88878142D01*
X99834042Y-88720458D01*
X99834042Y-88720455D01*
X99834041Y-88720453D01*
X99821919Y-88659514D01*
X99803279Y-88565803D01*
X99742936Y-88420121D01*
X99742930Y-88420112D01*
X99742126Y-88418606D01*
X99741941Y-88417719D01*
X99740605Y-88414493D01*
X99741217Y-88414239D01*
X99727888Y-88350202D01*
X99736926Y-88312709D01*
X99769737Y-88233497D01*
X99800500Y-88078842D01*
X99800500Y-87921158D01*
X99800500Y-87921155D01*
X99800499Y-87921153D01*
X99779630Y-87816239D01*
X99769737Y-87766503D01*
X99732864Y-87677482D01*
X99709397Y-87620827D01*
X99709390Y-87620814D01*
X99621789Y-87489711D01*
X99621786Y-87489707D01*
X99510292Y-87378213D01*
X99510288Y-87378210D01*
X99379185Y-87290609D01*
X99379172Y-87290602D01*
X99233501Y-87230264D01*
X99233489Y-87230261D01*
X99078845Y-87199500D01*
X99078842Y-87199500D01*
X98921158Y-87199500D01*
X98921155Y-87199500D01*
X98766510Y-87230261D01*
X98766498Y-87230264D01*
X98620827Y-87290602D01*
X98620814Y-87290609D01*
X98489711Y-87378210D01*
X98489707Y-87378213D01*
X98378213Y-87489707D01*
X98378210Y-87489711D01*
X98290609Y-87620814D01*
X98290602Y-87620827D01*
X98230264Y-87766498D01*
X98230261Y-87766510D01*
X98199500Y-87921153D01*
X98199500Y-88078846D01*
X98230261Y-88233489D01*
X98230264Y-88233501D01*
X98290607Y-88379182D01*
X98291416Y-88380696D01*
X98291599Y-88381578D01*
X98292937Y-88384807D01*
X98292324Y-88385060D01*
X98305651Y-88449100D01*
X98296614Y-88486588D01*
X98263806Y-88565797D01*
X98263803Y-88565805D01*
X98233042Y-88720453D01*
X98233042Y-88720458D01*
X98233042Y-88878142D01*
X98233043Y-88878146D01*
X98233452Y-88880203D01*
X98233353Y-88881305D01*
X98233639Y-88884207D01*
X98233088Y-88884261D01*
X98227223Y-88949794D01*
X98184360Y-89004971D01*
X98118470Y-89028215D01*
X98050473Y-89012147D01*
X98024153Y-88992074D01*
X97974587Y-88942508D01*
X97941102Y-88881185D01*
X97940651Y-88830635D01*
X97970845Y-88678844D01*
X97970845Y-88521155D01*
X97970844Y-88521153D01*
X97964589Y-88489707D01*
X97940082Y-88366503D01*
X97908643Y-88290602D01*
X97879742Y-88220827D01*
X97879735Y-88220814D01*
X97792134Y-88089711D01*
X97792131Y-88089707D01*
X97680637Y-87978213D01*
X97680633Y-87978210D01*
X97549530Y-87890609D01*
X97549517Y-87890602D01*
X97403846Y-87830264D01*
X97403834Y-87830261D01*
X97249190Y-87799500D01*
X97249187Y-87799500D01*
X97091503Y-87799500D01*
X97091500Y-87799500D01*
X96936855Y-87830261D01*
X96936843Y-87830264D01*
X96791172Y-87890602D01*
X96791159Y-87890609D01*
X96660056Y-87978210D01*
X96660052Y-87978213D01*
X96548558Y-88089707D01*
X96548555Y-88089711D01*
X96463240Y-88217393D01*
X96409627Y-88262198D01*
X96340302Y-88270905D01*
X96312686Y-88263064D01*
X96310595Y-88262198D01*
X96233497Y-88230263D01*
X96233492Y-88230262D01*
X96233489Y-88230261D01*
X96078845Y-88199500D01*
X96078842Y-88199500D01*
X95921158Y-88199500D01*
X95921155Y-88199500D01*
X95766510Y-88230261D01*
X95766498Y-88230264D01*
X95620827Y-88290602D01*
X95620814Y-88290609D01*
X95489711Y-88378210D01*
X95489707Y-88378213D01*
X95378213Y-88489707D01*
X95378210Y-88489711D01*
X95290609Y-88620814D01*
X95290602Y-88620827D01*
X95230264Y-88766498D01*
X95230261Y-88766510D01*
X95199500Y-88921153D01*
X89309901Y-88921153D01*
X89251557Y-88741588D01*
X89155051Y-88552184D01*
X89155049Y-88552181D01*
X89155048Y-88552179D01*
X89030109Y-88380213D01*
X88916569Y-88266673D01*
X88883084Y-88205350D01*
X88888068Y-88135658D01*
X88929940Y-88079725D01*
X88960915Y-88062810D01*
X89092331Y-88013796D01*
X89207546Y-87927546D01*
X89293796Y-87812331D01*
X89344091Y-87677483D01*
X89350500Y-87617873D01*
X89350499Y-85921153D01*
X101199500Y-85921153D01*
X101199500Y-86078846D01*
X101230261Y-86233489D01*
X101230264Y-86233501D01*
X101290602Y-86379172D01*
X101290609Y-86379185D01*
X101378210Y-86510288D01*
X101378213Y-86510292D01*
X101489707Y-86621786D01*
X101489711Y-86621789D01*
X101620814Y-86709390D01*
X101620827Y-86709397D01*
X101766498Y-86769735D01*
X101766503Y-86769737D01*
X101879326Y-86792179D01*
X101921153Y-86800499D01*
X101921156Y-86800500D01*
X101921158Y-86800500D01*
X102078844Y-86800500D01*
X102078845Y-86800499D01*
X102233497Y-86769737D01*
X102379179Y-86709394D01*
X102510289Y-86621789D01*
X102621789Y-86510289D01*
X102709394Y-86379179D01*
X102769737Y-86233497D01*
X102800500Y-86078842D01*
X102800500Y-85921158D01*
X102800500Y-85921155D01*
X102800499Y-85921153D01*
X104199500Y-85921153D01*
X104199500Y-86078846D01*
X104230261Y-86233489D01*
X104230264Y-86233501D01*
X104290602Y-86379172D01*
X104290609Y-86379185D01*
X104378210Y-86510288D01*
X104378213Y-86510292D01*
X104489707Y-86621786D01*
X104489711Y-86621789D01*
X104620814Y-86709390D01*
X104620827Y-86709397D01*
X104766498Y-86769735D01*
X104766503Y-86769737D01*
X104879326Y-86792179D01*
X104921153Y-86800499D01*
X104921156Y-86800500D01*
X104921158Y-86800500D01*
X105078844Y-86800500D01*
X105078845Y-86800499D01*
X105233497Y-86769737D01*
X105379179Y-86709394D01*
X105510289Y-86621789D01*
X105621789Y-86510289D01*
X105709394Y-86379179D01*
X105769737Y-86233497D01*
X105800500Y-86078842D01*
X105800500Y-85921158D01*
X105800500Y-85921155D01*
X105800499Y-85921153D01*
X106699500Y-85921153D01*
X106699500Y-86078846D01*
X106730261Y-86233489D01*
X106730264Y-86233501D01*
X106790602Y-86379172D01*
X106790609Y-86379185D01*
X106878210Y-86510288D01*
X106878213Y-86510292D01*
X106989707Y-86621786D01*
X106989711Y-86621789D01*
X107120814Y-86709390D01*
X107120827Y-86709397D01*
X107266498Y-86769735D01*
X107266503Y-86769737D01*
X107379326Y-86792179D01*
X107421153Y-86800499D01*
X107421156Y-86800500D01*
X107421158Y-86800500D01*
X107578844Y-86800500D01*
X107578845Y-86800499D01*
X107733497Y-86769737D01*
X107879179Y-86709394D01*
X108010289Y-86621789D01*
X108121789Y-86510289D01*
X108209394Y-86379179D01*
X108269737Y-86233497D01*
X108300500Y-86078842D01*
X108300500Y-85921158D01*
X108300500Y-85921155D01*
X108300499Y-85921153D01*
X108280802Y-85822129D01*
X108269737Y-85766503D01*
X108268086Y-85762516D01*
X108209397Y-85620827D01*
X108209390Y-85620814D01*
X108121789Y-85489711D01*
X108121786Y-85489707D01*
X108010292Y-85378213D01*
X108010288Y-85378210D01*
X107879185Y-85290609D01*
X107879172Y-85290602D01*
X107733501Y-85230264D01*
X107733489Y-85230261D01*
X107578845Y-85199500D01*
X107578842Y-85199500D01*
X107421158Y-85199500D01*
X107421155Y-85199500D01*
X107266510Y-85230261D01*
X107266498Y-85230264D01*
X107120827Y-85290602D01*
X107120814Y-85290609D01*
X106989711Y-85378210D01*
X106989707Y-85378213D01*
X106878213Y-85489707D01*
X106878210Y-85489711D01*
X106790609Y-85620814D01*
X106790602Y-85620827D01*
X106730264Y-85766498D01*
X106730261Y-85766510D01*
X106699500Y-85921153D01*
X105800499Y-85921153D01*
X105780802Y-85822129D01*
X105769737Y-85766503D01*
X105768086Y-85762516D01*
X105709397Y-85620827D01*
X105709390Y-85620814D01*
X105621789Y-85489711D01*
X105621786Y-85489707D01*
X105510292Y-85378213D01*
X105510288Y-85378210D01*
X105379185Y-85290609D01*
X105379172Y-85290602D01*
X105233501Y-85230264D01*
X105233489Y-85230261D01*
X105078845Y-85199500D01*
X105078842Y-85199500D01*
X104921158Y-85199500D01*
X104921155Y-85199500D01*
X104766510Y-85230261D01*
X104766498Y-85230264D01*
X104620827Y-85290602D01*
X104620814Y-85290609D01*
X104489711Y-85378210D01*
X104489707Y-85378213D01*
X104378213Y-85489707D01*
X104378210Y-85489711D01*
X104290609Y-85620814D01*
X104290602Y-85620827D01*
X104230264Y-85766498D01*
X104230261Y-85766510D01*
X104199500Y-85921153D01*
X102800499Y-85921153D01*
X102780802Y-85822129D01*
X102769737Y-85766503D01*
X102768086Y-85762516D01*
X102709397Y-85620827D01*
X102709390Y-85620814D01*
X102621789Y-85489711D01*
X102621786Y-85489707D01*
X102510292Y-85378213D01*
X102510288Y-85378210D01*
X102379185Y-85290609D01*
X102379172Y-85290602D01*
X102233501Y-85230264D01*
X102233489Y-85230261D01*
X102078845Y-85199500D01*
X102078842Y-85199500D01*
X101921158Y-85199500D01*
X101921155Y-85199500D01*
X101766510Y-85230261D01*
X101766498Y-85230264D01*
X101620827Y-85290602D01*
X101620814Y-85290609D01*
X101489711Y-85378210D01*
X101489707Y-85378213D01*
X101378213Y-85489707D01*
X101378210Y-85489711D01*
X101290609Y-85620814D01*
X101290602Y-85620827D01*
X101230264Y-85766498D01*
X101230261Y-85766510D01*
X101199500Y-85921153D01*
X89350499Y-85921153D01*
X89350499Y-85822128D01*
X89344520Y-85766510D01*
X89344091Y-85762516D01*
X89293797Y-85627671D01*
X89293793Y-85627664D01*
X89207547Y-85512455D01*
X89207544Y-85512452D01*
X89092335Y-85426206D01*
X89092328Y-85426202D01*
X88957482Y-85375908D01*
X88957483Y-85375908D01*
X88897883Y-85369501D01*
X88897881Y-85369500D01*
X88897873Y-85369500D01*
X88897864Y-85369500D01*
X87102129Y-85369500D01*
X87102123Y-85369501D01*
X87042516Y-85375908D01*
X86907671Y-85426202D01*
X86907664Y-85426206D01*
X86792455Y-85512452D01*
X86792452Y-85512455D01*
X86706206Y-85627664D01*
X86706202Y-85627671D01*
X86655908Y-85762517D01*
X86649501Y-85822116D01*
X86649501Y-85822123D01*
X86649500Y-85822135D01*
X86000500Y-85822135D01*
X86000500Y-83921153D01*
X92199500Y-83921153D01*
X92199500Y-84078846D01*
X92230261Y-84233489D01*
X92230264Y-84233501D01*
X92290602Y-84379172D01*
X92290609Y-84379185D01*
X92378210Y-84510288D01*
X92378213Y-84510292D01*
X92489707Y-84621786D01*
X92489711Y-84621789D01*
X92620814Y-84709390D01*
X92620827Y-84709397D01*
X92766498Y-84769735D01*
X92766503Y-84769737D01*
X92921153Y-84800499D01*
X92921156Y-84800500D01*
X92921158Y-84800500D01*
X93078844Y-84800500D01*
X93078845Y-84800499D01*
X93233497Y-84769737D01*
X93379179Y-84709394D01*
X93510289Y-84621789D01*
X93621789Y-84510289D01*
X93709394Y-84379179D01*
X93769737Y-84233497D01*
X93800500Y-84078842D01*
X93800500Y-83921158D01*
X93800500Y-83921155D01*
X93800499Y-83921153D01*
X93777384Y-83804949D01*
X93769737Y-83766503D01*
X93735850Y-83684692D01*
X93709397Y-83620827D01*
X93709390Y-83620814D01*
X93621789Y-83489711D01*
X93621786Y-83489707D01*
X93510292Y-83378213D01*
X93510288Y-83378210D01*
X93379185Y-83290609D01*
X93379172Y-83290602D01*
X93233501Y-83230264D01*
X93233489Y-83230261D01*
X93078845Y-83199500D01*
X93078842Y-83199500D01*
X92921158Y-83199500D01*
X92921155Y-83199500D01*
X92766510Y-83230261D01*
X92766498Y-83230264D01*
X92620827Y-83290602D01*
X92620814Y-83290609D01*
X92489711Y-83378210D01*
X92489707Y-83378213D01*
X92378213Y-83489707D01*
X92378210Y-83489711D01*
X92290609Y-83620814D01*
X92290602Y-83620827D01*
X92230264Y-83766498D01*
X92230261Y-83766510D01*
X92199500Y-83921153D01*
X86000500Y-83921153D01*
X86000500Y-82313713D01*
X115149500Y-82313713D01*
X115149500Y-82526286D01*
X115182753Y-82736239D01*
X115248444Y-82938414D01*
X115344951Y-83127820D01*
X115469890Y-83299786D01*
X115620213Y-83450109D01*
X115792182Y-83575050D01*
X115800946Y-83579516D01*
X115851742Y-83627491D01*
X115868536Y-83695312D01*
X115845998Y-83761447D01*
X115800946Y-83800484D01*
X115792182Y-83804949D01*
X115620213Y-83929890D01*
X115469890Y-84080213D01*
X115344951Y-84252179D01*
X115248444Y-84441585D01*
X115182753Y-84643760D01*
X115149500Y-84853713D01*
X115149500Y-85066286D01*
X115175471Y-85230264D01*
X115182754Y-85276243D01*
X115215886Y-85378213D01*
X115248444Y-85478414D01*
X115344951Y-85667820D01*
X115469890Y-85839786D01*
X115620213Y-85990109D01*
X115792182Y-86115050D01*
X115800946Y-86119516D01*
X115851742Y-86167491D01*
X115868536Y-86235312D01*
X115845998Y-86301447D01*
X115800946Y-86340484D01*
X115792182Y-86344949D01*
X115620213Y-86469890D01*
X115469890Y-86620213D01*
X115344951Y-86792179D01*
X115248444Y-86981585D01*
X115182753Y-87183760D01*
X115165830Y-87290609D01*
X115149500Y-87393713D01*
X115149500Y-87606287D01*
X115182754Y-87816243D01*
X115246943Y-88013797D01*
X115248444Y-88018414D01*
X115344951Y-88207820D01*
X115469890Y-88379786D01*
X115620213Y-88530109D01*
X115792182Y-88655050D01*
X115800946Y-88659516D01*
X115851742Y-88707491D01*
X115868536Y-88775312D01*
X115845998Y-88841447D01*
X115800946Y-88880484D01*
X115792182Y-88884949D01*
X115620213Y-89009890D01*
X115469890Y-89160213D01*
X115344951Y-89332179D01*
X115248444Y-89521585D01*
X115182753Y-89723760D01*
X115149500Y-89933713D01*
X115149500Y-90146286D01*
X115175111Y-90307991D01*
X115182754Y-90356243D01*
X115240937Y-90535312D01*
X115248444Y-90558414D01*
X115344951Y-90747820D01*
X115469890Y-90919786D01*
X115620213Y-91070109D01*
X115792182Y-91195050D01*
X115800946Y-91199516D01*
X115851742Y-91247491D01*
X115868536Y-91315312D01*
X115845998Y-91381447D01*
X115800946Y-91420484D01*
X115792182Y-91424949D01*
X115620213Y-91549890D01*
X115469890Y-91700213D01*
X115344951Y-91872179D01*
X115248444Y-92061585D01*
X115182753Y-92263760D01*
X115149500Y-92473713D01*
X115149500Y-92686286D01*
X115172278Y-92830104D01*
X115182754Y-92896243D01*
X115240937Y-93075312D01*
X115248444Y-93098414D01*
X115344951Y-93287820D01*
X115469890Y-93459786D01*
X115620213Y-93610109D01*
X115792182Y-93735050D01*
X115800946Y-93739516D01*
X115851742Y-93787491D01*
X115868536Y-93855312D01*
X115845998Y-93921447D01*
X115800946Y-93960484D01*
X115792182Y-93964949D01*
X115620213Y-94089890D01*
X115469890Y-94240213D01*
X115344951Y-94412179D01*
X115248444Y-94601585D01*
X115182753Y-94803760D01*
X115149500Y-95013713D01*
X115149500Y-95226286D01*
X115172278Y-95370104D01*
X115182754Y-95436243D01*
X115245001Y-95627820D01*
X115248444Y-95638414D01*
X115344951Y-95827820D01*
X115469890Y-95999786D01*
X115620213Y-96150109D01*
X115792182Y-96275050D01*
X115800946Y-96279516D01*
X115851742Y-96327491D01*
X115868536Y-96395312D01*
X115845998Y-96461447D01*
X115800946Y-96500484D01*
X115792182Y-96504949D01*
X115620213Y-96629890D01*
X115469890Y-96780213D01*
X115344951Y-96952179D01*
X115248444Y-97141585D01*
X115182753Y-97343760D01*
X115181177Y-97353713D01*
X115149500Y-97553713D01*
X115149500Y-97766287D01*
X115158413Y-97822559D01*
X115172278Y-97910104D01*
X115182754Y-97976243D01*
X115245001Y-98167820D01*
X115248444Y-98178414D01*
X115344951Y-98367820D01*
X115469890Y-98539786D01*
X115583430Y-98653326D01*
X115616915Y-98714649D01*
X115611931Y-98784341D01*
X115570059Y-98840274D01*
X115539083Y-98857189D01*
X115407669Y-98906203D01*
X115407664Y-98906206D01*
X115292455Y-98992452D01*
X115292452Y-98992455D01*
X115206206Y-99107664D01*
X115206202Y-99107671D01*
X115155908Y-99242517D01*
X115149675Y-99300499D01*
X115149501Y-99302123D01*
X115149500Y-99302135D01*
X115149500Y-101097870D01*
X115149501Y-101097876D01*
X115155908Y-101157483D01*
X115206202Y-101292328D01*
X115206206Y-101292335D01*
X115292452Y-101407544D01*
X115292455Y-101407547D01*
X115407664Y-101493793D01*
X115407671Y-101493797D01*
X115542517Y-101544091D01*
X115542516Y-101544091D01*
X115549444Y-101544835D01*
X115602127Y-101550500D01*
X117397872Y-101550499D01*
X117457483Y-101544091D01*
X117592331Y-101493796D01*
X117707546Y-101407546D01*
X117793796Y-101292331D01*
X117844091Y-101157483D01*
X117850500Y-101097873D01*
X117850499Y-99302128D01*
X117844091Y-99242517D01*
X117842511Y-99238282D01*
X117793797Y-99107671D01*
X117793793Y-99107664D01*
X117707547Y-98992455D01*
X117707544Y-98992452D01*
X117592335Y-98906206D01*
X117592328Y-98906202D01*
X117460917Y-98857189D01*
X117404983Y-98815318D01*
X117380566Y-98749853D01*
X117395418Y-98681580D01*
X117416563Y-98653332D01*
X117530104Y-98539792D01*
X117655051Y-98367816D01*
X117751557Y-98178412D01*
X117817246Y-97976243D01*
X117850500Y-97766287D01*
X117850500Y-97553713D01*
X117817246Y-97343757D01*
X117751557Y-97141588D01*
X117655051Y-96952184D01*
X117655049Y-96952181D01*
X117655048Y-96952179D01*
X117530109Y-96780213D01*
X117379786Y-96629890D01*
X117207820Y-96504951D01*
X117207115Y-96504591D01*
X117199054Y-96500485D01*
X117148259Y-96452512D01*
X117131463Y-96384692D01*
X117153999Y-96318556D01*
X117199054Y-96279515D01*
X117207816Y-96275051D01*
X117229789Y-96259086D01*
X117379786Y-96150109D01*
X117379788Y-96150106D01*
X117379792Y-96150104D01*
X117530104Y-95999792D01*
X117530106Y-95999788D01*
X117530109Y-95999786D01*
X117655048Y-95827820D01*
X117655047Y-95827820D01*
X117655051Y-95827816D01*
X117751557Y-95638412D01*
X117817246Y-95436243D01*
X117850500Y-95226287D01*
X117850500Y-95013713D01*
X117817246Y-94803757D01*
X117751557Y-94601588D01*
X117655051Y-94412184D01*
X117655049Y-94412181D01*
X117655048Y-94412179D01*
X117530109Y-94240213D01*
X117379786Y-94089890D01*
X117207820Y-93964951D01*
X117207115Y-93964591D01*
X117199054Y-93960485D01*
X117148259Y-93912512D01*
X117131463Y-93844692D01*
X117153999Y-93778556D01*
X117199054Y-93739515D01*
X117207816Y-93735051D01*
X117229789Y-93719086D01*
X117379786Y-93610109D01*
X117379788Y-93610106D01*
X117379792Y-93610104D01*
X117530104Y-93459792D01*
X117530106Y-93459788D01*
X117530109Y-93459786D01*
X117655048Y-93287820D01*
X117655047Y-93287820D01*
X117655051Y-93287816D01*
X117751557Y-93098412D01*
X117817246Y-92896243D01*
X117850500Y-92686287D01*
X117850500Y-92473713D01*
X117817246Y-92263757D01*
X117751557Y-92061588D01*
X117655051Y-91872184D01*
X117655049Y-91872181D01*
X117655048Y-91872179D01*
X117530109Y-91700213D01*
X117379786Y-91549890D01*
X117207820Y-91424951D01*
X117207115Y-91424591D01*
X117199054Y-91420485D01*
X117148259Y-91372512D01*
X117131463Y-91304692D01*
X117153999Y-91238556D01*
X117199054Y-91199515D01*
X117207816Y-91195051D01*
X117229789Y-91179086D01*
X117379786Y-91070109D01*
X117379788Y-91070106D01*
X117379792Y-91070104D01*
X117530104Y-90919792D01*
X117530106Y-90919788D01*
X117530109Y-90919786D01*
X117655048Y-90747820D01*
X117655047Y-90747820D01*
X117655051Y-90747816D01*
X117751557Y-90558412D01*
X117817246Y-90356243D01*
X117850500Y-90146287D01*
X117850500Y-89933713D01*
X117817246Y-89723757D01*
X117751557Y-89521588D01*
X117655051Y-89332184D01*
X117655049Y-89332181D01*
X117655048Y-89332179D01*
X117530109Y-89160213D01*
X117379786Y-89009890D01*
X117207820Y-88884951D01*
X117200664Y-88881305D01*
X117199054Y-88880485D01*
X117148259Y-88832512D01*
X117131463Y-88764692D01*
X117153999Y-88698556D01*
X117199054Y-88659515D01*
X117207816Y-88655051D01*
X117330647Y-88565810D01*
X117379786Y-88530109D01*
X117379788Y-88530106D01*
X117379792Y-88530104D01*
X117530104Y-88379792D01*
X117530106Y-88379788D01*
X117530109Y-88379786D01*
X117655048Y-88207820D01*
X117655047Y-88207820D01*
X117655051Y-88207816D01*
X117751557Y-88018412D01*
X117817246Y-87816243D01*
X117850500Y-87606287D01*
X117850500Y-87393713D01*
X117817246Y-87183757D01*
X117751557Y-86981588D01*
X117655051Y-86792184D01*
X117655049Y-86792181D01*
X117655048Y-86792179D01*
X117530109Y-86620213D01*
X117379786Y-86469890D01*
X117207820Y-86344951D01*
X117207115Y-86344591D01*
X117199054Y-86340485D01*
X117148259Y-86292512D01*
X117131463Y-86224692D01*
X117153999Y-86158556D01*
X117199054Y-86119515D01*
X117207816Y-86115051D01*
X117257654Y-86078842D01*
X117379786Y-85990109D01*
X117379788Y-85990106D01*
X117379792Y-85990104D01*
X117530104Y-85839792D01*
X117530106Y-85839788D01*
X117530109Y-85839786D01*
X117655048Y-85667820D01*
X117655047Y-85667820D01*
X117655051Y-85667816D01*
X117751557Y-85478412D01*
X117817246Y-85276243D01*
X117850500Y-85066287D01*
X117850500Y-84853713D01*
X117817246Y-84643757D01*
X117751557Y-84441588D01*
X117655051Y-84252184D01*
X117655049Y-84252181D01*
X117655048Y-84252179D01*
X117530109Y-84080213D01*
X117379786Y-83929890D01*
X117207820Y-83804951D01*
X117207115Y-83804591D01*
X117199054Y-83800485D01*
X117148259Y-83752512D01*
X117131463Y-83684692D01*
X117153999Y-83618556D01*
X117199054Y-83579515D01*
X117207816Y-83575051D01*
X117229789Y-83559086D01*
X117379786Y-83450109D01*
X117379788Y-83450106D01*
X117379792Y-83450104D01*
X117530104Y-83299792D01*
X117530106Y-83299788D01*
X117530109Y-83299786D01*
X117655048Y-83127820D01*
X117655047Y-83127820D01*
X117655051Y-83127816D01*
X117751557Y-82938412D01*
X117817246Y-82736243D01*
X117850500Y-82526287D01*
X117850500Y-82313713D01*
X117817246Y-82103757D01*
X117751557Y-81901588D01*
X117655051Y-81712184D01*
X117655049Y-81712181D01*
X117655048Y-81712179D01*
X117530109Y-81540213D01*
X117379786Y-81389890D01*
X117207820Y-81264951D01*
X117018414Y-81168444D01*
X117018413Y-81168443D01*
X117018412Y-81168443D01*
X116816243Y-81102754D01*
X116816241Y-81102753D01*
X116816240Y-81102753D01*
X116654957Y-81077208D01*
X116606287Y-81069500D01*
X116393713Y-81069500D01*
X116345042Y-81077208D01*
X116183760Y-81102753D01*
X115981585Y-81168444D01*
X115792179Y-81264951D01*
X115620213Y-81389890D01*
X115469890Y-81540213D01*
X115344951Y-81712179D01*
X115248444Y-81901585D01*
X115182753Y-82103760D01*
X115149500Y-82313713D01*
X86000500Y-82313713D01*
X86000500Y-68421153D01*
X93699500Y-68421153D01*
X93699500Y-68578846D01*
X93730261Y-68733489D01*
X93730264Y-68733501D01*
X93790602Y-68879172D01*
X93790609Y-68879185D01*
X93878210Y-69010288D01*
X93878213Y-69010292D01*
X93989707Y-69121786D01*
X93989711Y-69121789D01*
X94120814Y-69209390D01*
X94120827Y-69209397D01*
X94266498Y-69269735D01*
X94266503Y-69269737D01*
X94421153Y-69300499D01*
X94421156Y-69300500D01*
X94421158Y-69300500D01*
X94578844Y-69300500D01*
X94578845Y-69300499D01*
X94733497Y-69269737D01*
X94879179Y-69209394D01*
X95010289Y-69121789D01*
X95121789Y-69010289D01*
X95209394Y-68879179D01*
X95269737Y-68733497D01*
X95300500Y-68578842D01*
X95300500Y-68421158D01*
X95300500Y-68421155D01*
X95300499Y-68421153D01*
X108699500Y-68421153D01*
X108699500Y-68578846D01*
X108730261Y-68733489D01*
X108730264Y-68733501D01*
X108790602Y-68879172D01*
X108790609Y-68879185D01*
X108878210Y-69010288D01*
X108878213Y-69010292D01*
X108989707Y-69121786D01*
X108989711Y-69121789D01*
X109120814Y-69209390D01*
X109120827Y-69209397D01*
X109266498Y-69269735D01*
X109266503Y-69269737D01*
X109421153Y-69300499D01*
X109421156Y-69300500D01*
X109421158Y-69300500D01*
X109578844Y-69300500D01*
X109578845Y-69300499D01*
X109733497Y-69269737D01*
X109879179Y-69209394D01*
X110010289Y-69121789D01*
X110121789Y-69010289D01*
X110209394Y-68879179D01*
X110269737Y-68733497D01*
X110300500Y-68578842D01*
X110300500Y-68421158D01*
X110300500Y-68421155D01*
X110300499Y-68421153D01*
X110288260Y-68359624D01*
X110269737Y-68266503D01*
X110269735Y-68266498D01*
X110209397Y-68120827D01*
X110209390Y-68120814D01*
X110121789Y-67989711D01*
X110121786Y-67989707D01*
X110010292Y-67878213D01*
X110010288Y-67878210D01*
X109879185Y-67790609D01*
X109879172Y-67790602D01*
X109733501Y-67730264D01*
X109733489Y-67730261D01*
X109578845Y-67699500D01*
X109578842Y-67699500D01*
X109421158Y-67699500D01*
X109421155Y-67699500D01*
X109266510Y-67730261D01*
X109266498Y-67730264D01*
X109120827Y-67790602D01*
X109120814Y-67790609D01*
X108989711Y-67878210D01*
X108989707Y-67878213D01*
X108878213Y-67989707D01*
X108878210Y-67989711D01*
X108790609Y-68120814D01*
X108790602Y-68120827D01*
X108730264Y-68266498D01*
X108730261Y-68266510D01*
X108699500Y-68421153D01*
X95300499Y-68421153D01*
X95288260Y-68359624D01*
X95269737Y-68266503D01*
X95269735Y-68266498D01*
X95209397Y-68120827D01*
X95209390Y-68120814D01*
X95121789Y-67989711D01*
X95121786Y-67989707D01*
X95010292Y-67878213D01*
X95010288Y-67878210D01*
X94879185Y-67790609D01*
X94879172Y-67790602D01*
X94733501Y-67730264D01*
X94733489Y-67730261D01*
X94578845Y-67699500D01*
X94578842Y-67699500D01*
X94421158Y-67699500D01*
X94421155Y-67699500D01*
X94266510Y-67730261D01*
X94266498Y-67730264D01*
X94120827Y-67790602D01*
X94120814Y-67790609D01*
X93989711Y-67878210D01*
X93989707Y-67878213D01*
X93878213Y-67989707D01*
X93878210Y-67989711D01*
X93790609Y-68120814D01*
X93790602Y-68120827D01*
X93730264Y-68266498D01*
X93730261Y-68266510D01*
X93699500Y-68421153D01*
X86000500Y-68421153D01*
X86000500Y-65624500D01*
X86020185Y-65557461D01*
X86072989Y-65511706D01*
X86124500Y-65500500D01*
X101154866Y-65500500D01*
X101221905Y-65520185D01*
G37*
%TD.AperFunction*%
%TD*%
M02*
