%TF.GenerationSoftware,KiCad,Pcbnew,10.0.4*%
%TF.CreationDate,2026-07-13T13:41:14+02:00*%
%TF.ProjectId,Tempmeasurementthingiemajig,54656d70-6d65-4617-9375-72656d656e74,rev?*%
%TF.SameCoordinates,Original*%
%TF.FileFunction,Copper,L2,Inr*%
%TF.FilePolarity,Positive*%
%FSLAX46Y46*%
G04 Gerber Fmt 4.6, Leading zero omitted, Abs format (unit mm)*
G04 Created by KiCad (PCBNEW 10.0.4) date 2026-07-13 13:41:14*
%MOMM*%
%LPD*%
G01*
G04 APERTURE LIST*
%TA.AperFunction,ComponentPad*%
%ADD10R,1.700000X1.700000*%
%TD*%
%TA.AperFunction,ComponentPad*%
%ADD11C,1.700000*%
%TD*%
%TA.AperFunction,ViaPad*%
%ADD12C,0.600000*%
%TD*%
G04 APERTURE END LIST*
D10*
%TO.N,GND*%
%TO.C,J6*%
X114295000Y-67205000D03*
D11*
%TO.N,+3.3V*%
X116835000Y-67205000D03*
%TD*%
D10*
%TO.N,Net-(J5-Pin_1)*%
%TO.C,J5*%
X88000000Y-108105000D03*
D11*
%TO.N,Net-(J5-Pin_2)*%
X88000000Y-110645000D03*
%TD*%
D10*
%TO.N,LED_Anode*%
%TO.C,J4*%
X88000000Y-86720000D03*
D11*
%TO.N,GND*%
X88000000Y-89260000D03*
%TO.N,Net-(J4-Pin_3)*%
X88000000Y-91800000D03*
%TO.N,unconnected-(J4-Pin_4-Pad4)*%
X88000000Y-94340000D03*
X88000000Y-96880000D03*
%TO.N,+3.3V*%
X88000000Y-99420000D03*
%TO.N,GND*%
X88000000Y-101960000D03*
%TO.N,Net-(J4-Pin_8)*%
X88000000Y-104500000D03*
%TD*%
D10*
%TO.N,Net-(J3-Pin_1)*%
%TO.C,J3*%
X116500000Y-100200000D03*
D11*
%TO.N,MCU_SDA*%
X116500000Y-97660000D03*
%TO.N,MCU_SCL*%
X116500000Y-95120000D03*
%TO.N,Net-(J3-Pin_4)*%
X116500000Y-92580000D03*
%TO.N,Net-(J3-Pin_5)*%
X116500000Y-90040000D03*
%TO.N,Net-(J3-Pin_6)*%
X116500000Y-87500000D03*
%TO.N,Net-(J3-Pin_7)*%
X116500000Y-84960000D03*
%TO.N,Net-(J3-Pin_8)*%
X116500000Y-82420000D03*
%TD*%
D10*
%TO.N,+3.3V*%
%TO.C,J1*%
X108190000Y-104000000D03*
D11*
%TO.N,RF_Data*%
X110730000Y-104000000D03*
%TO.N,RF_CLK*%
X113270000Y-104000000D03*
%TO.N,GND*%
X115810000Y-104000000D03*
%TD*%
D10*
%TO.N,MCU_SWIO*%
%TO.C,J2*%
X97000000Y-105080000D03*
D11*
%TO.N,GND*%
X97000000Y-102540000D03*
%TO.N,+3.3V*%
X97000000Y-100000000D03*
%TO.N,MCU_RX*%
X97000000Y-97460000D03*
%TO.N,MCU_TX*%
X97000000Y-94920000D03*
%TD*%
D12*
%TO.N,+3.3V*%
X112500000Y-93000000D03*
X89000000Y-71500000D03*
X102015384Y-91269001D03*
X115000000Y-71500000D03*
X109000000Y-96000000D03*
X107000000Y-106000000D03*
X104000000Y-104000000D03*
X106000000Y-97500000D03*
%TO.N,GND*%
X102500000Y-90000000D03*
X99000000Y-104000000D03*
X113000000Y-101000000D03*
X109500000Y-68500000D03*
X94500000Y-68500000D03*
X93000000Y-84000000D03*
X109000000Y-95000000D03*
X113000000Y-110000000D03*
X102000000Y-66000000D03*
X103000000Y-98500000D03*
X108000000Y-99000000D03*
%TO.N,RF_CLK*%
X114000000Y-102000000D03*
X102000000Y-86000000D03*
X101500000Y-101500000D03*
%TO.N,RF_Data*%
X107500000Y-86000000D03*
X102015384Y-98500000D03*
%TO.N,Net-(J3-Pin_1)*%
X99000000Y-92000000D03*
%TO.N,MCU_SCL*%
X104500000Y-94100000D03*
%TO.N,MCU_SDA*%
X106500000Y-94100000D03*
%TO.N,Net-(J4-Pin_3)*%
X90000000Y-91500000D03*
X105000000Y-86000000D03*
%TO.N,LED_Anode*%
X96000000Y-89000000D03*
X99599999Y-90725441D03*
%TO.N,Net-(J4-Pin_8)*%
X99000000Y-88000000D03*
%TO.N,Net-(J5-Pin_2)*%
X99000000Y-89598599D03*
X97400000Y-89500000D03*
%TO.N,Net-(J5-Pin_1)*%
X97170345Y-88600000D03*
X99033542Y-88799300D03*
%TD*%
%TA.AperFunction,Conductor*%
%TO.N,GND*%
G36*
X118442539Y-65520185D02*
G01*
X118488294Y-65572989D01*
X118499500Y-65624500D01*
X118499500Y-110876000D01*
X118479815Y-110943039D01*
X118427011Y-110988794D01*
X118375500Y-111000000D01*
X99000000Y-111000000D01*
X99000000Y-115875500D01*
X98980315Y-115942539D01*
X98927511Y-115988294D01*
X98876000Y-115999500D01*
X86124500Y-115999500D01*
X86057461Y-115979815D01*
X86011706Y-115927011D01*
X86000500Y-115875500D01*
X86000500Y-107207135D01*
X86649500Y-107207135D01*
X86649500Y-109002870D01*
X86649501Y-109002876D01*
X86655908Y-109062483D01*
X86706202Y-109197328D01*
X86706206Y-109197335D01*
X86792452Y-109312544D01*
X86792455Y-109312547D01*
X86907664Y-109398793D01*
X86907671Y-109398797D01*
X87039082Y-109447810D01*
X87095016Y-109489681D01*
X87119433Y-109555145D01*
X87104582Y-109623418D01*
X87083431Y-109651673D01*
X86969889Y-109765215D01*
X86844951Y-109937179D01*
X86748444Y-110126585D01*
X86682753Y-110328760D01*
X86649500Y-110538713D01*
X86649500Y-110751286D01*
X86682753Y-110961239D01*
X86748444Y-111163414D01*
X86844951Y-111352820D01*
X86969890Y-111524786D01*
X87120213Y-111675109D01*
X87292179Y-111800048D01*
X87292181Y-111800049D01*
X87292184Y-111800051D01*
X87481588Y-111896557D01*
X87683757Y-111962246D01*
X87893713Y-111995500D01*
X87893714Y-111995500D01*
X88106286Y-111995500D01*
X88106287Y-111995500D01*
X88316243Y-111962246D01*
X88518412Y-111896557D01*
X88707816Y-111800051D01*
X88729789Y-111784086D01*
X88879786Y-111675109D01*
X88879788Y-111675106D01*
X88879792Y-111675104D01*
X89030104Y-111524792D01*
X89030106Y-111524788D01*
X89030109Y-111524786D01*
X89155048Y-111352820D01*
X89155047Y-111352820D01*
X89155051Y-111352816D01*
X89251557Y-111163412D01*
X89317246Y-110961243D01*
X89350500Y-110751287D01*
X89350500Y-110538713D01*
X89317246Y-110328757D01*
X89251557Y-110126588D01*
X89155051Y-109937184D01*
X89155049Y-109937181D01*
X89155048Y-109937179D01*
X89030109Y-109765213D01*
X88916569Y-109651673D01*
X88883084Y-109590350D01*
X88888068Y-109520658D01*
X88929940Y-109464725D01*
X88960915Y-109447810D01*
X89092331Y-109398796D01*
X89207546Y-109312546D01*
X89293796Y-109197331D01*
X89344091Y-109062483D01*
X89350500Y-109002873D01*
X89350499Y-107207128D01*
X89344091Y-107147517D01*
X89293796Y-107012669D01*
X89293795Y-107012668D01*
X89293793Y-107012664D01*
X89207547Y-106897455D01*
X89207544Y-106897452D01*
X89092335Y-106811206D01*
X89092328Y-106811202D01*
X88957482Y-106760908D01*
X88957483Y-106760908D01*
X88897883Y-106754501D01*
X88897881Y-106754500D01*
X88897873Y-106754500D01*
X88897864Y-106754500D01*
X87102129Y-106754500D01*
X87102123Y-106754501D01*
X87042516Y-106760908D01*
X86907671Y-106811202D01*
X86907664Y-106811206D01*
X86792455Y-106897452D01*
X86792452Y-106897455D01*
X86706206Y-107012664D01*
X86706202Y-107012671D01*
X86655908Y-107147517D01*
X86649501Y-107207116D01*
X86649501Y-107207123D01*
X86649500Y-107207135D01*
X86000500Y-107207135D01*
X86000500Y-85822135D01*
X86649500Y-85822135D01*
X86649500Y-87617870D01*
X86649501Y-87617876D01*
X86655908Y-87677483D01*
X86706202Y-87812328D01*
X86706206Y-87812335D01*
X86792452Y-87927544D01*
X86792455Y-87927547D01*
X86907664Y-88013793D01*
X86907671Y-88013797D01*
X86952618Y-88030561D01*
X87042517Y-88064091D01*
X87102127Y-88070500D01*
X87112685Y-88070499D01*
X87179723Y-88090179D01*
X87200372Y-88106818D01*
X87870591Y-88777037D01*
X87807007Y-88794075D01*
X87692993Y-88859901D01*
X87599901Y-88952993D01*
X87534075Y-89067007D01*
X87517037Y-89130591D01*
X86884728Y-88498282D01*
X86884727Y-88498282D01*
X86845380Y-88552439D01*
X86748904Y-88741782D01*
X86683242Y-88943869D01*
X86683242Y-88943872D01*
X86650000Y-89153753D01*
X86650000Y-89366246D01*
X86683242Y-89576127D01*
X86683242Y-89576130D01*
X86748904Y-89778217D01*
X86845375Y-89967550D01*
X86884728Y-90021716D01*
X87517037Y-89389408D01*
X87534075Y-89452993D01*
X87599901Y-89567007D01*
X87692993Y-89660099D01*
X87807007Y-89725925D01*
X87870590Y-89742962D01*
X87238282Y-90375269D01*
X87238282Y-90375270D01*
X87292452Y-90414626D01*
X87292451Y-90414626D01*
X87301495Y-90419234D01*
X87352292Y-90467208D01*
X87369087Y-90535029D01*
X87346550Y-90601164D01*
X87301499Y-90640202D01*
X87292182Y-90644949D01*
X87120213Y-90769890D01*
X86969890Y-90920213D01*
X86844951Y-91092179D01*
X86748444Y-91281585D01*
X86748443Y-91281587D01*
X86748443Y-91281588D01*
X86727115Y-91347230D01*
X86682753Y-91483760D01*
X86649500Y-91693713D01*
X86649500Y-91906286D01*
X86676830Y-92078844D01*
X86682754Y-92116243D01*
X86739409Y-92290609D01*
X86748444Y-92318414D01*
X86844951Y-92507820D01*
X86969890Y-92679786D01*
X87120213Y-92830109D01*
X87292182Y-92955050D01*
X87300946Y-92959516D01*
X87351742Y-93007491D01*
X87368536Y-93075312D01*
X87345998Y-93141447D01*
X87300946Y-93180484D01*
X87292182Y-93184949D01*
X87120213Y-93309890D01*
X86969890Y-93460213D01*
X86844951Y-93632179D01*
X86748444Y-93821585D01*
X86682753Y-94023760D01*
X86649500Y-94233713D01*
X86649500Y-94446286D01*
X86682753Y-94656239D01*
X86682753Y-94656241D01*
X86682754Y-94656243D01*
X86733919Y-94813713D01*
X86748444Y-94858414D01*
X86844951Y-95047820D01*
X86969890Y-95219786D01*
X87120213Y-95370109D01*
X87292182Y-95495050D01*
X87300946Y-95499516D01*
X87351742Y-95547491D01*
X87368536Y-95615312D01*
X87345998Y-95681447D01*
X87300946Y-95720484D01*
X87292182Y-95724949D01*
X87120213Y-95849890D01*
X86969890Y-96000213D01*
X86844951Y-96172179D01*
X86748444Y-96361585D01*
X86682753Y-96563760D01*
X86661254Y-96699500D01*
X86649500Y-96773713D01*
X86649500Y-96986287D01*
X86682754Y-97196243D01*
X86733919Y-97353713D01*
X86748444Y-97398414D01*
X86844951Y-97587820D01*
X86969890Y-97759786D01*
X87120213Y-97910109D01*
X87292182Y-98035050D01*
X87300946Y-98039516D01*
X87351742Y-98087491D01*
X87368536Y-98155312D01*
X87345998Y-98221447D01*
X87300946Y-98260484D01*
X87292182Y-98264949D01*
X87120213Y-98389890D01*
X86969890Y-98540213D01*
X86844951Y-98712179D01*
X86748444Y-98901585D01*
X86748443Y-98901587D01*
X86748443Y-98901588D01*
X86746943Y-98906204D01*
X86682753Y-99103760D01*
X86660776Y-99242517D01*
X86649500Y-99313713D01*
X86649500Y-99526287D01*
X86682754Y-99736243D01*
X86733919Y-99893713D01*
X86748444Y-99938414D01*
X86844951Y-100127820D01*
X86969890Y-100299786D01*
X87120213Y-100450109D01*
X87292179Y-100575048D01*
X87292181Y-100575049D01*
X87292184Y-100575051D01*
X87301493Y-100579794D01*
X87352290Y-100627766D01*
X87369087Y-100695587D01*
X87346552Y-100761722D01*
X87301505Y-100800760D01*
X87292446Y-100805376D01*
X87292440Y-100805380D01*
X87238282Y-100844727D01*
X87238282Y-100844728D01*
X87870591Y-101477037D01*
X87807007Y-101494075D01*
X87692993Y-101559901D01*
X87599901Y-101652993D01*
X87534075Y-101767007D01*
X87517037Y-101830591D01*
X86884728Y-101198282D01*
X86884727Y-101198282D01*
X86845380Y-101252439D01*
X86748904Y-101441782D01*
X86683242Y-101643869D01*
X86683242Y-101643872D01*
X86650000Y-101853753D01*
X86650000Y-102066246D01*
X86683242Y-102276127D01*
X86683242Y-102276130D01*
X86748904Y-102478217D01*
X86845375Y-102667550D01*
X86884728Y-102721716D01*
X87517037Y-102089408D01*
X87534075Y-102152993D01*
X87599901Y-102267007D01*
X87692993Y-102360099D01*
X87807007Y-102425925D01*
X87870590Y-102442962D01*
X87238282Y-103075269D01*
X87238282Y-103075270D01*
X87292452Y-103114626D01*
X87292451Y-103114626D01*
X87301495Y-103119234D01*
X87352292Y-103167208D01*
X87369087Y-103235029D01*
X87346550Y-103301164D01*
X87301499Y-103340202D01*
X87292182Y-103344949D01*
X87120213Y-103469890D01*
X86969890Y-103620213D01*
X86844951Y-103792179D01*
X86748444Y-103981585D01*
X86682753Y-104183760D01*
X86649500Y-104393713D01*
X86649500Y-104606286D01*
X86680260Y-104800500D01*
X86682754Y-104816243D01*
X86736069Y-104980330D01*
X86748444Y-105018414D01*
X86844951Y-105207820D01*
X86969890Y-105379786D01*
X87120213Y-105530109D01*
X87292179Y-105655048D01*
X87292181Y-105655049D01*
X87292184Y-105655051D01*
X87481588Y-105751557D01*
X87683757Y-105817246D01*
X87893713Y-105850500D01*
X87893714Y-105850500D01*
X88106286Y-105850500D01*
X88106287Y-105850500D01*
X88316243Y-105817246D01*
X88518412Y-105751557D01*
X88707816Y-105655051D01*
X88754940Y-105620814D01*
X88879786Y-105530109D01*
X88879788Y-105530106D01*
X88879792Y-105530104D01*
X89030104Y-105379792D01*
X89030106Y-105379788D01*
X89030109Y-105379786D01*
X89155048Y-105207820D01*
X89155047Y-105207820D01*
X89155051Y-105207816D01*
X89251557Y-105018412D01*
X89317246Y-104816243D01*
X89350500Y-104606287D01*
X89350500Y-104393713D01*
X89317246Y-104183757D01*
X89251557Y-103981588D01*
X89155051Y-103792184D01*
X89155049Y-103792181D01*
X89155048Y-103792179D01*
X89030109Y-103620213D01*
X88879786Y-103469890D01*
X88707817Y-103344949D01*
X88698504Y-103340204D01*
X88647707Y-103292230D01*
X88630912Y-103224409D01*
X88653449Y-103158274D01*
X88698507Y-103119232D01*
X88707555Y-103114622D01*
X88761716Y-103075270D01*
X88761717Y-103075270D01*
X88129408Y-102442962D01*
X88192993Y-102425925D01*
X88307007Y-102360099D01*
X88400099Y-102267007D01*
X88465925Y-102152993D01*
X88482962Y-102089408D01*
X89115270Y-102721717D01*
X89115270Y-102721716D01*
X89154622Y-102667554D01*
X89251095Y-102478217D01*
X89279576Y-102390563D01*
X89316757Y-102276130D01*
X89316757Y-102276127D01*
X89350000Y-102066246D01*
X89350000Y-101853753D01*
X89316757Y-101643872D01*
X89316757Y-101643869D01*
X89251095Y-101441782D01*
X89154624Y-101252449D01*
X89115270Y-101198282D01*
X89115269Y-101198282D01*
X88482962Y-101830590D01*
X88465925Y-101767007D01*
X88400099Y-101652993D01*
X88307007Y-101559901D01*
X88192993Y-101494075D01*
X88129409Y-101477037D01*
X88761716Y-100844728D01*
X88707547Y-100805373D01*
X88707547Y-100805372D01*
X88698500Y-100800763D01*
X88647706Y-100752788D01*
X88630912Y-100684966D01*
X88653451Y-100618832D01*
X88698508Y-100579793D01*
X88707816Y-100575051D01*
X88787007Y-100517515D01*
X88879786Y-100450109D01*
X88879788Y-100450106D01*
X88879792Y-100450104D01*
X89030104Y-100299792D01*
X89030106Y-100299788D01*
X89030109Y-100299786D01*
X89155048Y-100127820D01*
X89155047Y-100127820D01*
X89155051Y-100127816D01*
X89251557Y-99938412D01*
X89317246Y-99736243D01*
X89350500Y-99526287D01*
X89350500Y-99313713D01*
X89317246Y-99103757D01*
X89251557Y-98901588D01*
X89155051Y-98712184D01*
X89155049Y-98712181D01*
X89155048Y-98712179D01*
X89030109Y-98540213D01*
X88879786Y-98389890D01*
X88707820Y-98264951D01*
X88707115Y-98264591D01*
X88699054Y-98260485D01*
X88648259Y-98212512D01*
X88631463Y-98144692D01*
X88653999Y-98078556D01*
X88699054Y-98039515D01*
X88707816Y-98035051D01*
X88785771Y-97978414D01*
X88879786Y-97910109D01*
X88879788Y-97910106D01*
X88879792Y-97910104D01*
X89030104Y-97759792D01*
X89030106Y-97759788D01*
X89030109Y-97759786D01*
X89155048Y-97587820D01*
X89155047Y-97587820D01*
X89155051Y-97587816D01*
X89251557Y-97398412D01*
X89317246Y-97196243D01*
X89350500Y-96986287D01*
X89350500Y-96773713D01*
X89317246Y-96563757D01*
X89251557Y-96361588D01*
X89155051Y-96172184D01*
X89155049Y-96172181D01*
X89155048Y-96172179D01*
X89030109Y-96000213D01*
X88879786Y-95849890D01*
X88707820Y-95724951D01*
X88707115Y-95724591D01*
X88699054Y-95720485D01*
X88648259Y-95672512D01*
X88631463Y-95604692D01*
X88653999Y-95538556D01*
X88699054Y-95499515D01*
X88707816Y-95495051D01*
X88785771Y-95438414D01*
X88879786Y-95370109D01*
X88879788Y-95370106D01*
X88879792Y-95370104D01*
X89030104Y-95219792D01*
X89030106Y-95219788D01*
X89030109Y-95219786D01*
X89155048Y-95047820D01*
X89155047Y-95047820D01*
X89155051Y-95047816D01*
X89251557Y-94858412D01*
X89266081Y-94813713D01*
X95649500Y-94813713D01*
X95649500Y-95026286D01*
X95681806Y-95230261D01*
X95682754Y-95236243D01*
X95747738Y-95436243D01*
X95748444Y-95438414D01*
X95844951Y-95627820D01*
X95969890Y-95799786D01*
X96120213Y-95950109D01*
X96292182Y-96075050D01*
X96300946Y-96079516D01*
X96351742Y-96127491D01*
X96368536Y-96195312D01*
X96345998Y-96261447D01*
X96300946Y-96300484D01*
X96292182Y-96304949D01*
X96120213Y-96429890D01*
X95969890Y-96580213D01*
X95844951Y-96752179D01*
X95748444Y-96941585D01*
X95682753Y-97143760D01*
X95649500Y-97353713D01*
X95649500Y-97566286D01*
X95675983Y-97733497D01*
X95682754Y-97776243D01*
X95747738Y-97976243D01*
X95748444Y-97978414D01*
X95844951Y-98167820D01*
X95969890Y-98339786D01*
X96120213Y-98490109D01*
X96292182Y-98615050D01*
X96300946Y-98619516D01*
X96351742Y-98667491D01*
X96368536Y-98735312D01*
X96345998Y-98801447D01*
X96300946Y-98840484D01*
X96292182Y-98844949D01*
X96120213Y-98969890D01*
X95969890Y-99120213D01*
X95844951Y-99292179D01*
X95748444Y-99481585D01*
X95682753Y-99683760D01*
X95674441Y-99736243D01*
X95649500Y-99893713D01*
X95649500Y-100106287D01*
X95682754Y-100316243D01*
X95726248Y-100450104D01*
X95748444Y-100518414D01*
X95844951Y-100707820D01*
X95969890Y-100879786D01*
X96120213Y-101030109D01*
X96292179Y-101155048D01*
X96292181Y-101155049D01*
X96292184Y-101155051D01*
X96301493Y-101159794D01*
X96352290Y-101207766D01*
X96369087Y-101275587D01*
X96346552Y-101341722D01*
X96301505Y-101380760D01*
X96292446Y-101385376D01*
X96292440Y-101385380D01*
X96238282Y-101424727D01*
X96238282Y-101424728D01*
X96870591Y-102057037D01*
X96807007Y-102074075D01*
X96692993Y-102139901D01*
X96599901Y-102232993D01*
X96534075Y-102347007D01*
X96517037Y-102410591D01*
X95884728Y-101778282D01*
X95884727Y-101778282D01*
X95845380Y-101832439D01*
X95748904Y-102021782D01*
X95683242Y-102223869D01*
X95683242Y-102223872D01*
X95650000Y-102433753D01*
X95650000Y-102646246D01*
X95683242Y-102856127D01*
X95683242Y-102856130D01*
X95748904Y-103058217D01*
X95845375Y-103247550D01*
X95884728Y-103301716D01*
X96517037Y-102669408D01*
X96534075Y-102732993D01*
X96599901Y-102847007D01*
X96692993Y-102940099D01*
X96807007Y-103005925D01*
X96870590Y-103022962D01*
X96200370Y-103693181D01*
X96139047Y-103726666D01*
X96112698Y-103729500D01*
X96102134Y-103729500D01*
X96102123Y-103729501D01*
X96042516Y-103735908D01*
X95907671Y-103786202D01*
X95907664Y-103786206D01*
X95792455Y-103872452D01*
X95792452Y-103872455D01*
X95706206Y-103987664D01*
X95706202Y-103987671D01*
X95655908Y-104122517D01*
X95649501Y-104182116D01*
X95649501Y-104182123D01*
X95649500Y-104182135D01*
X95649500Y-105977870D01*
X95649501Y-105977876D01*
X95655908Y-106037483D01*
X95706202Y-106172328D01*
X95706206Y-106172335D01*
X95792452Y-106287544D01*
X95792455Y-106287547D01*
X95907664Y-106373793D01*
X95907671Y-106373797D01*
X96042517Y-106424091D01*
X96042516Y-106424091D01*
X96049444Y-106424835D01*
X96102127Y-106430500D01*
X97897872Y-106430499D01*
X97957483Y-106424091D01*
X98092331Y-106373796D01*
X98207546Y-106287546D01*
X98293796Y-106172331D01*
X98344091Y-106037483D01*
X98350500Y-105977873D01*
X98350500Y-105921153D01*
X106199500Y-105921153D01*
X106199500Y-106078846D01*
X106230261Y-106233489D01*
X106230264Y-106233501D01*
X106290602Y-106379172D01*
X106290609Y-106379185D01*
X106378210Y-106510288D01*
X106378213Y-106510292D01*
X106489707Y-106621786D01*
X106489711Y-106621789D01*
X106620814Y-106709390D01*
X106620827Y-106709397D01*
X106745190Y-106760909D01*
X106766503Y-106769737D01*
X106921153Y-106800499D01*
X106921156Y-106800500D01*
X106921158Y-106800500D01*
X107078844Y-106800500D01*
X107078845Y-106800499D01*
X107233497Y-106769737D01*
X107379179Y-106709394D01*
X107510289Y-106621789D01*
X107621789Y-106510289D01*
X107709394Y-106379179D01*
X107769737Y-106233497D01*
X107800500Y-106078842D01*
X107800500Y-105921158D01*
X107800500Y-105921155D01*
X107800499Y-105921153D01*
X107769738Y-105766510D01*
X107769737Y-105766503D01*
X107763545Y-105751555D01*
X107709397Y-105620827D01*
X107709390Y-105620814D01*
X107657657Y-105543390D01*
X107636779Y-105476712D01*
X107655264Y-105409332D01*
X107707243Y-105362642D01*
X107760759Y-105350499D01*
X109087871Y-105350499D01*
X109087872Y-105350499D01*
X109147483Y-105344091D01*
X109282331Y-105293796D01*
X109397546Y-105207546D01*
X109483796Y-105092331D01*
X109532810Y-104960916D01*
X109574681Y-104904984D01*
X109640145Y-104880566D01*
X109708418Y-104895417D01*
X109736673Y-104916569D01*
X109850213Y-105030109D01*
X110022179Y-105155048D01*
X110022181Y-105155049D01*
X110022184Y-105155051D01*
X110211588Y-105251557D01*
X110413757Y-105317246D01*
X110623713Y-105350500D01*
X110623714Y-105350500D01*
X110836286Y-105350500D01*
X110836287Y-105350500D01*
X111046243Y-105317246D01*
X111248412Y-105251557D01*
X111437816Y-105155051D01*
X111524138Y-105092335D01*
X111609786Y-105030109D01*
X111609788Y-105030106D01*
X111609792Y-105030104D01*
X111760104Y-104879792D01*
X111760106Y-104879788D01*
X111760109Y-104879786D01*
X111883902Y-104709397D01*
X111885051Y-104707816D01*
X111889514Y-104699054D01*
X111937488Y-104648259D01*
X112005308Y-104631463D01*
X112071444Y-104653999D01*
X112110486Y-104699056D01*
X112114951Y-104707820D01*
X112239890Y-104879786D01*
X112390213Y-105030109D01*
X112562179Y-105155048D01*
X112562181Y-105155049D01*
X112562184Y-105155051D01*
X112751588Y-105251557D01*
X112953757Y-105317246D01*
X113163713Y-105350500D01*
X113163714Y-105350500D01*
X113376286Y-105350500D01*
X113376287Y-105350500D01*
X113586243Y-105317246D01*
X113788412Y-105251557D01*
X113977816Y-105155051D01*
X114064138Y-105092335D01*
X114149786Y-105030109D01*
X114149788Y-105030106D01*
X114149792Y-105030104D01*
X114300104Y-104879792D01*
X114300106Y-104879788D01*
X114300109Y-104879786D01*
X114380063Y-104769737D01*
X114425051Y-104707816D01*
X114429793Y-104698508D01*
X114477763Y-104647711D01*
X114545583Y-104630911D01*
X114611719Y-104653445D01*
X114650763Y-104698500D01*
X114655373Y-104707547D01*
X114694728Y-104761716D01*
X115327037Y-104129408D01*
X115344075Y-104192993D01*
X115409901Y-104307007D01*
X115502993Y-104400099D01*
X115617007Y-104465925D01*
X115680590Y-104482962D01*
X115048282Y-105115269D01*
X115048282Y-105115270D01*
X115102449Y-105154624D01*
X115291782Y-105251095D01*
X115493870Y-105316757D01*
X115703754Y-105350000D01*
X115916246Y-105350000D01*
X116126127Y-105316757D01*
X116126130Y-105316757D01*
X116328217Y-105251095D01*
X116517554Y-105154622D01*
X116571716Y-105115270D01*
X116571717Y-105115270D01*
X115939408Y-104482962D01*
X116002993Y-104465925D01*
X116117007Y-104400099D01*
X116210099Y-104307007D01*
X116275925Y-104192993D01*
X116292962Y-104129409D01*
X116925270Y-104761717D01*
X116925270Y-104761716D01*
X116964622Y-104707554D01*
X117061095Y-104518217D01*
X117126757Y-104316130D01*
X117126757Y-104316127D01*
X117160000Y-104106246D01*
X117160000Y-103893753D01*
X117126757Y-103683872D01*
X117126757Y-103683869D01*
X117061095Y-103481782D01*
X116964624Y-103292449D01*
X116925270Y-103238282D01*
X116925269Y-103238282D01*
X116292962Y-103870590D01*
X116275925Y-103807007D01*
X116210099Y-103692993D01*
X116117007Y-103599901D01*
X116002993Y-103534075D01*
X115939409Y-103517037D01*
X116571716Y-102884728D01*
X116517550Y-102845375D01*
X116328217Y-102748904D01*
X116126129Y-102683242D01*
X115916246Y-102650000D01*
X115703754Y-102650000D01*
X115493872Y-102683242D01*
X115493869Y-102683242D01*
X115291782Y-102748904D01*
X115102439Y-102845380D01*
X115048282Y-102884727D01*
X115048282Y-102884728D01*
X115680591Y-103517037D01*
X115617007Y-103534075D01*
X115502993Y-103599901D01*
X115409901Y-103692993D01*
X115344075Y-103807007D01*
X115327037Y-103870591D01*
X114694728Y-103238282D01*
X114694727Y-103238282D01*
X114655380Y-103292440D01*
X114655376Y-103292446D01*
X114650760Y-103301505D01*
X114602781Y-103352297D01*
X114534959Y-103369087D01*
X114468826Y-103346543D01*
X114429794Y-103301493D01*
X114425051Y-103292184D01*
X114425049Y-103292181D01*
X114425048Y-103292179D01*
X114300109Y-103120213D01*
X114160769Y-102980873D01*
X114127284Y-102919550D01*
X114132268Y-102849858D01*
X114174140Y-102793925D01*
X114224259Y-102771575D01*
X114228171Y-102770796D01*
X114233497Y-102769737D01*
X114379179Y-102709394D01*
X114510289Y-102621789D01*
X114621789Y-102510289D01*
X114709394Y-102379179D01*
X114769737Y-102233497D01*
X114800500Y-102078842D01*
X114800500Y-101921158D01*
X114800500Y-101921155D01*
X114800499Y-101921153D01*
X114769737Y-101766503D01*
X114718941Y-101643869D01*
X114709397Y-101620827D01*
X114709390Y-101620814D01*
X114621789Y-101489711D01*
X114621786Y-101489707D01*
X114510292Y-101378213D01*
X114510288Y-101378210D01*
X114379185Y-101290609D01*
X114379172Y-101290602D01*
X114233501Y-101230264D01*
X114233489Y-101230261D01*
X114078845Y-101199500D01*
X114078842Y-101199500D01*
X113921158Y-101199500D01*
X113921155Y-101199500D01*
X113766510Y-101230261D01*
X113766498Y-101230264D01*
X113620827Y-101290602D01*
X113620814Y-101290609D01*
X113489711Y-101378210D01*
X113489707Y-101378213D01*
X113378213Y-101489707D01*
X113378210Y-101489711D01*
X113290609Y-101620814D01*
X113290602Y-101620827D01*
X113230264Y-101766498D01*
X113230261Y-101766510D01*
X113199500Y-101921153D01*
X113199500Y-102078846D01*
X113230261Y-102233489D01*
X113230264Y-102233501D01*
X113290602Y-102379172D01*
X113290609Y-102379184D01*
X113342343Y-102456609D01*
X113363221Y-102523286D01*
X113344737Y-102590666D01*
X113292758Y-102637357D01*
X113239241Y-102649500D01*
X113163713Y-102649500D01*
X113115042Y-102657208D01*
X112953760Y-102682753D01*
X112751585Y-102748444D01*
X112562179Y-102844951D01*
X112390213Y-102969890D01*
X112239890Y-103120213D01*
X112114949Y-103292182D01*
X112110484Y-103300946D01*
X112062509Y-103351742D01*
X111994688Y-103368536D01*
X111928553Y-103345998D01*
X111889516Y-103300946D01*
X111885050Y-103292182D01*
X111760109Y-103120213D01*
X111609786Y-102969890D01*
X111437820Y-102844951D01*
X111248414Y-102748444D01*
X111248413Y-102748443D01*
X111248412Y-102748443D01*
X111046243Y-102682754D01*
X111046241Y-102682753D01*
X111046240Y-102682753D01*
X110884957Y-102657208D01*
X110836287Y-102649500D01*
X110623713Y-102649500D01*
X110575042Y-102657208D01*
X110413760Y-102682753D01*
X110211585Y-102748444D01*
X110022179Y-102844951D01*
X109850215Y-102969889D01*
X109736673Y-103083431D01*
X109675350Y-103116915D01*
X109605658Y-103111931D01*
X109549725Y-103070059D01*
X109532810Y-103039082D01*
X109483797Y-102907671D01*
X109483793Y-102907664D01*
X109397547Y-102792455D01*
X109397544Y-102792452D01*
X109282335Y-102706206D01*
X109282328Y-102706202D01*
X109147482Y-102655908D01*
X109147483Y-102655908D01*
X109087883Y-102649501D01*
X109087881Y-102649500D01*
X109087873Y-102649500D01*
X109087864Y-102649500D01*
X107292129Y-102649500D01*
X107292123Y-102649501D01*
X107232516Y-102655908D01*
X107097671Y-102706202D01*
X107097664Y-102706206D01*
X106982455Y-102792452D01*
X106982452Y-102792455D01*
X106896206Y-102907664D01*
X106896202Y-102907671D01*
X106845908Y-103042517D01*
X106839501Y-103102116D01*
X106839500Y-103102135D01*
X106839500Y-104897870D01*
X106839501Y-104897876D01*
X106845909Y-104957484D01*
X106884217Y-105060196D01*
X106889201Y-105129887D01*
X106855715Y-105191210D01*
X106794392Y-105224695D01*
X106792229Y-105225145D01*
X106766506Y-105230262D01*
X106766498Y-105230264D01*
X106620827Y-105290602D01*
X106620814Y-105290609D01*
X106489711Y-105378210D01*
X106489707Y-105378213D01*
X106378213Y-105489707D01*
X106378210Y-105489711D01*
X106290609Y-105620814D01*
X106290602Y-105620827D01*
X106230264Y-105766498D01*
X106230261Y-105766510D01*
X106199500Y-105921153D01*
X98350500Y-105921153D01*
X98350499Y-105060196D01*
X98350499Y-104182129D01*
X98350498Y-104182123D01*
X98350497Y-104182116D01*
X98344091Y-104122517D01*
X98338022Y-104106246D01*
X98293797Y-103987671D01*
X98293794Y-103987665D01*
X98244002Y-103921153D01*
X103199500Y-103921153D01*
X103199500Y-104078846D01*
X103230261Y-104233489D01*
X103230264Y-104233501D01*
X103290602Y-104379172D01*
X103290609Y-104379185D01*
X103378210Y-104510288D01*
X103378213Y-104510292D01*
X103489707Y-104621786D01*
X103489711Y-104621789D01*
X103620814Y-104709390D01*
X103620827Y-104709397D01*
X103747138Y-104761716D01*
X103766503Y-104769737D01*
X103921153Y-104800499D01*
X103921156Y-104800500D01*
X103921158Y-104800500D01*
X104078844Y-104800500D01*
X104078845Y-104800499D01*
X104233497Y-104769737D01*
X104379179Y-104709394D01*
X104510289Y-104621789D01*
X104621789Y-104510289D01*
X104709394Y-104379179D01*
X104769737Y-104233497D01*
X104800500Y-104078842D01*
X104800500Y-103921158D01*
X104800500Y-103921155D01*
X104800499Y-103921153D01*
X104773656Y-103786206D01*
X104769737Y-103766503D01*
X104757064Y-103735908D01*
X104709397Y-103620827D01*
X104709390Y-103620814D01*
X104621789Y-103489711D01*
X104621786Y-103489707D01*
X104510292Y-103378213D01*
X104510288Y-103378210D01*
X104379185Y-103290609D01*
X104379172Y-103290602D01*
X104233501Y-103230264D01*
X104233489Y-103230261D01*
X104078845Y-103199500D01*
X104078842Y-103199500D01*
X103921158Y-103199500D01*
X103921155Y-103199500D01*
X103766510Y-103230261D01*
X103766498Y-103230264D01*
X103620827Y-103290602D01*
X103620814Y-103290609D01*
X103489711Y-103378210D01*
X103489707Y-103378213D01*
X103378213Y-103489707D01*
X103378210Y-103489711D01*
X103290609Y-103620814D01*
X103290602Y-103620827D01*
X103230264Y-103766498D01*
X103230261Y-103766510D01*
X103199500Y-103921153D01*
X98244002Y-103921153D01*
X98223460Y-103893713D01*
X98207546Y-103872454D01*
X98207544Y-103872453D01*
X98207544Y-103872452D01*
X98092335Y-103786206D01*
X98092328Y-103786202D01*
X97957482Y-103735908D01*
X97957483Y-103735908D01*
X97897883Y-103729501D01*
X97897881Y-103729500D01*
X97897873Y-103729500D01*
X97897865Y-103729500D01*
X97887309Y-103729500D01*
X97820270Y-103709815D01*
X97799628Y-103693181D01*
X97129408Y-103022962D01*
X97192993Y-103005925D01*
X97307007Y-102940099D01*
X97400099Y-102847007D01*
X97465925Y-102732993D01*
X97482962Y-102669409D01*
X98115270Y-103301717D01*
X98115270Y-103301716D01*
X98154622Y-103247554D01*
X98251095Y-103058217D01*
X98316757Y-102856130D01*
X98316757Y-102856127D01*
X98350000Y-102646246D01*
X98350000Y-102433753D01*
X98316757Y-102223872D01*
X98316757Y-102223869D01*
X98251095Y-102021782D01*
X98154624Y-101832449D01*
X98115270Y-101778282D01*
X98115269Y-101778282D01*
X97482962Y-102410590D01*
X97465925Y-102347007D01*
X97400099Y-102232993D01*
X97307007Y-102139901D01*
X97192993Y-102074075D01*
X97129409Y-102057037D01*
X97743509Y-101442936D01*
X97723869Y-101421153D01*
X100699500Y-101421153D01*
X100699500Y-101578846D01*
X100730261Y-101733489D01*
X100730264Y-101733501D01*
X100790602Y-101879172D01*
X100790609Y-101879185D01*
X100878210Y-102010288D01*
X100878213Y-102010292D01*
X100989707Y-102121786D01*
X100989711Y-102121789D01*
X101120814Y-102209390D01*
X101120827Y-102209397D01*
X101259912Y-102267007D01*
X101266503Y-102269737D01*
X101421153Y-102300499D01*
X101421156Y-102300500D01*
X101421158Y-102300500D01*
X101578844Y-102300500D01*
X101578845Y-102300499D01*
X101733497Y-102269737D01*
X101879179Y-102209394D01*
X102010289Y-102121789D01*
X102121789Y-102010289D01*
X102209394Y-101879179D01*
X102269737Y-101733497D01*
X102300500Y-101578842D01*
X102300500Y-101421158D01*
X102300500Y-101421155D01*
X102300499Y-101421153D01*
X102274875Y-101292335D01*
X102269737Y-101266503D01*
X102260211Y-101243504D01*
X102209397Y-101120827D01*
X102209390Y-101120814D01*
X102121789Y-100989711D01*
X102121786Y-100989707D01*
X102010292Y-100878213D01*
X102010288Y-100878210D01*
X101879185Y-100790609D01*
X101879172Y-100790602D01*
X101733501Y-100730264D01*
X101733489Y-100730261D01*
X101578845Y-100699500D01*
X101578842Y-100699500D01*
X101421158Y-100699500D01*
X101421155Y-100699500D01*
X101266510Y-100730261D01*
X101266498Y-100730264D01*
X101120827Y-100790602D01*
X101120814Y-100790609D01*
X100989711Y-100878210D01*
X100989707Y-100878213D01*
X100878213Y-100989707D01*
X100878210Y-100989711D01*
X100790609Y-101120814D01*
X100790602Y-101120827D01*
X100730264Y-101266498D01*
X100730261Y-101266510D01*
X100699500Y-101421153D01*
X97723869Y-101421153D01*
X97662704Y-101353314D01*
X97657103Y-101341663D01*
X97647706Y-101332788D01*
X97642256Y-101310778D01*
X97632432Y-101290343D01*
X97634019Y-101277513D01*
X97630912Y-101264966D01*
X97638226Y-101243504D01*
X97641010Y-101221002D01*
X97649280Y-101211067D01*
X97653451Y-101198832D01*
X97675045Y-101180121D01*
X97685716Y-101167306D01*
X97692193Y-101165264D01*
X97698508Y-101159793D01*
X97707816Y-101155051D01*
X97787007Y-101097515D01*
X97879786Y-101030109D01*
X97879788Y-101030106D01*
X97879792Y-101030104D01*
X98030104Y-100879792D01*
X98030106Y-100879788D01*
X98030109Y-100879786D01*
X98155048Y-100707820D01*
X98155047Y-100707820D01*
X98155051Y-100707816D01*
X98251557Y-100518412D01*
X98317246Y-100316243D01*
X98350500Y-100106287D01*
X98350500Y-99893713D01*
X98317246Y-99683757D01*
X98251557Y-99481588D01*
X98155051Y-99292184D01*
X98155049Y-99292181D01*
X98155048Y-99292179D01*
X98030109Y-99120213D01*
X97879786Y-98969890D01*
X97707820Y-98844951D01*
X97707115Y-98844591D01*
X97699054Y-98840485D01*
X97648259Y-98792512D01*
X97631463Y-98724692D01*
X97653999Y-98658556D01*
X97699054Y-98619515D01*
X97707816Y-98615051D01*
X97757654Y-98578842D01*
X97879786Y-98490109D01*
X97879788Y-98490106D01*
X97879792Y-98490104D01*
X97948743Y-98421153D01*
X101214884Y-98421153D01*
X101214884Y-98578846D01*
X101245645Y-98733489D01*
X101245648Y-98733501D01*
X101305986Y-98879172D01*
X101305993Y-98879185D01*
X101393594Y-99010288D01*
X101393597Y-99010292D01*
X101505091Y-99121786D01*
X101505095Y-99121789D01*
X101636198Y-99209390D01*
X101636211Y-99209397D01*
X101781882Y-99269735D01*
X101781887Y-99269737D01*
X101894710Y-99292179D01*
X101936537Y-99300499D01*
X101936540Y-99300500D01*
X101936542Y-99300500D01*
X102094228Y-99300500D01*
X102094229Y-99300499D01*
X102248881Y-99269737D01*
X102394563Y-99209394D01*
X102525673Y-99121789D01*
X102637173Y-99010289D01*
X102724778Y-98879179D01*
X102733887Y-98857189D01*
X102785119Y-98733501D01*
X102785121Y-98733497D01*
X102815884Y-98578842D01*
X102815884Y-98421158D01*
X102815884Y-98421155D01*
X102815883Y-98421153D01*
X102785121Y-98266503D01*
X102782628Y-98260484D01*
X102724781Y-98120827D01*
X102724774Y-98120814D01*
X102637173Y-97989711D01*
X102637170Y-97989707D01*
X102525676Y-97878213D01*
X102525672Y-97878210D01*
X102394569Y-97790609D01*
X102394556Y-97790602D01*
X102248885Y-97730264D01*
X102248873Y-97730261D01*
X102094229Y-97699500D01*
X102094226Y-97699500D01*
X101936542Y-97699500D01*
X101936539Y-97699500D01*
X101781894Y-97730261D01*
X101781882Y-97730264D01*
X101636211Y-97790602D01*
X101636198Y-97790609D01*
X101505095Y-97878210D01*
X101505091Y-97878213D01*
X101393597Y-97989707D01*
X101393594Y-97989711D01*
X101305993Y-98120814D01*
X101305986Y-98120827D01*
X101245648Y-98266498D01*
X101245645Y-98266510D01*
X101214884Y-98421153D01*
X97948743Y-98421153D01*
X98030104Y-98339792D01*
X98155051Y-98167816D01*
X98251557Y-97978412D01*
X98317246Y-97776243D01*
X98350500Y-97566287D01*
X98350500Y-97421153D01*
X105199500Y-97421153D01*
X105199500Y-97578846D01*
X105230261Y-97733489D01*
X105230264Y-97733501D01*
X105290602Y-97879172D01*
X105290609Y-97879185D01*
X105378210Y-98010288D01*
X105378213Y-98010292D01*
X105489707Y-98121786D01*
X105489711Y-98121789D01*
X105620814Y-98209390D01*
X105620827Y-98209397D01*
X105754948Y-98264951D01*
X105766503Y-98269737D01*
X105921153Y-98300499D01*
X105921156Y-98300500D01*
X105921158Y-98300500D01*
X106078844Y-98300500D01*
X106078845Y-98300499D01*
X106233497Y-98269737D01*
X106350080Y-98221447D01*
X106379172Y-98209397D01*
X106379172Y-98209396D01*
X106379179Y-98209394D01*
X106510289Y-98121789D01*
X106621789Y-98010289D01*
X106709394Y-97879179D01*
X106769737Y-97733497D01*
X106800500Y-97578842D01*
X106800500Y-97421158D01*
X106800500Y-97421155D01*
X106800499Y-97421153D01*
X106795976Y-97398414D01*
X106769737Y-97266503D01*
X106718896Y-97143760D01*
X106709397Y-97120827D01*
X106709390Y-97120814D01*
X106621789Y-96989711D01*
X106621786Y-96989707D01*
X106510292Y-96878213D01*
X106510288Y-96878210D01*
X106379185Y-96790609D01*
X106379172Y-96790602D01*
X106233501Y-96730264D01*
X106233489Y-96730261D01*
X106078845Y-96699500D01*
X106078842Y-96699500D01*
X105921158Y-96699500D01*
X105921155Y-96699500D01*
X105766510Y-96730261D01*
X105766498Y-96730264D01*
X105620827Y-96790602D01*
X105620814Y-96790609D01*
X105489711Y-96878210D01*
X105489707Y-96878213D01*
X105378213Y-96989707D01*
X105378210Y-96989711D01*
X105290609Y-97120814D01*
X105290602Y-97120827D01*
X105230264Y-97266498D01*
X105230261Y-97266510D01*
X105199500Y-97421153D01*
X98350500Y-97421153D01*
X98350500Y-97353713D01*
X98317246Y-97143757D01*
X98251557Y-96941588D01*
X98155051Y-96752184D01*
X98155049Y-96752181D01*
X98155048Y-96752179D01*
X98030109Y-96580213D01*
X97879786Y-96429890D01*
X97707820Y-96304951D01*
X97707115Y-96304591D01*
X97699054Y-96300485D01*
X97648259Y-96252512D01*
X97631463Y-96184692D01*
X97653999Y-96118556D01*
X97699054Y-96079515D01*
X97707816Y-96075051D01*
X97729789Y-96059086D01*
X97879786Y-95950109D01*
X97879788Y-95950106D01*
X97879792Y-95950104D01*
X97908743Y-95921153D01*
X108199500Y-95921153D01*
X108199500Y-96078846D01*
X108230261Y-96233489D01*
X108230264Y-96233501D01*
X108290602Y-96379172D01*
X108290609Y-96379185D01*
X108378210Y-96510288D01*
X108378213Y-96510292D01*
X108489707Y-96621786D01*
X108489711Y-96621789D01*
X108620814Y-96709390D01*
X108620827Y-96709397D01*
X108724126Y-96752184D01*
X108766503Y-96769737D01*
X108921153Y-96800499D01*
X108921156Y-96800500D01*
X108921158Y-96800500D01*
X109078844Y-96800500D01*
X109078845Y-96800499D01*
X109233497Y-96769737D01*
X109379179Y-96709394D01*
X109510289Y-96621789D01*
X109621789Y-96510289D01*
X109709394Y-96379179D01*
X109769737Y-96233497D01*
X109800500Y-96078842D01*
X109800500Y-95921158D01*
X109800500Y-95921155D01*
X109800499Y-95921153D01*
X109781847Y-95827385D01*
X109769737Y-95766503D01*
X109750676Y-95720486D01*
X109709397Y-95620827D01*
X109709390Y-95620814D01*
X109621789Y-95489711D01*
X109621786Y-95489707D01*
X109510292Y-95378213D01*
X109510288Y-95378210D01*
X109379185Y-95290609D01*
X109379172Y-95290602D01*
X109233501Y-95230264D01*
X109233489Y-95230261D01*
X109078845Y-95199500D01*
X109078842Y-95199500D01*
X108921158Y-95199500D01*
X108921155Y-95199500D01*
X108766510Y-95230261D01*
X108766498Y-95230264D01*
X108620827Y-95290602D01*
X108620814Y-95290609D01*
X108489711Y-95378210D01*
X108489707Y-95378213D01*
X108378213Y-95489707D01*
X108378210Y-95489711D01*
X108290609Y-95620814D01*
X108290602Y-95620827D01*
X108230264Y-95766498D01*
X108230261Y-95766510D01*
X108199500Y-95921153D01*
X97908743Y-95921153D01*
X98030104Y-95799792D01*
X98030106Y-95799788D01*
X98030109Y-95799786D01*
X98155048Y-95627820D01*
X98155047Y-95627820D01*
X98155051Y-95627816D01*
X98251557Y-95438412D01*
X98317246Y-95236243D01*
X98350500Y-95026287D01*
X98350500Y-94813713D01*
X98317246Y-94603757D01*
X98251557Y-94401588D01*
X98155051Y-94212184D01*
X98155049Y-94212181D01*
X98155048Y-94212179D01*
X98064792Y-94087951D01*
X98030109Y-94040213D01*
X98011049Y-94021153D01*
X103699500Y-94021153D01*
X103699500Y-94178846D01*
X103730261Y-94333489D01*
X103730264Y-94333501D01*
X103790602Y-94479172D01*
X103790609Y-94479185D01*
X103878210Y-94610288D01*
X103878213Y-94610292D01*
X103989707Y-94721786D01*
X103989711Y-94721789D01*
X104120814Y-94809390D01*
X104120827Y-94809397D01*
X104239171Y-94858416D01*
X104266503Y-94869737D01*
X104421153Y-94900499D01*
X104421156Y-94900500D01*
X104421158Y-94900500D01*
X104578844Y-94900500D01*
X104578845Y-94900499D01*
X104733497Y-94869737D01*
X104879179Y-94809394D01*
X105010289Y-94721789D01*
X105121789Y-94610289D01*
X105209394Y-94479179D01*
X105269737Y-94333497D01*
X105300500Y-94178842D01*
X105300500Y-94021158D01*
X105300500Y-94021155D01*
X105300499Y-94021153D01*
X105699500Y-94021153D01*
X105699500Y-94178846D01*
X105730261Y-94333489D01*
X105730264Y-94333501D01*
X105790602Y-94479172D01*
X105790609Y-94479185D01*
X105878210Y-94610288D01*
X105878213Y-94610292D01*
X105989707Y-94721786D01*
X105989711Y-94721789D01*
X106120814Y-94809390D01*
X106120827Y-94809397D01*
X106239171Y-94858416D01*
X106266503Y-94869737D01*
X106421153Y-94900499D01*
X106421156Y-94900500D01*
X106421158Y-94900500D01*
X106578844Y-94900500D01*
X106578845Y-94900499D01*
X106733497Y-94869737D01*
X106879179Y-94809394D01*
X107010289Y-94721789D01*
X107121789Y-94610289D01*
X107209394Y-94479179D01*
X107269737Y-94333497D01*
X107300500Y-94178842D01*
X107300500Y-94021158D01*
X107300500Y-94021155D01*
X107300499Y-94021153D01*
X107289319Y-93964949D01*
X107269737Y-93866503D01*
X107251133Y-93821588D01*
X107209397Y-93720827D01*
X107209390Y-93720814D01*
X107121789Y-93589711D01*
X107121786Y-93589707D01*
X107010292Y-93478213D01*
X107010288Y-93478210D01*
X106879185Y-93390609D01*
X106879172Y-93390602D01*
X106733501Y-93330264D01*
X106733489Y-93330261D01*
X106578845Y-93299500D01*
X106578842Y-93299500D01*
X106421158Y-93299500D01*
X106421155Y-93299500D01*
X106266510Y-93330261D01*
X106266498Y-93330264D01*
X106120827Y-93390602D01*
X106120814Y-93390609D01*
X105989711Y-93478210D01*
X105989707Y-93478213D01*
X105878213Y-93589707D01*
X105878210Y-93589711D01*
X105790609Y-93720814D01*
X105790602Y-93720827D01*
X105730264Y-93866498D01*
X105730261Y-93866510D01*
X105699500Y-94021153D01*
X105300499Y-94021153D01*
X105289319Y-93964949D01*
X105269737Y-93866503D01*
X105251133Y-93821588D01*
X105209397Y-93720827D01*
X105209390Y-93720814D01*
X105121789Y-93589711D01*
X105121786Y-93589707D01*
X105010292Y-93478213D01*
X105010288Y-93478210D01*
X104879185Y-93390609D01*
X104879172Y-93390602D01*
X104733501Y-93330264D01*
X104733489Y-93330261D01*
X104578845Y-93299500D01*
X104578842Y-93299500D01*
X104421158Y-93299500D01*
X104421155Y-93299500D01*
X104266510Y-93330261D01*
X104266498Y-93330264D01*
X104120827Y-93390602D01*
X104120814Y-93390609D01*
X103989711Y-93478210D01*
X103989707Y-93478213D01*
X103878213Y-93589707D01*
X103878210Y-93589711D01*
X103790609Y-93720814D01*
X103790602Y-93720827D01*
X103730264Y-93866498D01*
X103730261Y-93866510D01*
X103699500Y-94021153D01*
X98011049Y-94021153D01*
X97879786Y-93889890D01*
X97707820Y-93764951D01*
X97518414Y-93668444D01*
X97518413Y-93668443D01*
X97518412Y-93668443D01*
X97316243Y-93602754D01*
X97316241Y-93602753D01*
X97316240Y-93602753D01*
X97154957Y-93577208D01*
X97106287Y-93569500D01*
X96893713Y-93569500D01*
X96845042Y-93577208D01*
X96683760Y-93602753D01*
X96481585Y-93668444D01*
X96292179Y-93764951D01*
X96120213Y-93889890D01*
X95969890Y-94040213D01*
X95844951Y-94212179D01*
X95748444Y-94401585D01*
X95682753Y-94603760D01*
X95649500Y-94813713D01*
X89266081Y-94813713D01*
X89317246Y-94656243D01*
X89350500Y-94446287D01*
X89350500Y-94233713D01*
X89317246Y-94023757D01*
X89251557Y-93821588D01*
X89155051Y-93632184D01*
X89155049Y-93632181D01*
X89155048Y-93632179D01*
X89030109Y-93460213D01*
X88879786Y-93309890D01*
X88707820Y-93184951D01*
X88707115Y-93184591D01*
X88699054Y-93180485D01*
X88648259Y-93132512D01*
X88631463Y-93064692D01*
X88653999Y-92998556D01*
X88699054Y-92959515D01*
X88707816Y-92955051D01*
X88754473Y-92921153D01*
X111699500Y-92921153D01*
X111699500Y-93078846D01*
X111730261Y-93233489D01*
X111730264Y-93233501D01*
X111790602Y-93379172D01*
X111790609Y-93379185D01*
X111878210Y-93510288D01*
X111878213Y-93510292D01*
X111989707Y-93621786D01*
X111989711Y-93621789D01*
X112120814Y-93709390D01*
X112120827Y-93709397D01*
X112254948Y-93764951D01*
X112266503Y-93769737D01*
X112421153Y-93800499D01*
X112421156Y-93800500D01*
X112421158Y-93800500D01*
X112578844Y-93800500D01*
X112578845Y-93800499D01*
X112733497Y-93769737D01*
X112851592Y-93720821D01*
X112879172Y-93709397D01*
X112879172Y-93709396D01*
X112879179Y-93709394D01*
X113010289Y-93621789D01*
X113121789Y-93510289D01*
X113209394Y-93379179D01*
X113269737Y-93233497D01*
X113300500Y-93078842D01*
X113300500Y-92921158D01*
X113300500Y-92921155D01*
X113300499Y-92921153D01*
X113269738Y-92766510D01*
X113269737Y-92766503D01*
X113236511Y-92686287D01*
X113209397Y-92620827D01*
X113209390Y-92620814D01*
X113121789Y-92489711D01*
X113121786Y-92489707D01*
X113010292Y-92378213D01*
X113010288Y-92378210D01*
X112879185Y-92290609D01*
X112879172Y-92290602D01*
X112733501Y-92230264D01*
X112733489Y-92230261D01*
X112578845Y-92199500D01*
X112578842Y-92199500D01*
X112421158Y-92199500D01*
X112421155Y-92199500D01*
X112266510Y-92230261D01*
X112266498Y-92230264D01*
X112120827Y-92290602D01*
X112120814Y-92290609D01*
X111989711Y-92378210D01*
X111989707Y-92378213D01*
X111878213Y-92489707D01*
X111878210Y-92489711D01*
X111790609Y-92620814D01*
X111790602Y-92620827D01*
X111730264Y-92766498D01*
X111730261Y-92766510D01*
X111699500Y-92921153D01*
X88754473Y-92921153D01*
X88788759Y-92896243D01*
X88879786Y-92830109D01*
X88879788Y-92830106D01*
X88879792Y-92830104D01*
X89030104Y-92679792D01*
X89030106Y-92679788D01*
X89030109Y-92679786D01*
X89155048Y-92507820D01*
X89155047Y-92507820D01*
X89155051Y-92507816D01*
X89251557Y-92318412D01*
X89295984Y-92181677D01*
X89335422Y-92124003D01*
X89399780Y-92096805D01*
X89468626Y-92108720D01*
X89484351Y-92118845D01*
X89484646Y-92118405D01*
X89620814Y-92209390D01*
X89620827Y-92209397D01*
X89752066Y-92263757D01*
X89766503Y-92269737D01*
X89921153Y-92300499D01*
X89921156Y-92300500D01*
X89921158Y-92300500D01*
X90078844Y-92300500D01*
X90078845Y-92300499D01*
X90233497Y-92269737D01*
X90379179Y-92209394D01*
X90510289Y-92121789D01*
X90621789Y-92010289D01*
X90709394Y-91879179D01*
X90712294Y-91872179D01*
X90750769Y-91779289D01*
X90769737Y-91733497D01*
X90800500Y-91578842D01*
X90800500Y-91421158D01*
X90800500Y-91421155D01*
X90800499Y-91421153D01*
X90785917Y-91347845D01*
X90769737Y-91266503D01*
X90756990Y-91235729D01*
X90709397Y-91120827D01*
X90709390Y-91120814D01*
X90621789Y-90989711D01*
X90621786Y-90989707D01*
X90510292Y-90878213D01*
X90510288Y-90878210D01*
X90379185Y-90790609D01*
X90379172Y-90790602D01*
X90233501Y-90730264D01*
X90233489Y-90730261D01*
X90078845Y-90699500D01*
X90078842Y-90699500D01*
X89921158Y-90699500D01*
X89921155Y-90699500D01*
X89766510Y-90730261D01*
X89766498Y-90730264D01*
X89620827Y-90790602D01*
X89620814Y-90790609D01*
X89489711Y-90878210D01*
X89489707Y-90878213D01*
X89378213Y-90989707D01*
X89334476Y-91055164D01*
X89280863Y-91099968D01*
X89211538Y-91108675D01*
X89148511Y-91078520D01*
X89131058Y-91059160D01*
X89030104Y-90920208D01*
X88879792Y-90769896D01*
X88879786Y-90769890D01*
X88707817Y-90644949D01*
X88698504Y-90640204D01*
X88647707Y-90592230D01*
X88630912Y-90524409D01*
X88653449Y-90458274D01*
X88698507Y-90419232D01*
X88707555Y-90414622D01*
X88761716Y-90375270D01*
X88761717Y-90375270D01*
X88129408Y-89742962D01*
X88192993Y-89725925D01*
X88307007Y-89660099D01*
X88400099Y-89567007D01*
X88465925Y-89452993D01*
X88482962Y-89389408D01*
X89115270Y-90021717D01*
X89115270Y-90021716D01*
X89154622Y-89967554D01*
X89251095Y-89778217D01*
X89316757Y-89576130D01*
X89316757Y-89576127D01*
X89350000Y-89366246D01*
X89350000Y-89153753D01*
X89316759Y-88943882D01*
X89316754Y-88943859D01*
X89309376Y-88921153D01*
X95199500Y-88921153D01*
X95199500Y-89078846D01*
X95230261Y-89233489D01*
X95230264Y-89233501D01*
X95290602Y-89379172D01*
X95290609Y-89379185D01*
X95378210Y-89510288D01*
X95378213Y-89510292D01*
X95489707Y-89621786D01*
X95489711Y-89621789D01*
X95620814Y-89709390D01*
X95620827Y-89709397D01*
X95766498Y-89769735D01*
X95766503Y-89769737D01*
X95921153Y-89800499D01*
X95921156Y-89800500D01*
X95921158Y-89800500D01*
X96078844Y-89800500D01*
X96078845Y-89800499D01*
X96233497Y-89769737D01*
X96379179Y-89709394D01*
X96379184Y-89709390D01*
X96379187Y-89709389D01*
X96442849Y-89666851D01*
X96509526Y-89645972D01*
X96576907Y-89664456D01*
X96623597Y-89716434D01*
X96629648Y-89732013D01*
X96690602Y-89879172D01*
X96690609Y-89879185D01*
X96778210Y-90010288D01*
X96778213Y-90010292D01*
X96889707Y-90121786D01*
X96889711Y-90121789D01*
X97020814Y-90209390D01*
X97020827Y-90209397D01*
X97166498Y-90269735D01*
X97166503Y-90269737D01*
X97321153Y-90300499D01*
X97321156Y-90300500D01*
X97321158Y-90300500D01*
X97478844Y-90300500D01*
X97478845Y-90300499D01*
X97633497Y-90269737D01*
X97779179Y-90209394D01*
X97910289Y-90121789D01*
X98021789Y-90010289D01*
X98067162Y-89942384D01*
X98120774Y-89897579D01*
X98190099Y-89888872D01*
X98253126Y-89919026D01*
X98284825Y-89963822D01*
X98290604Y-89977774D01*
X98290609Y-89977784D01*
X98378210Y-90108887D01*
X98378213Y-90108891D01*
X98489707Y-90220385D01*
X98489711Y-90220388D01*
X98620814Y-90307989D01*
X98620818Y-90307991D01*
X98620821Y-90307993D01*
X98754109Y-90363202D01*
X98808508Y-90407040D01*
X98830574Y-90473334D01*
X98828270Y-90501952D01*
X98799499Y-90646594D01*
X98799499Y-90804287D01*
X98830260Y-90958930D01*
X98830263Y-90958942D01*
X98871418Y-91058300D01*
X98878887Y-91127769D01*
X98847611Y-91190248D01*
X98787522Y-91225900D01*
X98781050Y-91227369D01*
X98766507Y-91230261D01*
X98766498Y-91230264D01*
X98620827Y-91290602D01*
X98620814Y-91290609D01*
X98489711Y-91378210D01*
X98489707Y-91378213D01*
X98378213Y-91489707D01*
X98378210Y-91489711D01*
X98290609Y-91620814D01*
X98290602Y-91620827D01*
X98230264Y-91766498D01*
X98230261Y-91766510D01*
X98199500Y-91921153D01*
X98199500Y-92078846D01*
X98230261Y-92233489D01*
X98230264Y-92233501D01*
X98290602Y-92379172D01*
X98290609Y-92379185D01*
X98378210Y-92510288D01*
X98378213Y-92510292D01*
X98489707Y-92621786D01*
X98489711Y-92621789D01*
X98620814Y-92709390D01*
X98620827Y-92709397D01*
X98758683Y-92766498D01*
X98766503Y-92769737D01*
X98921153Y-92800499D01*
X98921156Y-92800500D01*
X98921158Y-92800500D01*
X99078844Y-92800500D01*
X99078845Y-92800499D01*
X99089179Y-92798443D01*
X99114287Y-92793450D01*
X99114292Y-92793449D01*
X99199800Y-92776439D01*
X99233497Y-92769737D01*
X99379179Y-92709394D01*
X99510289Y-92621789D01*
X99621789Y-92510289D01*
X99709394Y-92379179D01*
X99769737Y-92233497D01*
X99800500Y-92078842D01*
X99800500Y-91921158D01*
X99800500Y-91921155D01*
X99800499Y-91921153D01*
X99772281Y-91779293D01*
X99769737Y-91766503D01*
X99728580Y-91667140D01*
X99721111Y-91597671D01*
X99752386Y-91535192D01*
X99812475Y-91499540D01*
X99818940Y-91498073D01*
X99833496Y-91495178D01*
X99979178Y-91434835D01*
X100110288Y-91347230D01*
X100221788Y-91235730D01*
X100252241Y-91190154D01*
X101214884Y-91190154D01*
X101214884Y-91347847D01*
X101245645Y-91502490D01*
X101245648Y-91502502D01*
X101305986Y-91648173D01*
X101305993Y-91648186D01*
X101393594Y-91779289D01*
X101393597Y-91779293D01*
X101505091Y-91890787D01*
X101505095Y-91890790D01*
X101636198Y-91978391D01*
X101636211Y-91978398D01*
X101781882Y-92038736D01*
X101781887Y-92038738D01*
X101896746Y-92061585D01*
X101936537Y-92069500D01*
X101936540Y-92069501D01*
X101936542Y-92069501D01*
X102094228Y-92069501D01*
X102094229Y-92069500D01*
X102248881Y-92038738D01*
X102394563Y-91978395D01*
X102525673Y-91890790D01*
X102637173Y-91779290D01*
X102724778Y-91648180D01*
X102785121Y-91502498D01*
X102815884Y-91347843D01*
X102815884Y-91190159D01*
X102815884Y-91190156D01*
X102815883Y-91190154D01*
X102800969Y-91115176D01*
X102785121Y-91035504D01*
X102766153Y-90989711D01*
X102724781Y-90889828D01*
X102724774Y-90889815D01*
X102637173Y-90758712D01*
X102637170Y-90758708D01*
X102525676Y-90647214D01*
X102525672Y-90647211D01*
X102394569Y-90559610D01*
X102394556Y-90559603D01*
X102248885Y-90499265D01*
X102248873Y-90499262D01*
X102094229Y-90468501D01*
X102094226Y-90468501D01*
X101936542Y-90468501D01*
X101936539Y-90468501D01*
X101781894Y-90499262D01*
X101781882Y-90499265D01*
X101636211Y-90559603D01*
X101636198Y-90559610D01*
X101505095Y-90647211D01*
X101505091Y-90647214D01*
X101393597Y-90758708D01*
X101393594Y-90758712D01*
X101305993Y-90889815D01*
X101305986Y-90889828D01*
X101245648Y-91035499D01*
X101245645Y-91035511D01*
X101214884Y-91190154D01*
X100252241Y-91190154D01*
X100277285Y-91152672D01*
X100302340Y-91115176D01*
X100302340Y-91115175D01*
X100306684Y-91108675D01*
X100309393Y-91104620D01*
X100369736Y-90958938D01*
X100400499Y-90804283D01*
X100400499Y-90646599D01*
X100400499Y-90646596D01*
X100400498Y-90646594D01*
X100389684Y-90592230D01*
X100369736Y-90491944D01*
X100369734Y-90491939D01*
X100309396Y-90346268D01*
X100309389Y-90346255D01*
X100221788Y-90215152D01*
X100221785Y-90215148D01*
X100110291Y-90103654D01*
X100110287Y-90103651D01*
X99979184Y-90016050D01*
X99979175Y-90016045D01*
X99845892Y-89960838D01*
X99791489Y-89916997D01*
X99769424Y-89850703D01*
X99771728Y-89822085D01*
X99800500Y-89677443D01*
X99800500Y-89519754D01*
X99800499Y-89519752D01*
X99772537Y-89379179D01*
X99769737Y-89365102D01*
X99736926Y-89285891D01*
X99729458Y-89216422D01*
X99740686Y-89184141D01*
X99740605Y-89184108D01*
X99741187Y-89182701D01*
X99742137Y-89179972D01*
X99742931Y-89178485D01*
X99742936Y-89178479D01*
X99803279Y-89032797D01*
X99834042Y-88878142D01*
X99834042Y-88720458D01*
X99834042Y-88720455D01*
X99834041Y-88720453D01*
X99821919Y-88659514D01*
X99803279Y-88565803D01*
X99742936Y-88420121D01*
X99742930Y-88420112D01*
X99742126Y-88418606D01*
X99741941Y-88417719D01*
X99740605Y-88414493D01*
X99741217Y-88414239D01*
X99727888Y-88350202D01*
X99736926Y-88312709D01*
X99769737Y-88233497D01*
X99800500Y-88078842D01*
X99800500Y-87921158D01*
X99800500Y-87921155D01*
X99800499Y-87921153D01*
X99779630Y-87816239D01*
X99769737Y-87766503D01*
X99732864Y-87677482D01*
X99709397Y-87620827D01*
X99709390Y-87620814D01*
X99621789Y-87489711D01*
X99621786Y-87489707D01*
X99510292Y-87378213D01*
X99510288Y-87378210D01*
X99379185Y-87290609D01*
X99379172Y-87290602D01*
X99233501Y-87230264D01*
X99233489Y-87230261D01*
X99078845Y-87199500D01*
X99078842Y-87199500D01*
X98921158Y-87199500D01*
X98921155Y-87199500D01*
X98766510Y-87230261D01*
X98766498Y-87230264D01*
X98620827Y-87290602D01*
X98620814Y-87290609D01*
X98489711Y-87378210D01*
X98489707Y-87378213D01*
X98378213Y-87489707D01*
X98378210Y-87489711D01*
X98290609Y-87620814D01*
X98290602Y-87620827D01*
X98230264Y-87766498D01*
X98230261Y-87766510D01*
X98199500Y-87921153D01*
X98199500Y-88078846D01*
X98230261Y-88233489D01*
X98230264Y-88233501D01*
X98290607Y-88379182D01*
X98291416Y-88380696D01*
X98291599Y-88381578D01*
X98292937Y-88384807D01*
X98292324Y-88385060D01*
X98305651Y-88449100D01*
X98296614Y-88486588D01*
X98263806Y-88565797D01*
X98263803Y-88565805D01*
X98233042Y-88720453D01*
X98233042Y-88720458D01*
X98233042Y-88878142D01*
X98233043Y-88878146D01*
X98233452Y-88880203D01*
X98233353Y-88881305D01*
X98233639Y-88884207D01*
X98233088Y-88884261D01*
X98227223Y-88949794D01*
X98184360Y-89004971D01*
X98118470Y-89028215D01*
X98050473Y-89012147D01*
X98024153Y-88992074D01*
X97974587Y-88942508D01*
X97941102Y-88881185D01*
X97940651Y-88830635D01*
X97947924Y-88794075D01*
X97962568Y-88720453D01*
X97970845Y-88678844D01*
X97970845Y-88521155D01*
X97970844Y-88521153D01*
X97964589Y-88489707D01*
X97940082Y-88366503D01*
X97908643Y-88290602D01*
X97879742Y-88220827D01*
X97879735Y-88220814D01*
X97792134Y-88089711D01*
X97792131Y-88089707D01*
X97680637Y-87978213D01*
X97680633Y-87978210D01*
X97549530Y-87890609D01*
X97549517Y-87890602D01*
X97403846Y-87830264D01*
X97403834Y-87830261D01*
X97249190Y-87799500D01*
X97249187Y-87799500D01*
X97091503Y-87799500D01*
X97091500Y-87799500D01*
X96936855Y-87830261D01*
X96936843Y-87830264D01*
X96791172Y-87890602D01*
X96791159Y-87890609D01*
X96660056Y-87978210D01*
X96660052Y-87978213D01*
X96548558Y-88089707D01*
X96548555Y-88089711D01*
X96463240Y-88217393D01*
X96409627Y-88262198D01*
X96340302Y-88270905D01*
X96312686Y-88263064D01*
X96310595Y-88262198D01*
X96233497Y-88230263D01*
X96233492Y-88230262D01*
X96233489Y-88230261D01*
X96078845Y-88199500D01*
X96078842Y-88199500D01*
X95921158Y-88199500D01*
X95921155Y-88199500D01*
X95766510Y-88230261D01*
X95766498Y-88230264D01*
X95620827Y-88290602D01*
X95620814Y-88290609D01*
X95489711Y-88378210D01*
X95489707Y-88378213D01*
X95378213Y-88489707D01*
X95378210Y-88489711D01*
X95290609Y-88620814D01*
X95290602Y-88620827D01*
X95230264Y-88766498D01*
X95230261Y-88766510D01*
X95199500Y-88921153D01*
X89309376Y-88921153D01*
X89251095Y-88741782D01*
X89154624Y-88552449D01*
X89115270Y-88498282D01*
X89115269Y-88498282D01*
X88482962Y-89130590D01*
X88465925Y-89067007D01*
X88400099Y-88952993D01*
X88307007Y-88859901D01*
X88192993Y-88794075D01*
X88129409Y-88777037D01*
X88799627Y-88106818D01*
X88860950Y-88073333D01*
X88887307Y-88070499D01*
X88897872Y-88070499D01*
X88957483Y-88064091D01*
X89092331Y-88013796D01*
X89207546Y-87927546D01*
X89293796Y-87812331D01*
X89344091Y-87677483D01*
X89350500Y-87617873D01*
X89350499Y-85921153D01*
X101199500Y-85921153D01*
X101199500Y-86078846D01*
X101230261Y-86233489D01*
X101230264Y-86233501D01*
X101290602Y-86379172D01*
X101290609Y-86379185D01*
X101378210Y-86510288D01*
X101378213Y-86510292D01*
X101489707Y-86621786D01*
X101489711Y-86621789D01*
X101620814Y-86709390D01*
X101620827Y-86709397D01*
X101766498Y-86769735D01*
X101766503Y-86769737D01*
X101879326Y-86792179D01*
X101921153Y-86800499D01*
X101921156Y-86800500D01*
X101921158Y-86800500D01*
X102078844Y-86800500D01*
X102078845Y-86800499D01*
X102233497Y-86769737D01*
X102379179Y-86709394D01*
X102510289Y-86621789D01*
X102621789Y-86510289D01*
X102709394Y-86379179D01*
X102769737Y-86233497D01*
X102800500Y-86078842D01*
X102800500Y-85921158D01*
X102800500Y-85921155D01*
X102800499Y-85921153D01*
X104199500Y-85921153D01*
X104199500Y-86078846D01*
X104230261Y-86233489D01*
X104230264Y-86233501D01*
X104290602Y-86379172D01*
X104290609Y-86379185D01*
X104378210Y-86510288D01*
X104378213Y-86510292D01*
X104489707Y-86621786D01*
X104489711Y-86621789D01*
X104620814Y-86709390D01*
X104620827Y-86709397D01*
X104766498Y-86769735D01*
X104766503Y-86769737D01*
X104879326Y-86792179D01*
X104921153Y-86800499D01*
X104921156Y-86800500D01*
X104921158Y-86800500D01*
X105078844Y-86800500D01*
X105078845Y-86800499D01*
X105233497Y-86769737D01*
X105379179Y-86709394D01*
X105510289Y-86621789D01*
X105621789Y-86510289D01*
X105709394Y-86379179D01*
X105769737Y-86233497D01*
X105800500Y-86078842D01*
X105800500Y-85921158D01*
X105800500Y-85921155D01*
X105800499Y-85921153D01*
X106699500Y-85921153D01*
X106699500Y-86078846D01*
X106730261Y-86233489D01*
X106730264Y-86233501D01*
X106790602Y-86379172D01*
X106790609Y-86379185D01*
X106878210Y-86510288D01*
X106878213Y-86510292D01*
X106989707Y-86621786D01*
X106989711Y-86621789D01*
X107120814Y-86709390D01*
X107120827Y-86709397D01*
X107266498Y-86769735D01*
X107266503Y-86769737D01*
X107379326Y-86792179D01*
X107421153Y-86800499D01*
X107421156Y-86800500D01*
X107421158Y-86800500D01*
X107578844Y-86800500D01*
X107578845Y-86800499D01*
X107733497Y-86769737D01*
X107879179Y-86709394D01*
X108010289Y-86621789D01*
X108121789Y-86510289D01*
X108209394Y-86379179D01*
X108269737Y-86233497D01*
X108300500Y-86078842D01*
X108300500Y-85921158D01*
X108300500Y-85921155D01*
X108300499Y-85921153D01*
X108280802Y-85822129D01*
X108269737Y-85766503D01*
X108268086Y-85762516D01*
X108209397Y-85620827D01*
X108209390Y-85620814D01*
X108121789Y-85489711D01*
X108121786Y-85489707D01*
X108010292Y-85378213D01*
X108010288Y-85378210D01*
X107879185Y-85290609D01*
X107879172Y-85290602D01*
X107733501Y-85230264D01*
X107733489Y-85230261D01*
X107578845Y-85199500D01*
X107578842Y-85199500D01*
X107421158Y-85199500D01*
X107421155Y-85199500D01*
X107266510Y-85230261D01*
X107266498Y-85230264D01*
X107120827Y-85290602D01*
X107120814Y-85290609D01*
X106989711Y-85378210D01*
X106989707Y-85378213D01*
X106878213Y-85489707D01*
X106878210Y-85489711D01*
X106790609Y-85620814D01*
X106790602Y-85620827D01*
X106730264Y-85766498D01*
X106730261Y-85766510D01*
X106699500Y-85921153D01*
X105800499Y-85921153D01*
X105780802Y-85822129D01*
X105769737Y-85766503D01*
X105768086Y-85762516D01*
X105709397Y-85620827D01*
X105709390Y-85620814D01*
X105621789Y-85489711D01*
X105621786Y-85489707D01*
X105510292Y-85378213D01*
X105510288Y-85378210D01*
X105379185Y-85290609D01*
X105379172Y-85290602D01*
X105233501Y-85230264D01*
X105233489Y-85230261D01*
X105078845Y-85199500D01*
X105078842Y-85199500D01*
X104921158Y-85199500D01*
X104921155Y-85199500D01*
X104766510Y-85230261D01*
X104766498Y-85230264D01*
X104620827Y-85290602D01*
X104620814Y-85290609D01*
X104489711Y-85378210D01*
X104489707Y-85378213D01*
X104378213Y-85489707D01*
X104378210Y-85489711D01*
X104290609Y-85620814D01*
X104290602Y-85620827D01*
X104230264Y-85766498D01*
X104230261Y-85766510D01*
X104199500Y-85921153D01*
X102800499Y-85921153D01*
X102780802Y-85822129D01*
X102769737Y-85766503D01*
X102768086Y-85762516D01*
X102709397Y-85620827D01*
X102709390Y-85620814D01*
X102621789Y-85489711D01*
X102621786Y-85489707D01*
X102510292Y-85378213D01*
X102510288Y-85378210D01*
X102379185Y-85290609D01*
X102379172Y-85290602D01*
X102233501Y-85230264D01*
X102233489Y-85230261D01*
X102078845Y-85199500D01*
X102078842Y-85199500D01*
X101921158Y-85199500D01*
X101921155Y-85199500D01*
X101766510Y-85230261D01*
X101766498Y-85230264D01*
X101620827Y-85290602D01*
X101620814Y-85290609D01*
X101489711Y-85378210D01*
X101489707Y-85378213D01*
X101378213Y-85489707D01*
X101378210Y-85489711D01*
X101290609Y-85620814D01*
X101290602Y-85620827D01*
X101230264Y-85766498D01*
X101230261Y-85766510D01*
X101199500Y-85921153D01*
X89350499Y-85921153D01*
X89350499Y-85822128D01*
X89344520Y-85766510D01*
X89344091Y-85762516D01*
X89293797Y-85627671D01*
X89293793Y-85627664D01*
X89207547Y-85512455D01*
X89207544Y-85512452D01*
X89092335Y-85426206D01*
X89092328Y-85426202D01*
X88957482Y-85375908D01*
X88957483Y-85375908D01*
X88897883Y-85369501D01*
X88897881Y-85369500D01*
X88897873Y-85369500D01*
X88897864Y-85369500D01*
X87102129Y-85369500D01*
X87102123Y-85369501D01*
X87042516Y-85375908D01*
X86907671Y-85426202D01*
X86907664Y-85426206D01*
X86792455Y-85512452D01*
X86792452Y-85512455D01*
X86706206Y-85627664D01*
X86706202Y-85627671D01*
X86655908Y-85762517D01*
X86649501Y-85822116D01*
X86649501Y-85822123D01*
X86649500Y-85822135D01*
X86000500Y-85822135D01*
X86000500Y-82313713D01*
X115149500Y-82313713D01*
X115149500Y-82526286D01*
X115182753Y-82736239D01*
X115248444Y-82938414D01*
X115344951Y-83127820D01*
X115469890Y-83299786D01*
X115620213Y-83450109D01*
X115792182Y-83575050D01*
X115800946Y-83579516D01*
X115851742Y-83627491D01*
X115868536Y-83695312D01*
X115845998Y-83761447D01*
X115800946Y-83800484D01*
X115792182Y-83804949D01*
X115620213Y-83929890D01*
X115469890Y-84080213D01*
X115344951Y-84252179D01*
X115248444Y-84441585D01*
X115182753Y-84643760D01*
X115149500Y-84853713D01*
X115149500Y-85066286D01*
X115175471Y-85230264D01*
X115182754Y-85276243D01*
X115215886Y-85378213D01*
X115248444Y-85478414D01*
X115344951Y-85667820D01*
X115469890Y-85839786D01*
X115620213Y-85990109D01*
X115792182Y-86115050D01*
X115800946Y-86119516D01*
X115851742Y-86167491D01*
X115868536Y-86235312D01*
X115845998Y-86301447D01*
X115800946Y-86340484D01*
X115792182Y-86344949D01*
X115620213Y-86469890D01*
X115469890Y-86620213D01*
X115344951Y-86792179D01*
X115248444Y-86981585D01*
X115182753Y-87183760D01*
X115165830Y-87290609D01*
X115149500Y-87393713D01*
X115149500Y-87606287D01*
X115182754Y-87816243D01*
X115246943Y-88013797D01*
X115248444Y-88018414D01*
X115344951Y-88207820D01*
X115469890Y-88379786D01*
X115620213Y-88530109D01*
X115792182Y-88655050D01*
X115800946Y-88659516D01*
X115851742Y-88707491D01*
X115868536Y-88775312D01*
X115845998Y-88841447D01*
X115800946Y-88880484D01*
X115792182Y-88884949D01*
X115620213Y-89009890D01*
X115469890Y-89160213D01*
X115344951Y-89332179D01*
X115248444Y-89521585D01*
X115182753Y-89723760D01*
X115149500Y-89933713D01*
X115149500Y-90146286D01*
X115175111Y-90307991D01*
X115182754Y-90356243D01*
X115240845Y-90535029D01*
X115248444Y-90558414D01*
X115344951Y-90747820D01*
X115469890Y-90919786D01*
X115620213Y-91070109D01*
X115792182Y-91195050D01*
X115800946Y-91199516D01*
X115851742Y-91247491D01*
X115868536Y-91315312D01*
X115845998Y-91381447D01*
X115800946Y-91420484D01*
X115792182Y-91424949D01*
X115620213Y-91549890D01*
X115469890Y-91700213D01*
X115344951Y-91872179D01*
X115248444Y-92061585D01*
X115182753Y-92263760D01*
X115149500Y-92473713D01*
X115149500Y-92686286D01*
X115172278Y-92830104D01*
X115182754Y-92896243D01*
X115242084Y-93078842D01*
X115248444Y-93098414D01*
X115344951Y-93287820D01*
X115469890Y-93459786D01*
X115620213Y-93610109D01*
X115792182Y-93735050D01*
X115800946Y-93739516D01*
X115851742Y-93787491D01*
X115868536Y-93855312D01*
X115845998Y-93921447D01*
X115800946Y-93960484D01*
X115792182Y-93964949D01*
X115620213Y-94089890D01*
X115469890Y-94240213D01*
X115344951Y-94412179D01*
X115248444Y-94601585D01*
X115182753Y-94803760D01*
X115167431Y-94900499D01*
X115149500Y-95013713D01*
X115149500Y-95226287D01*
X115150130Y-95230263D01*
X115173562Y-95378211D01*
X115182754Y-95436243D01*
X115245001Y-95627820D01*
X115248444Y-95638414D01*
X115344951Y-95827820D01*
X115469890Y-95999786D01*
X115620213Y-96150109D01*
X115792182Y-96275050D01*
X115800946Y-96279516D01*
X115851742Y-96327491D01*
X115868536Y-96395312D01*
X115845998Y-96461447D01*
X115800946Y-96500484D01*
X115792182Y-96504949D01*
X115620213Y-96629890D01*
X115469890Y-96780213D01*
X115344951Y-96952179D01*
X115248444Y-97141585D01*
X115182753Y-97343760D01*
X115149500Y-97553713D01*
X115149500Y-97766286D01*
X115172278Y-97910104D01*
X115182754Y-97976243D01*
X115245001Y-98167820D01*
X115248444Y-98178414D01*
X115344951Y-98367820D01*
X115469890Y-98539786D01*
X115583430Y-98653326D01*
X115616915Y-98714649D01*
X115611931Y-98784341D01*
X115570059Y-98840274D01*
X115539083Y-98857189D01*
X115407669Y-98906203D01*
X115407664Y-98906206D01*
X115292455Y-98992452D01*
X115292452Y-98992455D01*
X115206206Y-99107664D01*
X115206202Y-99107671D01*
X115155908Y-99242517D01*
X115150569Y-99292184D01*
X115149501Y-99302123D01*
X115149500Y-99302135D01*
X115149500Y-101097870D01*
X115149501Y-101097876D01*
X115155908Y-101157483D01*
X115206202Y-101292328D01*
X115206206Y-101292335D01*
X115292452Y-101407544D01*
X115292455Y-101407547D01*
X115407664Y-101493793D01*
X115407671Y-101493797D01*
X115542517Y-101544091D01*
X115542516Y-101544091D01*
X115549444Y-101544835D01*
X115602127Y-101550500D01*
X117397872Y-101550499D01*
X117457483Y-101544091D01*
X117592331Y-101493796D01*
X117707546Y-101407546D01*
X117793796Y-101292331D01*
X117844091Y-101157483D01*
X117850500Y-101097873D01*
X117850499Y-99302128D01*
X117844091Y-99242517D01*
X117831735Y-99209390D01*
X117793797Y-99107671D01*
X117793793Y-99107664D01*
X117707547Y-98992455D01*
X117707544Y-98992452D01*
X117592335Y-98906206D01*
X117592328Y-98906202D01*
X117460917Y-98857189D01*
X117404983Y-98815318D01*
X117380566Y-98749853D01*
X117395418Y-98681580D01*
X117416563Y-98653332D01*
X117530104Y-98539792D01*
X117655051Y-98367816D01*
X117751557Y-98178412D01*
X117817246Y-97976243D01*
X117850500Y-97766287D01*
X117850500Y-97553713D01*
X117817246Y-97343757D01*
X117751557Y-97141588D01*
X117655051Y-96952184D01*
X117655049Y-96952181D01*
X117655048Y-96952179D01*
X117530109Y-96780213D01*
X117379786Y-96629890D01*
X117207820Y-96504951D01*
X117207115Y-96504591D01*
X117199054Y-96500485D01*
X117148259Y-96452512D01*
X117131463Y-96384692D01*
X117153999Y-96318556D01*
X117199054Y-96279515D01*
X117207816Y-96275051D01*
X117229789Y-96259086D01*
X117379786Y-96150109D01*
X117379788Y-96150106D01*
X117379792Y-96150104D01*
X117530104Y-95999792D01*
X117530106Y-95999788D01*
X117530109Y-95999786D01*
X117655048Y-95827820D01*
X117655047Y-95827820D01*
X117655051Y-95827816D01*
X117751557Y-95638412D01*
X117817246Y-95436243D01*
X117850500Y-95226287D01*
X117850500Y-95013713D01*
X117817246Y-94803757D01*
X117751557Y-94601588D01*
X117655051Y-94412184D01*
X117655049Y-94412181D01*
X117655048Y-94412179D01*
X117530109Y-94240213D01*
X117379786Y-94089890D01*
X117207820Y-93964951D01*
X117207115Y-93964591D01*
X117199054Y-93960485D01*
X117148259Y-93912512D01*
X117131463Y-93844692D01*
X117153999Y-93778556D01*
X117199054Y-93739515D01*
X117207816Y-93735051D01*
X117243136Y-93709390D01*
X117379786Y-93610109D01*
X117379788Y-93610106D01*
X117379792Y-93610104D01*
X117530104Y-93459792D01*
X117530106Y-93459788D01*
X117530109Y-93459786D01*
X117655048Y-93287820D01*
X117655047Y-93287820D01*
X117655051Y-93287816D01*
X117751557Y-93098412D01*
X117817246Y-92896243D01*
X117850500Y-92686287D01*
X117850500Y-92473713D01*
X117817246Y-92263757D01*
X117751557Y-92061588D01*
X117655051Y-91872184D01*
X117655049Y-91872181D01*
X117655048Y-91872179D01*
X117530109Y-91700213D01*
X117379786Y-91549890D01*
X117207820Y-91424951D01*
X117207115Y-91424591D01*
X117199054Y-91420485D01*
X117148259Y-91372512D01*
X117131463Y-91304692D01*
X117153999Y-91238556D01*
X117199054Y-91199515D01*
X117207816Y-91195051D01*
X117229789Y-91179086D01*
X117379786Y-91070109D01*
X117379788Y-91070106D01*
X117379792Y-91070104D01*
X117530104Y-90919792D01*
X117530106Y-90919788D01*
X117530109Y-90919786D01*
X117655048Y-90747820D01*
X117655047Y-90747820D01*
X117655051Y-90747816D01*
X117751557Y-90558412D01*
X117817246Y-90356243D01*
X117850500Y-90146287D01*
X117850500Y-89933713D01*
X117817246Y-89723757D01*
X117751557Y-89521588D01*
X117655051Y-89332184D01*
X117655049Y-89332181D01*
X117655048Y-89332179D01*
X117530109Y-89160213D01*
X117379786Y-89009890D01*
X117207820Y-88884951D01*
X117200664Y-88881305D01*
X117199054Y-88880485D01*
X117148259Y-88832512D01*
X117131463Y-88764692D01*
X117153999Y-88698556D01*
X117199054Y-88659515D01*
X117207816Y-88655051D01*
X117330647Y-88565810D01*
X117379786Y-88530109D01*
X117379788Y-88530106D01*
X117379792Y-88530104D01*
X117530104Y-88379792D01*
X117530106Y-88379788D01*
X117530109Y-88379786D01*
X117655048Y-88207820D01*
X117655047Y-88207820D01*
X117655051Y-88207816D01*
X117751557Y-88018412D01*
X117817246Y-87816243D01*
X117850500Y-87606287D01*
X117850500Y-87393713D01*
X117817246Y-87183757D01*
X117751557Y-86981588D01*
X117655051Y-86792184D01*
X117655049Y-86792181D01*
X117655048Y-86792179D01*
X117530109Y-86620213D01*
X117379786Y-86469890D01*
X117207820Y-86344951D01*
X117207115Y-86344591D01*
X117199054Y-86340485D01*
X117148259Y-86292512D01*
X117131463Y-86224692D01*
X117153999Y-86158556D01*
X117199054Y-86119515D01*
X117207816Y-86115051D01*
X117257654Y-86078842D01*
X117379786Y-85990109D01*
X117379788Y-85990106D01*
X117379792Y-85990104D01*
X117530104Y-85839792D01*
X117530106Y-85839788D01*
X117530109Y-85839786D01*
X117655048Y-85667820D01*
X117655047Y-85667820D01*
X117655051Y-85667816D01*
X117751557Y-85478412D01*
X117817246Y-85276243D01*
X117850500Y-85066287D01*
X117850500Y-84853713D01*
X117817246Y-84643757D01*
X117751557Y-84441588D01*
X117655051Y-84252184D01*
X117655049Y-84252181D01*
X117655048Y-84252179D01*
X117530109Y-84080213D01*
X117379786Y-83929890D01*
X117207820Y-83804951D01*
X117207115Y-83804591D01*
X117199054Y-83800485D01*
X117148259Y-83752512D01*
X117131463Y-83684692D01*
X117153999Y-83618556D01*
X117199054Y-83579515D01*
X117207816Y-83575051D01*
X117229789Y-83559086D01*
X117379786Y-83450109D01*
X117379788Y-83450106D01*
X117379792Y-83450104D01*
X117530104Y-83299792D01*
X117530106Y-83299788D01*
X117530109Y-83299786D01*
X117655048Y-83127820D01*
X117655047Y-83127820D01*
X117655051Y-83127816D01*
X117751557Y-82938412D01*
X117817246Y-82736243D01*
X117850500Y-82526287D01*
X117850500Y-82313713D01*
X117817246Y-82103757D01*
X117751557Y-81901588D01*
X117655051Y-81712184D01*
X117655049Y-81712181D01*
X117655048Y-81712179D01*
X117530109Y-81540213D01*
X117379786Y-81389890D01*
X117207820Y-81264951D01*
X117018414Y-81168444D01*
X117018413Y-81168443D01*
X117018412Y-81168443D01*
X116816243Y-81102754D01*
X116816241Y-81102753D01*
X116816240Y-81102753D01*
X116654957Y-81077208D01*
X116606287Y-81069500D01*
X116393713Y-81069500D01*
X116345042Y-81077208D01*
X116183760Y-81102753D01*
X115981585Y-81168444D01*
X115792179Y-81264951D01*
X115620213Y-81389890D01*
X115469890Y-81540213D01*
X115344951Y-81712179D01*
X115248444Y-81901585D01*
X115182753Y-82103760D01*
X115149500Y-82313713D01*
X86000500Y-82313713D01*
X86000500Y-71421153D01*
X88199500Y-71421153D01*
X88199500Y-71578846D01*
X88230261Y-71733489D01*
X88230264Y-71733501D01*
X88290602Y-71879172D01*
X88290609Y-71879185D01*
X88378210Y-72010288D01*
X88378213Y-72010292D01*
X88489707Y-72121786D01*
X88489711Y-72121789D01*
X88620814Y-72209390D01*
X88620827Y-72209397D01*
X88766498Y-72269735D01*
X88766503Y-72269737D01*
X88921153Y-72300499D01*
X88921156Y-72300500D01*
X88921158Y-72300500D01*
X89078844Y-72300500D01*
X89078845Y-72300499D01*
X89233497Y-72269737D01*
X89379179Y-72209394D01*
X89510289Y-72121789D01*
X89621789Y-72010289D01*
X89709394Y-71879179D01*
X89769737Y-71733497D01*
X89800500Y-71578842D01*
X89800500Y-71421158D01*
X89800500Y-71421155D01*
X89800499Y-71421153D01*
X114199500Y-71421153D01*
X114199500Y-71578846D01*
X114230261Y-71733489D01*
X114230264Y-71733501D01*
X114290602Y-71879172D01*
X114290609Y-71879185D01*
X114378210Y-72010288D01*
X114378213Y-72010292D01*
X114489707Y-72121786D01*
X114489711Y-72121789D01*
X114620814Y-72209390D01*
X114620827Y-72209397D01*
X114766498Y-72269735D01*
X114766503Y-72269737D01*
X114921153Y-72300499D01*
X114921156Y-72300500D01*
X114921158Y-72300500D01*
X115078844Y-72300500D01*
X115078845Y-72300499D01*
X115233497Y-72269737D01*
X115379179Y-72209394D01*
X115510289Y-72121789D01*
X115621789Y-72010289D01*
X115709394Y-71879179D01*
X115769737Y-71733497D01*
X115800500Y-71578842D01*
X115800500Y-71421158D01*
X115800500Y-71421155D01*
X115800499Y-71421153D01*
X115769738Y-71266510D01*
X115769737Y-71266503D01*
X115769735Y-71266498D01*
X115709397Y-71120827D01*
X115709390Y-71120814D01*
X115621789Y-70989711D01*
X115621786Y-70989707D01*
X115510292Y-70878213D01*
X115510288Y-70878210D01*
X115379185Y-70790609D01*
X115379172Y-70790602D01*
X115233501Y-70730264D01*
X115233489Y-70730261D01*
X115078845Y-70699500D01*
X115078842Y-70699500D01*
X114921158Y-70699500D01*
X114921155Y-70699500D01*
X114766510Y-70730261D01*
X114766498Y-70730264D01*
X114620827Y-70790602D01*
X114620814Y-70790609D01*
X114489711Y-70878210D01*
X114489707Y-70878213D01*
X114378213Y-70989707D01*
X114378210Y-70989711D01*
X114290609Y-71120814D01*
X114290602Y-71120827D01*
X114230264Y-71266498D01*
X114230261Y-71266510D01*
X114199500Y-71421153D01*
X89800499Y-71421153D01*
X89769738Y-71266510D01*
X89769737Y-71266503D01*
X89769735Y-71266498D01*
X89709397Y-71120827D01*
X89709390Y-71120814D01*
X89621789Y-70989711D01*
X89621786Y-70989707D01*
X89510292Y-70878213D01*
X89510288Y-70878210D01*
X89379185Y-70790609D01*
X89379172Y-70790602D01*
X89233501Y-70730264D01*
X89233489Y-70730261D01*
X89078845Y-70699500D01*
X89078842Y-70699500D01*
X88921158Y-70699500D01*
X88921155Y-70699500D01*
X88766510Y-70730261D01*
X88766498Y-70730264D01*
X88620827Y-70790602D01*
X88620814Y-70790609D01*
X88489711Y-70878210D01*
X88489707Y-70878213D01*
X88378213Y-70989707D01*
X88378210Y-70989711D01*
X88290609Y-71120814D01*
X88290602Y-71120827D01*
X88230264Y-71266498D01*
X88230261Y-71266510D01*
X88199500Y-71421153D01*
X86000500Y-71421153D01*
X86000500Y-66307155D01*
X112945000Y-66307155D01*
X112945000Y-66955000D01*
X113861988Y-66955000D01*
X113829075Y-67012007D01*
X113795000Y-67139174D01*
X113795000Y-67270826D01*
X113829075Y-67397993D01*
X113861988Y-67455000D01*
X112945000Y-67455000D01*
X112945000Y-68102844D01*
X112951401Y-68162372D01*
X112951403Y-68162379D01*
X113001645Y-68297086D01*
X113001649Y-68297093D01*
X113087809Y-68412187D01*
X113087812Y-68412190D01*
X113202906Y-68498350D01*
X113202913Y-68498354D01*
X113337620Y-68548596D01*
X113337627Y-68548598D01*
X113397155Y-68554999D01*
X113397172Y-68555000D01*
X114045000Y-68555000D01*
X114045000Y-67638012D01*
X114102007Y-67670925D01*
X114229174Y-67705000D01*
X114360826Y-67705000D01*
X114487993Y-67670925D01*
X114545000Y-67638012D01*
X114545000Y-68555000D01*
X115192828Y-68555000D01*
X115192844Y-68554999D01*
X115252372Y-68548598D01*
X115252379Y-68548596D01*
X115387086Y-68498354D01*
X115387093Y-68498350D01*
X115502187Y-68412190D01*
X115502190Y-68412187D01*
X115588350Y-68297093D01*
X115588354Y-68297086D01*
X115637422Y-68165529D01*
X115679293Y-68109595D01*
X115744757Y-68085178D01*
X115813030Y-68100030D01*
X115841285Y-68121181D01*
X115955213Y-68235109D01*
X116127179Y-68360048D01*
X116127181Y-68360049D01*
X116127184Y-68360051D01*
X116316588Y-68456557D01*
X116518757Y-68522246D01*
X116728713Y-68555500D01*
X116728714Y-68555500D01*
X116941286Y-68555500D01*
X116941287Y-68555500D01*
X117151243Y-68522246D01*
X117353412Y-68456557D01*
X117542816Y-68360051D01*
X117629471Y-68297093D01*
X117714786Y-68235109D01*
X117714788Y-68235106D01*
X117714792Y-68235104D01*
X117865104Y-68084792D01*
X117865106Y-68084788D01*
X117865109Y-68084786D01*
X117990048Y-67912820D01*
X117990047Y-67912820D01*
X117990051Y-67912816D01*
X118086557Y-67723412D01*
X118152246Y-67521243D01*
X118185500Y-67311287D01*
X118185500Y-67098713D01*
X118152246Y-66888757D01*
X118086557Y-66686588D01*
X117990051Y-66497184D01*
X117990049Y-66497181D01*
X117990048Y-66497179D01*
X117865109Y-66325213D01*
X117714786Y-66174890D01*
X117542820Y-66049951D01*
X117353414Y-65953444D01*
X117353413Y-65953443D01*
X117353412Y-65953443D01*
X117151243Y-65887754D01*
X117151241Y-65887753D01*
X117151240Y-65887753D01*
X116989957Y-65862208D01*
X116941287Y-65854500D01*
X116728713Y-65854500D01*
X116680042Y-65862208D01*
X116518760Y-65887753D01*
X116316585Y-65953444D01*
X116127179Y-66049951D01*
X115955215Y-66174889D01*
X115841285Y-66288819D01*
X115779962Y-66322303D01*
X115710270Y-66317319D01*
X115654337Y-66275447D01*
X115637422Y-66244470D01*
X115588354Y-66112913D01*
X115588350Y-66112906D01*
X115502190Y-65997812D01*
X115502187Y-65997809D01*
X115387093Y-65911649D01*
X115387086Y-65911645D01*
X115252379Y-65861403D01*
X115252372Y-65861401D01*
X115192844Y-65855000D01*
X114545000Y-65855000D01*
X114545000Y-66771988D01*
X114487993Y-66739075D01*
X114360826Y-66705000D01*
X114229174Y-66705000D01*
X114102007Y-66739075D01*
X114045000Y-66771988D01*
X114045000Y-65855000D01*
X113397155Y-65855000D01*
X113337627Y-65861401D01*
X113337620Y-65861403D01*
X113202913Y-65911645D01*
X113202906Y-65911649D01*
X113087812Y-65997809D01*
X113087809Y-65997812D01*
X113001649Y-66112906D01*
X113001645Y-66112913D01*
X112951403Y-66247620D01*
X112951401Y-66247627D01*
X112945000Y-66307155D01*
X86000500Y-66307155D01*
X86000500Y-65624500D01*
X86020185Y-65557461D01*
X86072989Y-65511706D01*
X86124500Y-65500500D01*
X118375500Y-65500500D01*
X118442539Y-65520185D01*
G37*
%TD.AperFunction*%
%TD*%
M02*
